# Made in Blockbench 5.0.2
mtllib house - Copy.mtl

o tony
v -4.1875 2.5 0.75
v -4.1875 2.5 -0.25
v -4.1875 0.1875 0.75
v -4.1875 0.1875 -0.25
v -5.1875 2.5 0.75
v -5.1875 2.5 -0.25
v -5.1875 0.1875 0.75
v -5.1875 0.1875 -0.25
vt 0.00798801797304044 1
vt 0 1
vt 0 0.9902477596204533
vt 0.00798801797304044 0.9902477596204533
vt 0.016475287069395907 0.9902477596204533
vt 0.016475287069395907 1
vt 0.008487269096355467 1
vt 0.008487269096355467 0.9902477596204533
vt 0.008487269096355467 0.9857670005271482
vt 0.016475287069395907 0.9857670005271482
vt 0.016475287069395907 0.9899841855561413
vt 0.008487269096355467 0.9899841855561413
vt 0.02496255616575137 0.9857670005271482
vt 0.02496255616575137 0.9899841855561413
vt 0.016974538192710935 0.9899841855561413
vt 0.016974538192710935 0.9857670005271482
vt 0.02496255616575137 0.9902477596204533
vt 0.02496255616575137 1
vt 0.016974538192710935 1
vt 0.016974538192710935 0.9902477596204533
vt 0.00798801797304044 0.9899841855561413
vt 0 0.9899841855561413
vt 0 0.9802319451765946
vt 0.00798801797304044 0.9802319451765946
vn 1 0 0
vn -1 0 0
vn 0 1 0
vn 0 -1 0
vn 0 0 1
vn 0 0 -1
usemtl none
f 2/1/1 1/2/1 3/3/1 4/4/1
f 7/5/2 5/6/2 6/7/2 8/8/2
f 5/9/3 1/10/3 2/11/3 6/12/3
f 4/13/4 3/14/4 7/15/4 8/16/4
f 3/17/5 1/18/5 5/19/5 7/20/5
f 6/21/6 2/22/6 4/23/6 8/24/6
o cuboid
v 2.4326925 0.125 -1.3125
v 9.875 0 -1.3125
v -1.375 0.125 -1.3125
v -1.375 0 -1.3125
v -1.375 0.125 2.7911325
v -1.375 0 2.7911325
v 9.875 0.125 9.125
v 9.875 0.125 -1.3125
v 9.875 0 9.125
v -1.375 0.125 9.125
v -1.375 0 9.125
v 4.25 0.125 9.125
v 4.25 0.125 -1.3125
v 4.25 0 -1.3125
v 0.52884625 0.125 -1.3125
v 4.25 0 9.125
v 4.25 0.125 3.90625
v -1.375 0.125 3.90625
v -1.375 0 3.90625
v 4.25 0 3.90625
v 9.875 0 3.90625
v 9.875 0.125 3.90625
vt 0.08736894658012981 1
vt 0.0763854218671992 1
vt 0.09785322016974538 0.9994728518713759
vt 0.13030454318522217 0.9994728518713759
vt 0.08836744882675986 0.996046389035319
vt 0.0654018971542686 0.996046389035319
vt 0.0654018971542686 0.9955192409066947
vt 0.08836744882675986 0.9955192409066947
vt 0.1238142785821268 0.9976278334211913
vt 0.0946080878681977 0.9976278334211913
vt 0.0946080878681977 0.9971006852925672
vt 0.1238142785821268 0.9971006852925672
vt 0.0654018971542686 0.996309963099631
vt 0.0946080878681977 0.996309963099631
vt 0.0946080878681977 0.9968371112282551
vt 0.0654018971542686 0.9968371112282551
vt 0.48077883175237146 0.8447548761201897
vt 0.48077883175237146 0.9997364259356879
vt 0.0004992511233150275 0.9997364259356879
vt 0.0004992511233150275 0.8447548761201897
vt 0.032451323015476784 0.9380600948866632
vt 0.032451323015476784 0.9534791776489193
vt 0 0.9534791776489193
vt 0 0.9380600948866632
vt 0.0654018971542686 0.9986821296784396
vt 0.09785322016974538 0.9986821296784396
vt 0.09785322016974538 0.9992092778070638
vt 0.0654018971542686 0.9992092778070638
vt 0.0654018971542686 0.9978914074855034
vt 0.09785322016974538 0.9978914074855034
vt 0.09785322016974538 0.9984185556141276
vt 0.0654018971542686 0.9984185556141276
vt 0.009182221667498752 0.9920747759620453
vt 0.009182221667498752 0.8396584185556142
vt 0.4837743384922616 0.847320065893516
vt 0.4837743384922616 0.9997364259356879
vt 0.13030454318522217 0.9984185556141276
vt 0.09785322016974538 0.9984185556141276
vt 0.09785322016974538 0.9978914074855034
vt 0.13030454318522217 0.9978914074855034
vt 0.0654018971542686 0.9994728518713759
vt 0.09785322016974538 0.9994728518713759
vt 0.0763854218671992 1
vt 0.0654018971542686 1
vt 0.06490264603095357 0.9380600948866632
vt 0.06490264603095357 0.9534791776489193
vt 0.032451323015476784 0.9534791776489193
vt 0.032451323015476784 0.9380600948866632
vt 0.13030454318522217 0.9992092778070638
vt 0.09785322016974538 0.9992092778070638
vt 0.09785322016974538 0.9986821296784396
vt 0.13030454318522217 0.9986821296784396
vt 0.4857713429855217 0.8373748023194518
vt 0.4857713429855217 0.9992092778070638
vt 0.0004992511233150275 0.9992092778070638
vt 0.0004992511233150275 0.8373748023194518
vt 0.1238142785821268 0.9968371112282551
vt 0.0946080878681977 0.9968371112282551
vt 0.0946080878681977 0.996309963099631
vt 0.1238142785821268 0.996309963099631
vt 0 0.9688982604111755
vt 0 0.9534791776489193
vt 0.032451323015476784 0.9534791776489193
vt 0.032451323015476784 0.9688982604111755
vt 0.032451323015476784 0.9688982604111755
vt 0.032451323015476784 0.9534791776489193
vt 0.06490264603095357 0.9534791776489193
vt 0.06490264603095357 0.9688982604111755
vt 0.0654018971542686 0.9971006852925672
vt 0.0946080878681977 0.9971006852925672
vt 0.0946080878681977 0.9976278334211913
vt 0.0654018971542686 0.9976278334211913
vt 0.4832750873689466 0.8516078017923037
vt 0.4832750873689466 0.9997364259356879
vt 0.0004992511233150275 0.9997364259356879
vt 0.0004992511233150275 0.8516078017923037
vn 0 0 1
vn 1 0 0
vn 1 0 0
vn -1 0 0
vn 0 1 0
vn 0 -1 0
vn 0 0 1
vn 0 0 -1
vn 0 1 0
vn 0 0 -1
vn 0 0 1
vn 0 -1 0
vn 0 0 1
vn 0 1 0
vn -1 0 0
vn 0 -1 0
vn 0 -1 0
vn 1 0 0
vn 0 1 0
usemtl m_a2adfdc8-5309-37bc-052f-a1d5038f94ff
f 9/25/7 23/26/7 22/27/7 10/28/7
f 11/29/8 13/30/8 14/31/8 12/32/8
f 16/33/9 30/34/9 29/35/9 10/36/9
f 12/37/10 27/38/10 26/39/10 11/40/10
f 21/41/11 25/42/11 30/43/11 16/44/11
f 22/45/12 28/46/12 27/47/12 12/48/12
f 19/49/13 24/50/13 20/51/13 18/52/13
f 10/53/14 22/54/14 21/55/14 16/56/14
f 11/57/15 26/58/15 25/59/15 21/60/15
f 11/61/16 21/62/16 22/63/16 12/64/16
f 12/65/17 22/66/17 23/67/17 11/68/17
f 10/69/18 29/70/18 28/71/18 22/72/18
f 15/73/19 20/74/19 24/75/19 17/76/19
f 20/77/20 25/78/20 26/79/20 18/80/20
f 18/81/21 26/82/21 27/83/21 19/84/21
f 19/85/22 27/86/22 28/87/22 24/88/22
f 24/89/23 28/90/23 29/91/23 17/92/23
f 17/93/24 29/94/24 30/95/24 15/96/24
f 15/97/25 30/98/25 25/99/25 20/100/25
o cuboid
v 9.875 0.125 -1.1718749999999996
v 9.875 8.171875 -1.1718750000000016
v 9.875 0.125 -1.2968749999999998
v 9.875 8.171875 -1.2968750000000016
v -1.375 0.125 -1.1718749999999996
v -1.375 8.171875 -1.1718750000000016
v -1.375 0.125 -1.2968749999999998
v -1.375 8.171875 -1.2968750000000016
v 3.8125 0.125 -1.2968749999999998
v 3.8125 8.171875 -1.2968750000000016
v 3.8125 8.171875 -1.1718750000000016
v 3.8125 0.125 -1.1718749999999996
v 5.65625 0.125 -1.2968749999999998
v 5.65625 8.171875 -1.2968750000000016
v 5.65625 8.171875 -1.1718750000000016
v 5.65625 0.125 -1.1718749999999996
v 5.65625 3.875661875 -1.2968750000000004
v 3.8125 3.875661875 -1.2968750000000004
v -1.375 3.875661875 -1.2968750000000004
v -1.375 3.875661875 -1.1718750000000004
v 3.8125 3.875661875 -1.1718750000000004
v 5.65625 3.875661875 -1.1718750000000004
v 9.875 3.875661875 -1.1718750000000004
v 9.875 3.875661875 -1.2968750000000004
vt 0 0.9978914074855034
vt 0.0037232301547678484 0.9978914074855034
vt 0.0037232301547678484 1
vt 0 1
vt 0.00798801797304044 1
vt 0.004264787818272591 1
vt 0.004264787818272591 0.9978914074855034
vt 0.00798801797304044 0.9978914074855034
vt 0.12601375936095857 0.022140221402214055
vt 0.12601375936095857 0.08618871903004743
vt 0.0004992511233150275 0.08618871903004743
vt 0.0004992511233150275 0.022140221402214055
vt 0 1
vt 0 0.9980343621507644
vt 0.0036833649525711432 0.9980343621507644
vt 0.0036833649525711432 1
vt 0 0.9978914074855034
vt 0.0036833649525711432 0.9978914074855034
vt 0.0036833649525711432 1
vt 0 1
vt 0.00798801797304044 1
vt 0.004304653020469297 1
vt 0.004304653020469297 0.9978914074855034
vt 0.00798801797304044 0.9978914074855034
vt 0.004304653020469297 1
vt 0.0029955067398901645 1
vt 0.0029955067398901645 0.9978914074855034
vt 0.004304653020469297 0.9978914074855034
vt 0.004992511233150275 1
vt 0.004992511233150275 0.9980343621507644
vt 0.00798801797304044 0.9980343621507644
vt 0.00798801797304044 1
vt 0 0.9978914074855034
vt 0.0029955067398901645 0.9978914074855034
vt 0.0029955067398901645 1
vt 0 1
vt 0.36994508237643536 0.022140221402214055
vt 0.36994508237643536 0.0977859778597786
vt 0.24906390414378432 0.0977859778597786
vt 0.24906390414378432 0.022140221402214055
vt 0.00798801797304044 1
vt 0.004992511233150275 1
vt 0.004992511233150275 0.9978914074855034
vt 0.00798801797304044 0.9978914074855034
vt 0.004992511233150275 0.9957828149710068
vt 0.004992511233150275 0.9980343621507644
vt 0.0036833649525711432 0.9980343621507644
vt 0.0036833649525711432 0.9957828149710068
vt 0.0036833649525711432 0.9957828149710068
vt 0.0036833649525711432 0.9980343621507644
vt 0 0.9980343621507644
vt 0 0.9957828149710068
vt 0 0.9978914074855034
vt 0.004264787818272591 0.9978914074855034
vt 0.004264787818272591 1
vt 0 1
vt 0.0004992511233150275 0.13020558777016344
vt 0.0004992511233150275 0.07274644175013179
vt 0.1379957863205192 0.07274644175013179
vt 0.1379957863205192 0.13020558777016344
vt 0.15996283574638043 0.13020558777016344
vt 0.15996283574638043 0.06905640484976283
vt 0.225099850224663 0.06905640484976283
vt 0.225099850224663 0.13020558777016344
vt 0.26903394907638545 0.13020558777016344
vt 0.26903394907638545 0.08249868212967848
vt 0.36994508237643536 0.08249868212967848
vt 0.36994508237643536 0.13020558777016344
vt 0.00798801797304044 1
vt 0.0037232301547678484 1
vt 0.0037232301547678484 0.9978914074855034
vt 0.00798801797304044 0.9978914074855034
vt 0.00798801797304044 0.9957828149710068
vt 0.00798801797304044 0.9980343621507644
vt 0.004992511233150275 0.9980343621507644
vt 0.004992511233150275 0.9957828149710068
vt 0 1
vt 0 0.9994728518713759
vt 0.029960359460808786 0.9994728518713759
vt 0.029960359460808786 1
vt 0.01472790813779331 1
vt 0 1
vt 0 0.9994728518713759
vt 0.01472790813779331 0.9994728518713759
vt 0.029960359460808786 0.9994728518713759
vt 0.029960359460808786 1
vt 0 1
vt 0 0.9994728518713759
vt 0 1
vt 0 0.9994728518713759
vt 0.01472790813779331 0.9994728518713759
vt 0.01472790813779331 1
vn 1 0 0
vn -1 0 0
vn 0 2.220446049250313e-16 1
vn 0 -2.220446049250313e-16 -1
vn 0 -1 2.220446049250313e-16
vn 0 1 -2.220446049250313e-16
vn 0 1 -2.220446049250313e-16
vn 0 -2.220446049250313e-16 -1
vn 0 1 -2.220446049250313e-16
vn 0 2.220446049250313e-16 1
vn 0 -1 2.220446049250313e-16
vn 0 -2.220446049250313e-16 -1
vn 0 -2.220446049250313e-16 -1
vn -1 0 0
vn 0 2.220446049250313e-16 1
vn 0 2.220446049250313e-16 1
vn 0 2.220446049250313e-16 1
vn 1 0 0
vn 0 -2.220446049250313e-16 -1
vn 1 0 0
vn 0 -1 2.220446049250313e-16
vn -1 0 0
vn 0 -1 2.220446049250313e-16
usemtl m_a2adfdc8-5309-37bc-052f-a1d5038f94ff
f 33/101/26 54/102/26 53/103/26 31/104/26
f 35/105/27 50/106/27 49/107/27 37/108/27
f 42/109/28 51/110/28 50/111/28 35/112/28
f 37/113/29 49/114/29 48/115/29 39/116/29
f 37/117/30 39/118/30 42/119/30 35/120/30
f 36/121/31 41/122/31 40/123/31 38/124/31
f 41/125/32 45/126/32 44/127/32 40/128/32
f 43/129/33 47/130/33 54/131/33 33/132/33
f 34/133/34 44/134/34 45/135/34 32/136/34
f 31/137/35 53/138/35 52/139/35 46/140/35
f 31/141/36 46/142/36 43/143/36 33/144/36
f 44/145/37 47/146/37 48/147/37 40/148/37
f 40/149/38 48/150/38 49/151/38 38/152/38
f 38/153/39 49/154/39 50/155/39 36/156/39
f 36/157/40 50/158/40 51/159/40 41/160/40
f 41/161/41 51/162/41 52/163/41 45/164/41
f 45/165/42 52/166/42 53/167/42 32/168/42
f 32/169/43 53/170/43 54/171/43 34/172/43
f 34/173/44 54/174/44 47/175/44 44/176/44
f 42/177/45 39/178/45 48/179/45 51/180/45
f 46/181/46 42/182/46 39/183/46 43/184/46
f 43/185/47 46/186/47 52/187/47 47/188/47
f 51/189/48 48/190/48 47/191/48 52/192/48
o cuboid
v -1.4374999999999978 0.12500000000000222 9.934375
v -1.4374999999999978 8.171875000000002 9.934374999999998
v -1.3124999999999978 0.12500000000000222 9.934375
v -1.3124999999999978 8.171875000000002 9.934374999999998
v -1.4375000000000002 0.12499999999999978 -1.3156249999999998
v -1.4375000000000002 8.171875 -1.3156250000000016
v -1.3125000000000002 0.12499999999999978 -1.3156249999999998
v -1.3125000000000002 8.171875 -1.3156250000000016
vt 0.00798801797304044 1
vt 0 1
vt 0 0.9978914074855034
vt 0.00798801797304044 0.9978914074855034
vt 0.00798801797304044 0.9978914074855034
vt 0.00798801797304044 1
vt 0 1
vt 0 0.9978914074855034
vt 0 0.9688982604111755
vt 0.0654018971542686 0.9688982604111755
vt 0.0654018971542686 1
vt 0 1
vt 0.37044433349975037 0.13020558777016344
vt 0.37044433349975037 0.023458091723774332
vt 0.0004992511233150275 0.023458091723774332
vt 0.0004992511233150275 0.13020558777016344
vt 0.00798801797304044 0.9978914074855034
vt 0.00798801797304044 1
vt 0 1
vt 0 0.9978914074855034
vt 0.00798801797304044 1
vt 0 1
vt 0 0.9978914074855034
vt 0.00798801797304044 0.9978914074855034
vn 2.220446049250313e-16 2.220446049250313e-16 1
vn -2.220446049250313e-16 -2.220446049250313e-16 -1
vn -1 4.930380657631324e-32 2.220446049250313e-16
vn 1 -4.930380657631324e-32 -2.220446049250313e-16
vn 4.930380657631324e-32 -1 2.220446049250313e-16
vn -4.930380657631324e-32 1 -2.220446049250313e-16
usemtl m_a2adfdc8-5309-37bc-052f-a1d5038f94ff
f 56/193/49 55/194/49 57/195/49 58/196/49
f 61/197/50 59/198/50 60/199/50 62/200/50
f 59/201/51 55/202/51 56/203/51 60/204/51
f 58/205/52 57/206/52 61/207/52 62/208/52
f 57/209/53 55/210/53 59/211/53 61/212/53
f 60/213/54 56/214/54 58/215/54 62/216/54
o cuboid
v 9.875 0.125 9.140625
v 9.875 8.171875 9.140624999999998
v 9.875 0.125 9.015625
v 9.875 8.171875 9.015624999999998
v -1.375 0.125 9.140625
v -1.375 8.171875 9.140624999999998
v -1.375 0.125 9.015625
v -1.375 8.171875 9.015624999999998
vt 0.00798801797304044 1
vt 0 1
vt 0 0.9978914074855034
vt 0.00798801797304044 0.9978914074855034
vt 0.00798801797304044 0.9978914074855034
vt 0.00798801797304044 1
vt 0 1
vt 0 0.9978914074855034
vt 0 0.9688982604111755
vt 0.0654018971542686 0.9688982604111755
vt 0.0654018971542686 1
vt 0 1
vt 0.36844732900649024 0.13020558777016344
vt 0.36844732900649024 0.021876647337901955
vt 0.0004992511233150275 0.021876647337901955
vt 0.0004992511233150275 0.13020558777016344
vt 0.00798801797304044 0.9978914074855034
vt 0.00798801797304044 1
vt 0 1
vt 0 0.9978914074855034
vt 0.00798801797304044 1
vt 0 1
vt 0 0.9978914074855034
vt 0.00798801797304044 0.9978914074855034
vn 1 0 0
vn -1 0 0
vn 0 2.220446049250313e-16 1
vn 0 -2.220446049250313e-16 -1
vn 0 -1 2.220446049250313e-16
vn 0 1 -2.220446049250313e-16
usemtl m_a2adfdc8-5309-37bc-052f-a1d5038f94ff
f 64/217/55 63/218/55 65/219/55 66/220/55
f 69/221/56 67/222/56 68/223/56 70/224/56
f 67/225/57 63/226/57 64/227/57 68/228/57
f 66/229/58 65/230/58 69/231/58 70/232/58
f 65/233/59 63/234/59 67/235/59 69/236/59
f 68/237/60 64/238/60 66/239/60 70/240/60
o cuboid
v 9.750000000000002 0.12500000000000222 9.934375
v 9.750000000000002 8.171875000000002 9.934374999999998
v 9.875000000000002 0.12500000000000222 9.934375
v 9.875000000000002 8.171875000000002 9.934374999999998
v 9.75 0.12499999999999978 -1.3156249999999998
v 9.75 8.171875 -1.3156250000000016
v 9.875 0.12499999999999978 -1.3156249999999998
v 9.875 8.171875 -1.3156250000000016
vt 0.00798801797304044 1
vt 0 1
vt 0 0.9978914074855034
vt 0.00798801797304044 0.9978914074855034
vt 0.00798801797304044 0.9978914074855034
vt 0.00798801797304044 1
vt 0 1
vt 0 0.9978914074855034
vt 0.0004992511233150275 0.022930943595150244
vt 0.3689465801298053 0.022930943595150244
vt 0.3689465801298053 0.13020558777016344
vt 0.0004992511233150275 0.13020558777016344
vt 0.00798801797304044 0.9957828149710068
vt 0.00798801797304044 1
vt 0 1
vt 0 0.9957828149710068
vt 0.00798801797304044 0.9978914074855034
vt 0.00798801797304044 1
vt 0 1
vt 0 0.9978914074855034
vt 0.00798801797304044 1
vt 0 1
vt 0 0.9978914074855034
vt 0.00798801797304044 0.9978914074855034
vn 2.220446049250313e-16 2.220446049250313e-16 1
vn -2.220446049250313e-16 -2.220446049250313e-16 -1
vn -1 4.930380657631324e-32 2.220446049250313e-16
vn 1 -4.930380657631324e-32 -2.220446049250313e-16
vn 4.930380657631324e-32 -1 2.220446049250313e-16
vn -4.930380657631324e-32 1 -2.220446049250313e-16
usemtl m_a2adfdc8-5309-37bc-052f-a1d5038f94ff
f 72/241/61 71/242/61 73/243/61 74/244/61
f 77/245/62 75/246/62 76/247/62 78/248/62
f 75/249/63 71/250/63 72/251/63 76/252/63
f 74/253/64 73/254/64 77/255/64 78/256/64
f 73/257/65 71/258/65 75/259/65 77/260/65
f 76/261/66 72/262/66 74/263/66 78/264/66
o teto
v 2.4326925 8.1875 -1.3125
v 9.875 8.0625 -1.3125
v -1.375 8.1875 -1.3125
v -1.375 8.0625 -1.3125
v -1.375 8.1875 2.7911325
v -1.375 8.0625 2.7911325
v 9.875 8.1875 9.125
v 9.875 8.1875 -1.3125
v 9.875 8.0625 9.125
v -1.375 8.1875 9.125
v -1.375 8.0625 9.125
vt 0.13030454318522217 0.9994728518713759
vt 0.08736894658012981 1
vt 0.0654018971542686 1
vt 0.0654018971542686 0.9994728518713759
vt 0.08836744882675986 0.996046389035319
vt 0.0654018971542686 0.996046389035319
vt 0.0654018971542686 0.9955192409066947
vt 0.08836744882675986 0.9955192409066947
vt 0.1238142785821268 0.9976278334211913
vt 0.0654018971542686 0.9976278334211913
vt 0.0654018971542686 0.9971006852925672
vt 0.1238142785821268 0.9971006852925672
vt 0.1238142785821268 0.996309963099631
vt 0.1238142785821268 0.9968371112282551
vt 0.0654018971542686 0.9968371112282551
vt 0.0654018971542686 0.996309963099631
vt 0.02745881178232651 0.7488139167105956
vt 0.4777833250124812 0.7488139167105956
vt 0.4777833250124812 0.9396415392725356
vt 0.02745881178232651 0.9396415392725356
vt 0.29605908286206256 0.09383661039522018
vt 0.2831265980813491 0.04698416489644763
vt 0.10484886983385179 0.040217410886176475
vt 0.11446589253784306 0.09120086975209951
vt 0.13030454318522217 0.9986821296784396
vt 0.13030454318522217 0.9992092778070638
vt 0.0654018971542686 0.9992092778070638
vt 0.0654018971542686 0.9986821296784396
vt 0.13030454318522217 0.9984185556141276
vt 0.0654018971542686 0.9984185556141276
vt 0.0654018971542686 0.9978914074855034
vt 0.13030454318522217 0.9978914074855034
vn 0 0 1
vn 1 0 0
vn 1 0 0
vn -1 0 0
vn 0 1 0
vn 0 -1 0
vn 0 0 1
vn 0 0 -1
usemtl m_a2adfdc8-5309-37bc-052f-a1d5038f94ff
f 80/265/67 79/266/67 81/267/67 82/268/67
f 81/269/68 83/270/68 84/271/68 82/272/68
f 86/273/69 85/274/69 87/275/69 80/276/69
f 89/277/70 88/278/70 81/279/70 82/280/70
f 88/281/71 85/282/71 86/283/71 81/284/71
f 80/285/72 87/286/72 89/287/72 82/288/72
f 87/289/73 85/290/73 88/291/73 89/292/73
f 81/293/74 86/294/74 80/295/74 82/296/74
o cama
v 9.765625 1.125 3.25
v 9.765625 1.125 -1.0625
v 9.765625 -0.0625 3.25
v 9.765625 -0.0625 -1.0625
v 7.1875 1.125 3.25
v 7.1875 1.125 -1.0625
v 7.1875 -0.0625 3.25
v 7.1875 -0.0625 -1.0625
vt 0.00798801797304044 1
vt 0 1
vt 0 0.9978914074855034
vt 0.00798801797304044 0.9978914074855034
vt 0.00798801797304044 0.9978914074855034
vt 0.00798801797304044 1
vt 0 1
vt 0 0.9978914074855034
vt 0 0.9957828149710068
vt 0.00798801797304044 0.9957828149710068
vt 0.00798801797304044 1
vt 0 1
vt 0.00798801797304044 0.9957828149710068
vt 0.00798801797304044 1
vt 0 1
vt 0 0.9957828149710068
vt 0.00798801797304044 0.9978914074855034
vt 0.00798801797304044 1
vt 0 1
vt 0 0.9978914074855034
vt 0.00798801797304044 1
vt 0 1
vt 0 0.9978914074855034
vt 0.00798801797304044 0.9978914074855034
vn 1 0 0
vn -1 0 0
vn 0 1 0
vn 0 -1 0
vn 0 0 1
vn 0 0 -1
usemtl none
f 91/297/75 90/298/75 92/299/75 93/300/75
f 96/301/76 94/302/76 95/303/76 97/304/76
f 94/305/77 90/306/77 91/307/77 95/308/77
f 93/309/78 92/310/78 96/311/78 97/312/78
f 92/313/79 90/314/79 94/315/79 96/316/79
f 95/317/80 91/318/80 93/319/80 97/320/80
o beveled_cuboid
v -0.4375 1.4375 7.63671875
v -0.4375 1.25 6.078125
v -1.1875 1.4375 8.046875
v -1.1875 1.4375 6.2421875
v -0.4375 0.9375 8.046875
v -0.4375 0.9375 6.078125
v -1.1875 0.9375 8.046875
v -1.1875 0.9375 6.078125
v -1.3125 1.0625 8.046875
v -1.3125 1.3125 8.046875
v -1.3125 1.0625 6.078125
v -1.3125 1.3125 6.2421875
v -0.3125 1.0625 8.046875
v -0.3125 1.3125 7.63671875
v -0.3125 1.125 6.078125
v -0.4375 1.125 5.75
v -1.1875 1.0625 5.75
v -1.1875 1.3125 5.9140625
v -0.4375 1.0625 8.375
v -0.4375 1.3125 7.96484375
v -1.1875 1.0625 8.375
v -1.1875 1.3125 8.375
v -0.3125 1.0625 6.078125
v -0.4375 1.0625 5.75
vt 0.3048926610084873 0.2235108065366368
vt 0.1367948077883175 0.2704269899841856
vt 0.12481278082875687 0.2327358987875593
vt 0.3048926610084873 0.17712177121771222
vt 0.28592111832251627 0.283342119135477
vt 0.28592111832251627 0.3413284132841329
vt 0.0004992511233150275 0.3413284132841329
vt 0.0004992511233150275 0.283342119135477
vt 0.14321018472291563 0.27099367422245657
vt 0.3289316025961059 0.21142593568792833
vt 0.3553919121318023 0.29015550869794415
vt 0.21260609086370447 0.33417237743806005
vt 0.0004992511233150275 0.16367949393779657
vt 0.28592111832251627 0.16367949393779657
vt 0.28592111832251627 0.3376383763837638
vt 0.0004992511233150275 0.3376383763837638
vt 0.28592111832251627 0.283342119135477
vt 0.28592111832251627 0.3413284132841329
vt 0.0004992511233150275 0.3413284132841329
vt 0.0004992511233150275 0.283342119135477
vt 0.40310757863205193 0.27074481286241436
vt 0.3528567299051423 0.16676552978386927
vt 0.44001652021967047 0.1427552714812862
vt 0.47097008986520217 0.24834919609910389
vt 0.3117219171243135 0.2195395809172378
vt 0.1440152221667499 0.2743420242488138
vt 0.11349026460309536 0.24077618081180807
vt 0.3076572690963555 0.17727579335793353
vt 0.28592111832251627 0.30032630469161836
vt 0.28592111832251627 0.3413284132841329
vt 0.0004992511233150275 0.3413284132841329
vt 0.0004992511233150275 0.30032630469161836
vt 0.28592111832251627 0.30032630469161836
vt 0.28592111832251627 0.3413284132841329
vt 0.0004992511233150275 0.3413284132841329
vt 0.0004992511233150275 0.30032630469161836
vt 0.35269199201198204 0.2745751344227728
vt 0.3181205691462806 0.2094364443858724
vt 0.34860606090863705 0.16676329467580386
vt 0.40963779331003497 0.27143809435951505
vt 0.0004992511233150275 0.3413284132841329
vt 0.0004992511233150275 0.30032485503426465
vt 0.28592111832251627 0.30032485503426465
vt 0.28592111832251627 0.3413284132841329
vt 0.0004992511233150275 0.30032485503426465
vt 0.28592111832251627 0.30032485503426465
vt 0.28592111832251627 0.3413284132841329
vt 0.0004992511233150275 0.3413284132841329
vt 0.0004992511233150275 0.30032485503426465
vt 0.28592111832251627 0.30032485503426465
vt 0.28592111832251627 0.3413284132841329
vt 0.0004992511233150275 0.3413284132841329
vt 0.0004992511233150275 0.3413284132841329
vt 0.0004992511233150275 0.30032485503426465
vt 0.28592111832251627 0.30032485503426465
vt 0.28592111832251627 0.3413284132841329
vt 0.22013661507738394 0.2874052688455456
vt 0.1280210234648028 0.2558236715867158
vt 0.16466103344982527 0.22603700843437002
vt 0.2567766250624064 0.25761860569319983
vt 0.0004992511233150275 0.3413284132841329
vt 0.0004992511233150275 0.283342119135477
vt 0.06777318522216674 0.283342119135477
vt 0.06777318522216674 0.3413284132841329
vt 0.0004992511233150275 0.283342119135477
vt 0.06777318522216674 0.283342119135477
vt 0.06777318522216674 0.3413284132841329
vt 0.0004992511233150275 0.3413284132841329
vt 0.034136215676485275 0.30581905640484985
vt 0.06777318522216674 0.3413284132841329
vt 0.0004992511233150275 0.3413284132841329
vt 0.034136215676485275 0.30581905640484985
vt 0.06777318522216674 0.3413284132841329
vt 0.0004992511233150275 0.3413284132841329
vt 0.034136215676485275 0.30581905640484985
vt 0.06777318522216674 0.3413284132841329
vt 0.0004992511233150275 0.3413284132841329
vt 0.034136215676485275 0.30581905640484985
vt 0.06777318522216674 0.3413284132841329
vt 0.0004992511233150275 0.3413284132841329
vt 0.18990257114328507 0.2741170268845545
vt 0.15626560159760358 0.2386076700052715
vt 0.22353953569645532 0.2386076700052715
vt 0.034136215676485275 0.3413284132841329
vt 0.0004992511233150275 0.30581905640484985
vt 0.06777318522216674 0.30581905640484985
vt 0.31671235646530205 0.20875065893516076
vt 0.3015476784822766 0.17983065366367956
vt 0.3648276035946081 0.16058974696889827
vt 0.034136215676485275 0.3413284132841329
vt 0.0004992511233150275 0.30581905640484985
vt 0.06777318522216674 0.30581905640484985
vt 0.35698362456315524 0.18116140484976273
vt 0.4808803544682976 0.16960065893516074
vt 0.39925685971043434 0.2084010622034792
vt 0.3542418072890664 0.18200714285714292
vn 1 0 0
vn -1 0 0
vn 0.21680090427461485 0.9692275720512193 -0.11659880566029705
vn 0 -1 0
vn 0.2737551493688227 0.8212654481064682 0.500580844560133
vn -0.21369687880543226 0 -0.9769000173962618
vn 0.7045622222454414 0.7045622222454414 -0.08475936508215837
vn -0.7071067811865476 0.7071067811865476 0
vn 0.19109712190792025 0.9172661851580173 0.3494347372030542
vn 0.15389262041335738 0.9233557224801444 -0.3517545609448169
vn 0.7071067811865476 -0.7071067811865476 0
vn -0.7071067811865476 -0.7071067811865476 0
vn 0 -0.9344877349289681 0.3559953275919878
vn 0 -0.9344877349289681 -0.3559953275919878
vn 0.8069372763162203 0.5043357976976376 0.3074046766918934
vn -0.9099845177562298 0.22749612943905745 -0.34666076866903994
vn -0.9344877349289681 0 0.3559953275919878
vn 0.682768893200473 -0.682768893200473 0.2601024355049421
vn -0.682768893200473 -0.682768893200473 0.2601024355049421
vn 0.682768893200473 -0.682768893200473 -0.2601024355049421
vn -0.682768893200473 -0.682768893200473 -0.2601024355049421
vn 0.682768893200473 0.682768893200473 0.2601024355049421
vn -0.682768893200473 0.682768893200473 0.2601024355049421
vn 0.682768893200473 0.682768893200473 -0.2601024355049421
vn -0.682768893200473 0.682768893200473 -0.2601024355049421
vn 0.9344877349289681 0 -0.3559953275919878
usemtl m_a2adfdc8-5309-37bc-052f-a1d5038f94ff
f 112/321/81 111/322/81 110/323/81 120/324/81
f 106/325/82 107/326/82 109/327/82 108/328/82
f 98/329/83 99/330/83 101/331/83 100/332/83
f 105/333/84 103/334/84 102/335/84 104/336/84
f 116/337/85 117/338/85 119/339/85 118/340/85
f 115/341/86 113/342/86 121/343/86 114/344/86
f 99/345/87 98/346/87 111/347/87 112/348/87
f 107/349/88 100/350/88 101/351/88 109/352/88
f 117/353/89 98/354/89 100/355/89 119/356/89
f 101/357/90 99/358/90 113/359/90 115/360/90
f 110/361/91 102/362/91 103/363/91 120/364/91
f 105/365/92 104/366/92 106/367/92 108/368/92
f 104/369/93 102/370/93 116/371/93 118/372/93
f 121/373/94 103/374/94 105/375/94 114/376/94
f 117/377/95 116/378/95 110/379/95 111/380/95
f 115/381/96 114/382/96 108/383/96 109/384/96
f 106/385/97 118/386/97 119/387/97 107/388/97
f 102/389/98 110/390/98 116/391/98
f 104/392/99 118/393/99 106/394/99
f 103/395/100 121/396/100 120/397/100
f 105/398/101 108/399/101 114/400/101
f 98/401/102 117/402/102 111/403/102
f 100/404/103 107/405/103 119/406/103
f 99/407/104 112/408/104 113/409/104
f 101/410/105 115/411/105 109/412/105
f 120/413/106 121/414/106 113/415/106 112/416/106
o cama
v 5.40625 1 8.671875
v 5.40625 1 5.5625
v 5.40625 -0.15625 8.671875
v 5.40625 -0.15625 5.5625
v -1.34375 1 8.671875
v -1.34375 1 5.5625
v -1.34375 -0.15625 8.671875
v -1.34375 -0.15625 5.5625
v 5.40625 0.546875 5.5625
v -1.34375 0.546875 5.5625
v -1.34375 0.546875 8.671875
v 5.40625 0.546875 8.671875
v 0.33090375000000005 1 8.671875
v 0.8608262499999999 1 5.5625
vt 0.49340275301333714 0.9973266059191204
vt 0.49340275301333714 0.9985315159274042
vt 0.48427358961557665 0.9985315159274042
vt 0.48427358961557665 0.9973266059191204
vt 0.49340275301333714 0.9973266059191204
vt 0.49340275301333714 0.9985315159274042
vt 0.48427358961557665 0.9985315159274042
vt 0.48427358961557665 0.9973266059191204
vt 0.49340275301333714 0.994916785902553
vt 0.49340275301333714 0.9997364259356879
vt 0.48427358961557665 0.9997364259356879
vt 0.48427358961557665 0.994916785902553
vt 0.49340275301333714 0.9973266059191204
vt 0.49340275301333714 0.9985315159274042
vt 0.48427358961557665 0.9985315159274042
vt 0.48427358961557665 0.9973266059191204
vt 0.49340275301333714 0.9973266059191204
vt 0.49340275301333714 0.9985315159274042
vt 0.48427358961557665 0.9985315159274042
vt 0.48427358961557665 0.9973266059191204
vt 0.48427358961557665 0.9997364259356879
vt 0.48427358961557665 0.9985315159274042
vt 0.49340275301333714 0.9985315159274042
vt 0.49340275301333714 0.9997364259356879
vt 0.6983096783396334 0.8774380600948867
vt 0.6953141715997433 0.8269448000602455
vt 0.8287568647029456 0.8066495971082159
vt 0.8287568647029456 0.871639430680021
vt 0.5906140788816775 0.9422772799156562
vt 0.7239141288067898 0.9764666014007078
vt 0.713862571856501 0.9030706167633105
vt 0.5786004821339419 0.9013419474358009
vt 0.5196888495827687 0.8997605030499285
vt 0.6624397061550532 0.9107142646283606
vt 0.801440696098709 0.9590707131561111
vt 0.6441765922544754 0.9430680021085925
vt 0.7994387903858498 0.8578493892612395
vt 0.7142857142857143 0.875065893516078
vt 0.707795449682619 0.8293169666390542
vt 0.8342486270594108 0.8037502824007832
vt 0.8342486270594108 0.8037502824007832
vt 0.8317523714428358 0.8671586715867159
vt 0.7994387903858498 0.8578493892612395
vt 0.4865385065259254 0.9997364259356879
vt 0.48427358961557665 0.9997364259356879
vt 0.48427358961557665 0.9985315159274042
vt 0.49340275301333714 0.9985315159274042
vt 0.49340275301333714 0.9985315159274042
vt 0.49340275301333714 0.9997364259356879
vt 0.4865385065259254 0.9997364259356879
vn 1 0 0
vn -1 0 0
vn 0 -1 0
vn 0 0 1
vn 0 0 -1
vn -1 0 0
vn 1 0 0
vn 0 1 0
vn 0 1 0
vn 0 0 -1
vn 0 0 -1
vn 0 0 1
vn 0 0 1
usemtl m_a2adfdc8-5309-37bc-052f-a1d5038f94ff
f 125/417/107 130/418/107 133/419/107 124/420/107
f 128/421/108 132/422/108 131/423/108 129/424/108
f 125/425/109 124/426/109 128/427/109 129/428/109
f 124/429/110 133/430/110 132/431/110 128/432/110
f 129/433/111 131/434/111 130/435/111 125/436/111
f 127/437/112 131/438/112 132/439/112 126/440/112
f 122/441/113 133/442/113 130/443/113 123/444/113
f 127/445/114 126/446/114 134/447/114 135/448/114
f 135/449/115 134/450/115 122/451/115 123/452/115
f 135/453/116 123/454/116 130/455/116 131/456/116
f 131/457/117 127/458/117 135/459/117
f 134/460/118 126/461/118 132/462/118 133/463/118
f 133/464/119 122/465/119 134/466/119
o plane
v -0.3671790889767257 0.861161312287563 8.81157625
v 0.14537248973666594 0.9556176837589193 5.153133125
v 5.890975236602015 0.7127556961149242 8.129844375
v 1.3934571829805482 0.8164886322621111 5.0092356250000005
v 0.6468963286064371 1.2818126463903319 5.9798425
v 0.9798938456117106 1.3607917899483049 7.40142625
v 0.6014473109390477 1.3674659760611292 7.938941875
v 0.6935355488306487 1.3594092992015356 9.400104375
v 2.4206418785564408 1.0518253644964206 5.3035306250000005
v 2.17996310279376 1.0871237228720994 6.611485625
v 2.903473943183415 1.1660647426049857 8.001075625
v 2.7873469189200137 0.43820678538418734 5.145874375
v 2.3810227468776306 1.211773299527299 9.828125
v 3.796242369165827 1.4107992231842632 7.097918125
v 3.3883560702867657 1.2167165634040402 7.42238625
v 3.957652230350802 1.300630325930942 8.319289375
v 4.140664267477328 0.9401547520992981 5.416185625
v 3.8054388721205314 1.274653150073083 6.073303125
v 4.324094279288717 1.166776568021384 6.824246875
v 3.828072205369714 0.577626887239994 4.904542322763408
v 4.26519055027337 0.6198642374777896 9.24760125
v 5.235873410275223 1.4494824747031434 6.721509375
v 4.80658303666988 0.7804726964687224 5.050551621556385
v 4.682364654027856 1.0482038300790855 8.849423125
v 5.106569306676393 1.4417663823546178 7.5423124999999995
v 4.93613744521358 1.40043517056625 5.29686375
v 4.229717222146575 1.2123048074469063 6.0114149999999995
v 5.215668140307435 1.2050258382508872 8.8060925
v 5.949418405332034 0.43084732734062103 8.800478125
v 5.875886306337787 0.6944592846699849 7.52447
v 5.5309634433025465 1.1557296153810825 5.388764375
v 0.027067942474377382 1.0349944068418078 6.088514375
v 5.817788260636394 0.5238491191244077 6.1745262499999995
v 5.960692604641993 0.634685192631211 5.012017320845083
v 5.205754022503341 0.5649908511125777 5.087908734835125
v 5.558582639475356 0.2961761315470819 5.500585
vt 0.7083541188217674 0.5628287506589351
vt 0.6500837743384923 0.5790722192936215
vt 0.572073469795307 0.5265619056404849
vt 0.1327993859211183 0.4772785951502372
vt 0.31780624063904145 0.42509427517132314
vt 0.3954653020469296 0.4577992514496573
vt 0.3954653020469296 0.4577992514496573
vt 0.4571039340988517 0.4740967685819716
vt 0.1327993859211183 0.4772785951502372
vt 0.4571039340988517 0.4740967685819716
vt 0.4649379081377933 0.4345629573010016
vt 0.5685364053919122 0.4922363758566157
vt 0.572073469795307 0.5265619056404849
vt 0.667447903145282 0.5261951159725883
vt 0.572073469795307 0.5265619056404849
vt 0.5685364053919122 0.4922363758566157
vt 0.667447903145282 0.5261951159725883
vt 0.7543159161258113 0.5500164153927254
vt 0.7083541188217674 0.5628287506589351
vt 0.572073469795307 0.5265619056404849
vt 0.4571039340988517 0.4740967685819716
vt 0.3954653020469296 0.4577992514496573
vt 0.31780624063904145 0.42509427517132314
vt 0.37294315027458813 0.40972428307854514
vt 0.4649379081377933 0.4345629573010016
vt 0.4571039340988517 0.4740967685819716
vt 0.37294315027458813 0.40972428307854514
vt 0.5331629505741389 0.4515889905113337
vt 0.5685364053919122 0.4922363758566157
vt 0.4649379081377933 0.4345629573010016
vt 0.46909513729405894 0.41358367422245657
vt 0.5331629505741389 0.4515889905113337
vt 0.5786917723414877 0.4591073036373221
vt 0.667447903145282 0.5261951159725883
vt 0.5685364053919122 0.4922363758566157
vt 0.7636488816774838 0.5258251449657354
vt 0.667447903145282 0.5261951159725883
vt 0.6723200149775337 0.4968270848708487
vt 0.6723200149775337 0.4968270848708487
vt 0.667447903145282 0.5261951159725883
vt 0.5786917723414877 0.4591073036373221
vt 0.619734583125312 0.4647122113863995
vt 0.7636488816774838 0.5258251449657354
vt 0.79487259111333 0.5387108170795993
vt 0.7543159161258113 0.5500164153927254
vt 0.667447903145282 0.5261951159725883
vt 0.37294315027458813 0.40972428307854514
vt 0.43571792810783827 0.39222515287295734
vt 0.46909513729405894 0.41358367422245657
vt 0.4649379081377933 0.4345629573010016
vt 0.5773020019970045 0.4401179625724828
vt 0.619734583125312 0.4647122113863995
vt 0.5786917723414877 0.4591073036373221
vt 0.79487259111333 0.5387108170795993
vt 0.7636488816774838 0.5258251449657354
vt 0.795180833749376 0.5257038798102267
vt 0.5331629505741389 0.4515889905113337
vt 0.46909513729405894 0.41358367422245657
vt 0.5420593409885173 0.43570894833948337
vt 0.5786917723414877 0.4591073036373221
vt 0.46909513729405894 0.41358367422245657
vt 0.4714086170743884 0.40190879810226676
vt 0.5420593409885173 0.43570894833948337
vt 0.4714086170743884 0.40190879810226676
vt 0.46909513729405894 0.41358367422245657
vt 0.43571792810783827 0.39222515287295734
vt 0.5786917723414877 0.4591073036373221
vt 0.5474884323514728 0.4355217343173431
vt 0.5773020019970045 0.4401179625724828
vt 0.619734583125312 0.4647122113863995
vt 0.5773020019970045 0.4401179625724828
vt 0.7007673989016475 0.4903362967843964
vt 0.7636488816774838 0.5258251449657354
vt 0.6723200149775337 0.4968270848708487
vt 0.6918048876684972 0.4953167290458619
vt 0.6723200149775337 0.4968270848708487
vt 0.619734583125312 0.4647122113863995
vt 0.6918048876684972 0.4953167290458619
vt 0.7636488816774838 0.5258251449657354
vt 0.6918048876684972 0.4953167290458619
vt 0.7007673989016475 0.4903362967843964
vt 0.7949111682476285 0.5250901818661045
vt 0.6918048876684972 0.4953167290458619
vt 0.619734583125312 0.4647122113863995
vt 0.7007673989016475 0.4903362967843964
vt 0.4714086170743884 0.40190879810226676
vt 0.47321607588617076 0.39278754348972067
vt 0.5420593409885173 0.43570894833948337
vt 0.4714086170743884 0.40190879810226676
vt 0.43571792810783827 0.39222515287295734
vt 0.46093835247129306 0.3851946942540855
vt 0.47321607588617076 0.39278754348972067
vt 0.46093835247129306 0.3851946942540855
vt 0.4755264952571143 0.3811280969952556
vt 0.47321607588617076 0.39278754348972067
vt 0.5773020019970045 0.4401179625724828
vt 0.5474884323514728 0.4355217343173431
vt 0.5195961208187718 0.4066711887190301
vt 0.572073469795307 0.5265619056404849
vt 0.6500837743384923 0.5790722192936215
vt 0.536398886669995 0.5567007775434898
vt 0.536398886669995 0.5567007775434898
vt 0.1327993859211183 0.4772785951502372
vt 0.4571039340988517 0.4740967685819716
vt 0.572073469795307 0.5265619056404849
vt 0.47321607588617076 0.39278754348972067
vt 0.4755264952571143 0.3811280969952556
vt 0.5420593409885173 0.43570894833948337
vt 0.5474884323514728 0.4355217343173431
vt 0.4755264952571143 0.3811280969952556
vt 0.5195961208187718 0.4066711887190301
vt 0.714147324013979 0.48376129151291514
vt 0.7047167948077883 0.489871004217185
vt 0.5773020019970045 0.4401179625724828
vt 0.5284870094857713 0.4091650026357406
vt 0.7224098801797304 0.47840826831839744
vt 0.714147324013979 0.48376129151291514
vt 0.5269625411882176 0.4081983579335793
vt 0.8247172541188218 0.5303913020558777
vt 0.79487259111333 0.5387108170795993
vt 0.795180833749376 0.5257038798102267
vt 0.8153477234148777 0.5256263231418028
vt 0.8150327708437344 0.5252233684765419
vt 0.7949111682476285 0.5250901818661045
vt 0.7047167948077883 0.489871004217185
vt 0.714147324013979 0.48376129151291514
vt 0.714147324013979 0.48376129151291514
vt 0.8150327708437344 0.5252233684765419
vt 0.842180898652022 0.5255231286241433
vt 0.842180898652022 0.5255231286241433
vt 0.8247172541188218 0.5303913020558777
vt 0.8153477234148777 0.5256263231418028
vt 0.8150327708437344 0.5252233684765419
vt 0.714147324013979 0.48376129151291514
vt 0.7224098801797304 0.47840826831839744
vn 0.056521982482230504 0.9165401253691332 -0.3959286098334046
vn -0.43972225964338646 0.8975397097339618 0.03266196296596189
vn -0.7112143206387548 0.48717253974088837 -0.5067909891077061
vn 0.1394138461038078 0.9818786145221017 -0.1283673083721158
vn 0.12733347121667685 0.9918543506810451 -0.0033367863273379393
vn 0.18417520954977973 0.3463961226443474 -0.9198310814515114
vn 0.023368270690890623 0.9997187633526616 0.004039569970011393
vn 0.09960826686792408 0.9950202527868923 0.003590224989802796
vn -0.10564805669980672 0.9944024773554371 -0.0014836256010302411
vn -0.36526864087844035 0.9260669655028414 0.09475650581979099
vn 0.08604784701066158 0.9049384199008654 -0.41675199365108606
vn -0.08553792682596814 0.987553590351799 -0.13198927705532199
vn -0.22324032869321633 0.8544857354695612 -0.4690606394955643
vn 0.391595328600834 0.7990565005717875 0.4562475287735532
vn -0.23700753535392322 0.45185037723073473 -0.8600341067550181
vn -0.0937075854682947 0.8384607201129405 -0.5368449583011762
vn -0.12912006650760835 0.9915700040991604 -0.010813667086711736
vn 0.09767129145448022 0.9437653767126306 0.3158595139363082
vn -0.18895441147524267 0.7609778571408018 0.6206520211241064
vn -0.02545243707042443 0.9996615148956506 0.005387864485049321
vn -0.29307053033408964 0.9556581955545985 0.02875895545780707
vn 0.07093355839066569 0.9031017866924583 -0.4235275589225896
vn 0.15068610461764817 0.9878573554368288 0.03783573951324766
vn -0.5113997194307149 0.8078955351435799 -0.29287391700398124
vn -0.1838686474941395 0.9799896960686202 0.07623985878796863
vn -0.2614909858935065 0.9443676752936303 0.19947971866068626
vn 0.27429741195845975 0.49772999192620737 0.8228157660922818
vn 0.7088239583175463 0.670213419653856 0.2199603787752007
vn 0.6934557520653981 0.7111117548336807 0.11592752936544587
vn -0.38603048379991894 0.9137896099845785 -0.12636856516330433
vn -0.337357954599392 0.9413092470184087 0.011247752937861375
vn 0.6423562995156874 0.7614311187381817 0.08718391990289133
vn 0.6957752335776523 0.717198994367229 -0.039018288258187074
vn 0.39299459229680017 0.9124347861987956 -0.11409650020850748
vn 0.9418631660924176 0.3259062749318204 -0.08172439243231865
vn 0.13223976456425715 0.0735999898123074 -0.9884815052228434
vn 0.015226042150153406 0.3664354440612848 -0.9303188877885102
vn -0.7280629209382193 -0.11138805834417775 -0.6764000913758234
vn 0.02050139494249631 -0.8296267645609557 -0.5579418646503704
vn 0.8139351363699711 0.5603164010699965 0.15347678806374485
usemtl m_a2adfdc8-5309-37bc-052f-a1d5038f94ff
f 139/467/120 137/468/120 140/469/120
f 136/470/121 143/471/121 142/472/121
f 142/473/122 141/474/122 136/475/122
f 141/476/123 146/477/123 145/478/123 140/479/123
f 144/480/124 140/481/124 145/482/124
f 144/483/125 147/484/125 139/485/125 140/486/125
f 141/487/126 142/488/126 143/489/126 148/490/126
f 146/491/127 141/492/127 148/493/127
f 150/494/128 145/495/128 146/496/128 151/497/128
f 150/498/129 149/499/129 144/500/129 145/501/129
f 152/502/130 144/503/130 153/504/130
f 153/505/131 144/506/131 149/507/131 154/508/131
f 152/509/132 155/510/132 147/511/132 144/512/132
f 148/513/133 156/514/133 151/515/133 146/516/133
f 157/517/134 154/518/134 149/519/134
f 155/520/135 152/521/135 158/522/135
f 150/523/136 151/524/136 160/525/136 149/526/136
f 151/527/137 159/528/137 160/529/137
f 159/530/138 151/531/138 156/532/138
f 149/533/139 160/534/139 157/535/139
f 154/536/140 157/537/140 161/538/140
f 152/539/141 153/540/141 162/541/141
f 153/542/142 154/543/142 162/544/142
f 152/545/143 162/546/143 161/547/143 158/548/143
f 162/549/144 154/550/144 161/551/144
f 159/552/145 163/553/145 160/554/145
f 159/555/146 156/556/146 164/557/146 163/558/146
f 164/559/147 138/560/147 163/561/147
f 157/562/148 160/563/148 165/564/148
f 140/565/149 137/566/149 167/567/149
f 167/568/150 136/569/150 141/570/150 140/571/150
f 163/572/151 138/573/151 160/574/151
f 160/575/152 138/576/152 165/577/152
f 166/578/153 161/579/153 157/580/153 165/581/153
f 168/582/154 166/583/154 165/584/154
f 170/585/155 155/586/155 158/587/155 169/588/155
f 169/589/156 158/590/156 161/591/156 166/592/156
f 166/593/157 169/594/157 171/595/157
f 171/596/158 170/597/158 169/598/158
f 169/599/159 166/600/159 168/601/159