# Made in Blockbench 5.0.2
mtllib house.mtl

o cuboid
v 2.4326923076923075 0.125 -1.3125
v 9.875 0 -1.3125
v -1.375 0.125 -1.3125
v -1.375 0 -1.3125
v -1.375 0.125 2.7911324786324787
v -1.375 0 2.7911324786324787
v 9.875 0.125 9.125
v 9.875 0.125 -1.3125
v 9.875 0 9.125
v -1.375 0.125 9.125
v -1.375 0 9.125
vt 0.509765625 0.99609375
vt 0.341796875 1
vt 0.255859375 1
vt 0.255859375 0.99609375
vt 0.345703125 0.970703125
vt 0.255859375 0.970703125
vt 0.255859375 0.966796875
vt 0.345703125 0.966796875
vt 0.484375 0.982421875
vt 0.255859375 0.982421875
vt 0.255859375 0.978515625
vt 0.484375 0.978515625
vt 0.484375 0.97265625
vt 0.484375 0.9765625
vt 0.255859375 0.9765625
vt 0.255859375 0.97265625
vt 0 0.771484375
vt 0.25390625 0.771484375
vt 0.25390625 1
vt 0 1
vt 0.25390625 0.541015625
vt 0.25390625 0.76953125
vt 0 0.76953125
vt 0 0.541015625
vt 0.509765625 0.990234375
vt 0.509765625 0.994140625
vt 0.255859375 0.994140625
vt 0.255859375 0.990234375
vt 0.509765625 0.98828125
vt 0.255859375 0.98828125
vt 0.255859375 0.984375
vt 0.509765625 0.984375
vn 0 0 1
vn 1 0 0
vn 1 0 0
vn -1 0 0
vn 0 1 0
vn 0 -1 0
vn 0 0 1
vn 0 0 -1
usemtl m_53308811-0172-872d-7198-64d52b9a3317
f 2/1/1 1/2/1 3/3/1 4/4/1
f 3/5/2 5/6/2 6/7/2 4/8/2
f 8/9/3 7/10/3 9/11/3 2/12/3
f 11/13/4 10/14/4 3/15/4 4/16/4
usemtl m_5b0f6a1f-025a-caad-2918-aefe0e896cf0
f 10/17/5 7/18/5 8/19/5 3/20/5
usemtl m_53308811-0172-872d-7198-64d52b9a3317
f 2/21/6 9/22/6 11/23/6 4/24/6
f 9/25/7 7/26/7 10/27/7 11/28/7
f 3/29/8 8/30/8 2/31/8 4/32/8
o tony
v -4.1875 2.5 0.75
v -4.1875 2.5 -0.25
v -4.1875 0.1875 0.75
v -4.1875 0.1875 -0.25
v -5.1875 2.5 0.75
v -5.1875 2.5 -0.25
v -5.1875 0.1875 0.75
v -5.1875 0.1875 -0.25
vt 0.125 1
vt 0 1
vt 0 0.7109375
vt 0.125 0.7109375
vt 0.2578125 0.7109375
vt 0.2578125 1
vt 0.1328125 1
vt 0.1328125 0.7109375
vt 0.1328125 0.578125
vt 0.2578125 0.578125
vt 0.2578125 0.703125
vt 0.1328125 0.703125
vt 0.390625 0.578125
vt 0.390625 0.703125
vt 0.265625 0.703125
vt 0.265625 0.578125
vt 0.390625 0.7109375
vt 0.390625 1
vt 0.265625 1
vt 0.265625 0.7109375
vt 0.125 0.703125
vt 0 0.703125
vt 0 0.4140625
vt 0.125 0.4140625
vn 1 0 0
vn -1 0 0
vn 0 1 0
vn 0 -1 0
vn 0 0 1
vn 0 0 -1
usemtl m_c769c3df-1280-ea40-f7d5-a12af30060d3
f 13/33/9 12/34/9 14/35/9 15/36/9
f 18/37/10 16/38/10 17/39/10 19/40/10
f 16/41/11 12/42/11 13/43/11 17/44/11
f 15/45/12 14/46/12 18/47/12 19/48/12
f 14/49/13 12/50/13 16/51/13 18/52/13
f 17/53/14 13/54/14 15/55/14 19/56/14
o cuboid
v 9.875 0.125 9.140625
v 9.875 8.171875 9.140625
v 9.875 0.125 9.015625
v 9.875 8.171875 9.015625
v -1.375 0.125 9.140625
v -1.375 8.171875 9.140625
v -1.375 0.125 9.015625
v -1.375 8.171875 9.015625
vt 0.125 1
vt 0 1
vt 0 0.9375
vt 0.125 0.9375
vt 0.125 0.9375
vt 0.125 1
vt 0 1
vt 0 0.9375
vt 0 0.76953125
vt 0.255859375 0.76953125
vt 0.255859375 1
vt 0 1
vt 0.125 0.875
vt 0.125 1
vt 0 1
vt 0 0.875
vt 0.125 0.9375
vt 0.125 1
vt 0 1
vt 0 0.9375
vt 0.125 1
vt 0 1
vt 0 0.9375
vt 0.125 0.9375
vn 1 0 0
vn -1 0 0
vn 0 6.337972218248468e-17 1
vn 0 -8.838668739734257e-17 -1
vn 0 -1 2.220446049250313e-16
vn 0 1 -2.220446049250313e-16
usemtl none
f 21/57/15 20/58/15 22/59/15 23/60/15
f 26/61/16 24/62/16 25/63/16 27/64/16
usemtl m_53308811-0172-872d-7198-64d52b9a3317
f 24/65/17 20/66/17 21/67/17 25/68/17
usemtl none
f 23/69/18 22/70/18 26/71/18 27/72/18
f 22/73/19 20/74/19 24/75/19 26/76/19
f 25/77/20 21/78/20 23/79/20 27/80/20
o cuboid
v -1.4374999999999978 0.12500000000000222 9.934375
v -1.4374999999999982 8.171875000000002 9.934374999999998
v -1.3124999999999978 0.12500000000000222 9.934375
v -1.3124999999999982 8.171875000000002 9.934374999999998
v -1.4375000000000002 0.12499999999999978 -1.3156250000000005
v -1.4375000000000007 8.171875 -1.3156250000000023
v -1.3125000000000002 0.12499999999999978 -1.3156250000000005
v -1.3125000000000007 8.171875 -1.3156250000000023
vt 0.125 1
vt 0 1
vt 0 0.9375
vt 0.125 0.9375
vt 0.125 0.9375
vt 0.125 1
vt 0 1
vt 0 0.9375
vt 0 0.76953125
vt 0.255859375 0.76953125
vt 0.255859375 1
vt 0 1
vt 0.125 0.875
vt 0.125 1
vt 0 1
vt 0 0.875
vt 0.125 0.9375
vt 0.125 1
vt 0 1
vt 0 0.9375
vt 0.125 1
vt 0 1
vt 0 0.9375
vt 0.125 0.9375
vn 2.220446049250313e-16 2.220446049250313e-16 1
vn -2.220446049250313e-16 -2.220446049250313e-16 -1
vn -1 -5.51877853017553e-17 2.220446049250313e-16
vn 1 4.311545726699632e-17 -2.220446049250313e-16
vn 4.930380657631324e-32 -1 2.220446049250313e-16
vn -4.930380657631324e-32 1 -2.220446049250313e-16
usemtl none
f 29/81/21 28/82/21 30/83/21 31/84/21
f 34/85/22 32/86/22 33/87/22 35/88/22
usemtl m_53308811-0172-872d-7198-64d52b9a3317
f 32/89/23 28/90/23 29/91/23 33/92/23
usemtl none
f 31/93/24 30/94/24 34/95/24 35/96/24
f 30/97/25 28/98/25 32/99/25 34/100/25
f 33/101/26 29/102/26 31/103/26 35/104/26
o cuboid
v 9.750000000000002 0.12500000000000222 9.934375
v 9.750000000000002 8.171875000000002 9.934374999999998
v 9.875000000000002 0.12500000000000222 9.934375
v 9.875000000000002 8.171875000000002 9.934374999999998
v 9.75 0.12499999999999978 -1.3156250000000005
v 9.75 8.171875 -1.3156250000000023
v 9.875 0.12499999999999978 -1.3156250000000005
v 9.875 8.171875 -1.3156250000000023
vt 0.125 1
vt 0 1
vt 0 0.9375
vt 0.125 0.9375
vt 0.125 0.9375
vt 0.125 1
vt 0 1
vt 0 0.9375
vt 0 0.76953125
vt 0.255859375 0.76953125
vt 0.255859375 1
vt 0 1
vt 0.125 0.875
vt 0.125 1
vt 0 1
vt 0 0.875
vt 0.125 0.9375
vt 0.125 1
vt 0 1
vt 0 0.9375
vt 0.125 1
vt 0 1
vt 0 0.9375
vt 0.125 0.9375
vn 2.220446049250313e-16 2.220446049250313e-16 1
vn -2.220446049250313e-16 -2.220446049250313e-16 -1
vn -1 -5.51877853017553e-17 2.220446049250313e-16
vn 1 4.311545726699632e-17 -2.220446049250313e-16
vn 4.930380657631324e-32 -1 2.220446049250313e-16
vn -4.930380657631324e-32 1 -2.220446049250313e-16
usemtl none
f 37/105/27 36/106/27 38/107/27 39/108/27
f 42/109/28 40/110/28 41/111/28 43/112/28
usemtl m_53308811-0172-872d-7198-64d52b9a3317
f 40/113/29 36/114/29 37/115/29 41/116/29
usemtl none
f 39/117/30 38/118/30 42/119/30 43/120/30
f 38/121/31 36/122/31 40/123/31 42/124/31
f 41/125/32 37/126/32 39/127/32 43/128/32
o cuboid
v 9.875 0.125 -1.1718749999999996
v 9.875 8.171875 -1.1718750000000002
v 9.875 0.125 -1.2968749999999998
v 9.875 8.171875 -1.2968750000000004
v -1.375 0.125 -1.1718749999999996
v -1.375 8.171875 -1.1718750000000002
v -1.375 0.125 -1.2968749999999998
v -1.375 8.171875 -1.2968750000000004
vt 0.125 1
vt 0 1
vt 0 0.9375
vt 0.125 0.9375
vt 0.125 0.9375
vt 0.125 1
vt 0 1
vt 0 0.9375
vt 0 0.76953125
vt 0.255859375 0.76953125
vt 0.255859375 1
vt 0 1
vt 0.125 0.875
vt 0.125 1
vt 0 1
vt 0 0.875
vt 0.125 0.9375
vt 0.125 1
vt 0 1
vt 0 0.9375
vt 0.125 1
vt 0 1
vt 0 0.9375
vt 0.125 0.9375
vn 1 0 0
vn -1 0 0
vn 0 6.337972218248468e-17 1
vn 0 -8.838668739734257e-17 -1
vn 0 -1 2.220446049250313e-16
vn 0 1 -2.220446049250313e-16
usemtl none
f 45/129/33 44/130/33 46/131/33 47/132/33
f 50/133/34 48/134/34 49/135/34 51/136/34
usemtl m_53308811-0172-872d-7198-64d52b9a3317
f 48/137/35 44/138/35 45/139/35 49/140/35
usemtl none
f 47/141/36 46/142/36 50/143/36 51/144/36
f 46/145/37 44/146/37 48/147/37 50/148/37
f 49/149/38 45/150/38 47/151/38 51/152/38
o cama
v 5.6875 3.8125 -0.90625
v 5.6875 3.8125 -1.59375
v 5.6875 -2.5 -0.90625
v 5.6875 -2.5 -1.59375
v 3.8125 3.8125 -0.90625
v 3.8125 3.8125 -1.59375
v 3.8125 -2.5 -0.90625
v 3.8125 -2.5 -1.59375
vt 0.125 1
vt 0 1
vt 0 0.9375
vt 0.125 0.9375
vt 0.125 0.9375
vt 0.125 1
vt 0 1
vt 0 0.9375
vt 0 0.875
vt 0.125 0.875
vt 0.125 1
vt 0 1
vt 0.125 0.875
vt 0.125 1
vt 0 1
vt 0 0.875
vt 0.125 0.9375
vt 0.125 1
vt 0 1
vt 0 0.9375
vt 0.125 1
vt 0 1
vt 0 0.9375
vt 0.125 0.9375
vn 1 0 0
vn -1 0 0
vn 0 1 0
vn 0 -1 0
vn 0 0 1
vn 0 0 -1
usemtl none
f 53/153/39 52/154/39 54/155/39 55/156/39
f 58/157/40 56/158/40 57/159/40 59/160/40
f 56/161/41 52/162/41 53/163/41 57/164/41
f 55/165/42 54/166/42 58/167/42 59/168/42
f 54/169/43 52/170/43 56/171/43 58/172/43
f 57/173/44 53/174/44 55/175/44 59/176/44
o cama
v 10 1.125 3.25
v 10 1.125 -1.4375
v 10 -1.875 3.25
v 10 -1.875 -1.4375
v 7.1875 1.125 3.25
v 7.1875 1.125 -1.4375
v 7.1875 -1.875 3.25
v 7.1875 -1.875 -1.4375
vt 0.125 1
vt 0 1
vt 0 0.9375
vt 0.125 0.9375
vt 0.125 0.9375
vt 0.125 1
vt 0 1
vt 0 0.9375
vt 0 0.875
vt 0.125 0.875
vt 0.125 1
vt 0 1
vt 0.125 0.875
vt 0.125 1
vt 0 1
vt 0 0.875
vt 0.125 0.9375
vt 0.125 1
vt 0 1
vt 0 0.9375
vt 0.125 1
vt 0 1
vt 0 0.9375
vt 0.125 0.9375
vn 1 0 0
vn -1 0 0
vn 0 1 0
vn 0 -1 0
vn 0 0 1
vn 0 0 -1
usemtl none
f 61/177/45 60/178/45 62/179/45 63/180/45
f 66/181/46 64/182/46 65/183/46 67/184/46
f 64/185/47 60/186/47 61/187/47 65/188/47
f 63/189/48 62/190/48 66/191/48 67/192/48
f 62/193/49 60/194/49 64/195/49 66/196/49
f 65/197/50 61/198/50 63/199/50 67/200/50
o cama
v 5.5625 1 9.25
v 5.5625 1 5.125
v 5.5625 -2 9.25
v 5.5625 -2 5.125
v -1.1875 1 9.25
v -1.1875 1 5.125
v -1.1875 -2 9.25
v -1.1875 -2 5.125
vt 0.125 1
vt 0 1
vt 0 0.9375
vt 0.125 0.9375
vt 0.125 0.9375
vt 0.125 1
vt 0 1
vt 0 0.9375
vt 0 0.875
vt 0.125 0.875
vt 0.125 1
vt 0 1
vt 0.125 0.875
vt 0.125 1
vt 0 1
vt 0 0.875
vt 0.125 0.9375
vt 0.125 1
vt 0 1
vt 0 0.9375
vt 0.125 1
vt 0 1
vt 0 0.9375
vt 0.125 0.9375
vn 1 0 0
vn -1 0 0
vn 0 1 0
vn 0 -1 0
vn 0 0 1
vn 0 0 -1
usemtl none
f 69/201/51 68/202/51 70/203/51 71/204/51
f 74/205/52 72/206/52 73/207/52 75/208/52
f 72/209/53 68/210/53 69/211/53 73/212/53
f 71/213/54 70/214/54 74/215/54 75/216/54
f 70/217/55 68/218/55 72/219/55 74/220/55
f 73/221/56 69/222/56 71/223/56 75/224/56