# Made in Blockbench 5.0.2
mtllib light_switch.mtl

o cuboid
v 0.5 1.125 -0.0625
v 0.5 1.125 -0.3125
v 0.5 0 -0.0625
v 0.5 0 -0.3125
v -0.5 1.125 -0.0625
v -0.5 1.125 -0.3125
v -0.5 0 -0.0625
v -0.5 0 -0.3125
v 0.31 0.91125 -0.3125
v 0.31 0.21375 -0.3125
v -0.31 0.91125 -0.3125
v -0.31 0.21375 -0.3125
v -0.2232 0.8136 -0.4125
v -0.2232 0.3114 -0.4125
v -0.31 0.21375 -0.38125
v -0.31 0.91125 -0.38125
v 0.2232 0.3114 -0.4125
v 0.31 0.21375 -0.38125
v 0.2232 0.8136 -0.4125
v 0.31 0.91125 -0.38125
vt 0.3769230769230769 0.8402061855670103
vt 0.3153846153846154 0.8402061855670103
vt 0.3153846153846154 0.7989690721649485
vt 0.3769230769230769 0.7989690721649485
vt 0.3769230769230769 0.7989690721649485
vt 0.3769230769230769 0.8402061855670103
vt 0.3153846153846154 0.8402061855670103
vt 0.3153846153846154 0.7989690721649485
vt 0.3153846153846154 0.7577319587628866
vt 0.3769230769230769 0.7577319587628866
vt 0.3769230769230769 0.8402061855670103
vt 0.3153846153846154 0.8402061855670103
vt 0.3769230769230769 0.7577319587628866
vt 0.3769230769230769 0.8402061855670103
vt 0.3153846153846154 0.8402061855670103
vt 0.3153846153846154 0.7577319587628866
vt 0.48798196815653216 0.7445589919816724
vt 0.48798196815653216 0.845360824742268
vt 0.3423076923076923 0.845360824742268
vt 0.3423076923076923 0.7445589919816724
vt 0.38798295031651636 0.639747995418098
vt 0.29795703050067107 0.639747995418098
vt 0.29795703050067107 0.4349562428407785
vt 0.38798295031651636 0.4349562428407785
vt 0.3616556114606033 0.44489323116049095
vt 0.36987692456697613 0.6551340547438991
vt 0.3074470306412994 0.7241245551573237
vt 0.29418684821166585 0.3850264526034395
vt 0.38275503548820267 0.38499716778067294
vt 0.38275503548820267 0.7413198142064121
vt 0.2901535378733252 0.8505154639175257
vt 0.2901535378733252 0.2758015180695593
vt 0.36634303760772424 0.6452041342461539
vt 0.3745643507140971 0.43496331066274563
vt 0.31213445678842033 0.36597281024932127
vt 0.2988742743587868 0.7050709128032053
vt 0.37923107751129 0.7284048940749972
vt 0.37923107751129 0.372082247649258
vt 0.2866295798964126 0.2628865979381443
vt 0.2866295798964126 0.8376005437861108
vt 0.3387292230961066 0.7591484536082475
vt 0.45183206598887493 0.7591484536082475
vt 0.4738242854402464 0.7989690721649485
vt 0.31673700364473495 0.7989690721649485
vt 0.33827842700940025 0.3894082474226793
vt 0.33827842700940025 0.594199999999999
vt 0.3162862075580286 0.6340206185567
vt 0.3162862075580286 0.3495876288659783
vt 0.4518320659888749 0.35853379152348264
vt 0.3387292230961066 0.35853379152348264
vt 0.31673700364473495 0.3187131729667816
vt 0.4738242854402464 0.3187131729667816
vt 0.325091118357952 0.6663649484536072
vt 0.325091118357952 0.46157319587628765
vt 0.34708333780932366 0.4217525773195866
vt 0.34708333780932366 0.7061855670103083
vt 0.38392480337617513 0.7835051546391752
vt 0.38392480337617513 0.4990721649484535
vt 0.39976021484749685 0.4990721649484535
vt 0.39976021484749685 0.7835051546391752
vt 0.2692307692307692 0.6460481099656357
vt 0.42631805102628073 0.6460481099656357
vt 0.42631805102628073 0.6715349369988546
vt 0.2692307692307692 0.6715349369988546
vt 0.30090159217341267 0.5145360824742268
vt 0.30090159217341267 0.7989690721649485
vt 0.28506618070209094 0.7989690721649485
vt 0.28506618070209094 0.5145360824742268
vt 0.42631805102628073 0.7989690721649485
vt 0.2692307692307692 0.7989690721649485
vt 0.2692307692307692 0.7734822451317297
vt 0.42631805102628073 0.7734822451317297
vn 1 0 0
vn -1 0 0
vn 0 1 0
vn 0 -1 0
vn 0 0 1
vn 0 0 -1
vn 0 0 -1
vn 0 0 -1
vn 0 0 -1
vn 0 0 -1
vn 0 0.3047934218797403 -0.9524184846898125
vn 0.33873866019435545 0 -0.9408805025558415
vn 0 -0.3047934218797403 -0.9524184846898125
vn -0.33873866019435545 0 -0.9408805025558415
vn -1 0 0
vn 0 -1 0
vn 1 0 0
vn 0 1 0
usemtl m_2ac43a07-e74f-490a-ab8f-5f7ea7c91f41
f 2/1/1 1/2/1 3/3/1 4/4/1
f 7/5/2 5/6/2 6/7/2 8/8/2
f 5/9/3 1/10/3 2/11/3 6/12/3
f 4/13/4 3/14/4 7/15/4 8/16/4
f 3/17/5 1/18/5 5/19/5 7/20/5
f 13/21/6 19/22/6 17/23/6 14/24/6
f 9/25/7 11/26/7 6/27/7 2/28/7
f 10/29/8 9/30/8 2/31/8 4/32/8
f 12/33/9 10/34/9 4/35/9 8/36/9
f 11/37/10 12/38/10 8/39/10 6/40/10
f 19/41/11 13/42/11 16/43/11 20/44/11
f 17/45/12 19/46/12 20/47/12 18/48/12
f 14/49/13 17/50/13 18/51/13 15/52/13
f 13/53/14 14/54/14 15/55/14 16/56/14
f 16/57/15 15/58/15 12/59/15 11/60/15
f 15/61/16 18/62/16 10/63/16 12/64/16
f 18/65/17 20/66/17 9/67/17 10/68/17
f 20/69/18 16/70/18 11/71/18 9/72/18
o cuboid
v 0.125 0.6552227447808818 -0.16706453796722598
v 0.125 0.7846322673321422 -0.6500274511117601
v 0.125 0.5344820164947484 -0.19941691860504107
v 0.125 0.6638915390460087 -0.6823798317495753
v -0.125 0.6552227447808818 -0.16706453796722598
v -0.125 0.7846322673321422 -0.6500274511117601
v -0.125 0.5344820164947484 -0.19941691860504107
v -0.125 0.6638915390460087 -0.6823798317495753
vt 0.36538461538461536 0.4587628865979382
vt 0.3038461538461538 0.4587628865979382
vt 0.3038461538461538 0.41752577319587625
vt 0.36538461538461536 0.41752577319587625
vt 0.36538461538461536 0.6804123711340206
vt 0.36538461538461536 0.7216494845360825
vt 0.3038461538461538 0.7216494845360825
vt 0.3038461538461538 0.6804123711340206
vt 0.31153846153846154 0.7216494845360825
vt 0.3730769230769231 0.7216494845360825
vt 0.3730769230769231 0.8041237113402062
vt 0.31153846153846154 0.8041237113402062
vt 0.36153846153846153 0.48453608247422686
vt 0.36153846153846153 0.5670103092783505
vt 0.3 0.5670103092783505
vt 0.3 0.48453608247422686
vt 0.36923076923076925 0.5721649484536082
vt 0.36923076923076925 0.6134020618556701
vt 0.3076923076923077 0.6134020618556701
vt 0.3076923076923077 0.5721649484536082
vt 0.3576923076923077 0.6597938144329897
vt 0.29615384615384616 0.6597938144329897
vt 0.29615384615384616 0.6185567010309279
vt 0.3576923076923077 0.6185567010309279
vn 1 0 0
vn -1 0 0
vn 0 0.9659258262890683 0.25881904510252074
vn 0 -0.9659258262890683 -0.25881904510252074
vn 0 -0.25881904510252074 0.9659258262890683
vn 0 0.25881904510252074 -0.9659258262890683
usemtl m_2ac43a07-e74f-490a-ab8f-5f7ea7c91f41
f 22/73/19 21/74/19 23/75/19 24/76/19
f 27/77/20 25/78/20 26/79/20 28/80/20
f 25/81/21 21/82/21 22/83/21 26/84/21
f 24/85/22 23/86/22 27/87/22 28/88/22
f 23/89/23 21/90/23 25/91/23 27/92/23
f 26/93/24 22/94/24 24/95/24 28/96/24