# Made in Blockbench 5.0.2
mtllib bed_iHC.mtl

o plane
v -1.8671790889767257 1.048661312287563 1.5615762499999999
v -1.354627510263334 1.1431176837589194 -2.096866875
v 4.390975045043435 0.9002556371087547 0.879844375
v -0.10654281701945179 1.0039886322621112 -2.240764375
v -0.8531036713935629 1.4693126463903319 -1.2701575
v -0.5201061543882894 1.5482917899483049 0.15142624999999998
v -0.8985526890609523 1.5549659760611292 0.688941875
v -0.8064644511693513 1.5469092992015356 2.150104375
v 0.920641878556441 1.2393253644964206 -1.946469375
v 0.6799631027937603 1.2746237228720994 -0.638514375
v 1.403473943183415 1.3535647426049857 0.7510756249999999
v 1.2873469189200137 0.6257067853841873 -2.104125625
v 0.8810227468776306 1.399273299527299 2.578125
v 2.296242464945117 1.5982992526873478 -0.15208187499999998
v 1.888356166066055 1.404216592907125 0.17238624999999996
v 2.4576523261300913 1.4881303554340268 1.069289375
v 2.6406643665761167 1.1276549624162597 -1.833814375
v 2.3054390669986096 1.4621533898931294 -1.176696875
v 2.824094375068007 1.3542765975244688 -0.425753125
v 2.3280722270180636 0.7651271346818482 -2.3454575
v 2.7651905502733696 0.8073642374777896 1.9976012500000002
v 3.735873410275223 1.6369824747031434 -0.528490625
v 3.306583014045527 0.9679724378711809 -2.199448125
v 3.182364654027856 1.2357038300790855 1.599423125
v 3.6065694982349727 1.6292664413607874 0.2923125
v 3.43613744521358 1.58793517056625 -1.95313625
v 2.729717030587996 1.3998047484407368 -1.238585
v 3.71566821528301 1.392525741807879 1.5560925
v 4.4494181387978795 0.6183473647774599 1.5504781250000002
v 4.375886114779206 0.8819592256638153 0.27447
v 4.0309634433025465 1.3432296153810825 -1.861235625
v -1.4729320575256226 1.2224944068418078 -1.161485625
v 4.317788514520642 0.7113491673858747 -1.07547375
v 4.460692322596483 0.8221854202561069 -2.2379825
v 3.705753995793579 0.7524905458185956 -2.16209125
v 4.058582879295401 0.48367593666900377 -1.749415
vt 0.7860185 0.6928102333333332
vt 0.7211765555555556 0.7441666666666666
vt 0.6343684222222222 0.5781465583333334
vt 0.14555398333333333 0.4223291583333333
vt 0.35142550000000006 0.2573397333333334
vt 0.43784277777777775 0.3607419666666667
vt 0.43784277777777775 0.3607419666666667
vt 0.5064328777777778 0.41226928333333324
vt 0.14555398333333333 0.4223291583333333
vt 0.5064328777777778 0.41226928333333324
vt 0.51515035 0.28727654999999996
vt 0.6304324555555556 0.46962067499999993
vt 0.6343684222222222 0.5781465583333334
vt 0.7404989722222222 0.5769868916666667
vt 0.6343684222222222 0.5781465583333334
vt 0.6304324555555556 0.46962067499999993
vt 0.7404989722222222 0.5769868916666667
vt 0.8371637666666667 0.6523019
vt 0.7860185 0.6928102333333332
vt 0.6343684222222222 0.5781465583333334
vt 0.5064328777777778 0.41226928333333324
vt 0.43784277777777775 0.3607419666666667
vt 0.35142550000000006 0.2573397333333334
vt 0.4127806277777778 0.20874494166666668
vt 0.51515035 0.28727654999999996
vt 0.5064328777777778 0.41226928333333324
vt 0.4127806277777778 0.20874494166666668
vt 0.5910696611111111 0.3411071916666667
vt 0.6304324555555556 0.46962067499999993
vt 0.51515035 0.28727654999999996
vt 0.5197764222222222 0.22094705000000003
vt 0.5910696611111111 0.3411071916666667
vt 0.6417331222222222 0.36487759166666667
vt 0.7404989722222222 0.5769868916666667
vt 0.6304324555555556 0.46962067499999993
vt 0.8475492833333333 0.5758171666666667
vt 0.7404989722222222 0.5769868916666667
vt 0.74592055 0.48413496666666667
vt 0.74592055 0.48413496666666667
vt 0.7404989722222222 0.5769868916666667
vt 0.6417331222222222 0.36487759166666667
vt 0.68740465 0.3825984416666667
vt 0.8475492833333333 0.5758171666666667
vt 0.8822943333333333 0.6165573666666666
vt 0.8371637666666667 0.6523019
vt 0.7404989722222222 0.5769868916666667
vt 0.4127806277777778 0.20874494166666668
vt 0.48263500555555555 0.15341852499999997
vt 0.5197764222222222 0.22094705000000003
vt 0.51515035 0.28727654999999996
vt 0.6401866166666667 0.30483962499999995
vt 0.68740465 0.3825984416666667
vt 0.6417331222222222 0.36487759166666667
vt 0.8822943333333333 0.6165573666666666
vt 0.8475492833333333 0.5758171666666667
vt 0.8826373388888888 0.5754337666666667
vt 0.5910696611111111 0.3411071916666667
vt 0.5197764222222222 0.22094705000000003
vt 0.6009693666666667 0.2908997916666667
vt 0.6417331222222222 0.36487759166666667
vt 0.5197764222222222 0.22094705000000003
vt 0.5223508111111111 0.18403498333333335
vt 0.6009693666666667 0.2908997916666667
vt 0.5223508111111111 0.18403498333333335
vt 0.5197764222222222 0.22094705000000003
vt 0.48263500555555555 0.15341852499999997
vt 0.6417331222222222 0.36487759166666667
vt 0.6070107388888889 0.29030788333333335
vt 0.6401866166666667 0.30483962499999995
vt 0.68740465 0.3825984416666667
vt 0.6401866166666667 0.30483962499999995
vt 0.7775761666666666 0.46361325833333333
vt 0.8475492833333333 0.5758171666666667
vt 0.74592055 0.48413496666666667
vt 0.7676028833333333 0.479359725
vt 0.74592055 0.48413496666666667
vt 0.68740465 0.3825984416666667
vt 0.7676028833333333 0.479359725
vt 0.8475492833333333 0.5758171666666667
vt 0.7676028833333333 0.479359725
vt 0.7775761666666666 0.46361325833333333
vt 0.8823372611111111 0.5734934583333333
vt 0.7676028833333333 0.479359725
vt 0.68740465 0.3825984416666667
vt 0.7775761666666666 0.46361325833333333
vt 0.5223508111111111 0.18403498333333335
vt 0.5243621111111111 0.15519661666666673
vt 0.6009693666666667 0.2908997916666667
vt 0.5223508111111111 0.18403498333333335
vt 0.48263500555555555 0.15341852499999997
vt 0.5106997333333333 0.13119055833333337
vt 0.5243621111111111 0.15519661666666673
vt 0.5106997333333333 0.13119055833333337
vt 0.5269330944444445 0.11833333333333329
vt 0.5243621111111111 0.15519661666666673
vt 0.6401866166666667 0.30483962499999995
vt 0.6070107388888889 0.29030788333333335
vt 0.5759727944444444 0.19909207500000003
vt 0.6343684222222222 0.5781465583333334
vt 0.7211765555555556 0.7441666666666666
vt 0.5946705388888889 0.673435625
vt 0.5946705388888889 0.673435625
vt 0.14555398333333333 0.4223291583333333
vt 0.5064328777777778 0.41226928333333324
vt 0.6343684222222222 0.5781465583333334
vt 0.5243621111111111 0.15519661666666673
vt 0.5269330944444445 0.11833333333333329
vt 0.6009693666666667 0.2908997916666667
vt 0.6070107388888889 0.29030788333333335
vt 0.5269330944444445 0.11833333333333329
vt 0.5759727944444444 0.19909207500000003
vt 0.7924650499999999 0.4428252833333334
vt 0.7819709666666667 0.4621421583333334
vt 0.6401866166666667 0.30483962499999995
vt 0.5858663777777777 0.2069766833333333
vt 0.8016594388888889 0.4259008083333333
vt 0.7924650499999999 0.4428252833333334
vt 0.5841699833333333 0.203920475
vt 0.9155048111111111 0.5902538333333334
vt 0.8822943333333333 0.6165573666666666
vt 0.8826373388888888 0.5754337666666667
vt 0.9050786055555555 0.5751885583333334
vt 0.9047281333333334 0.57391455
vt 0.8823372611111111 0.5734934583333333
vt 0.7819709666666667 0.4621421583333334
vt 0.7924650499999999 0.4428252833333334
vt 0.7924650499999999 0.4428252833333334
vt 0.9047281333333334 0.57391455
vt 0.9349379666666666 0.5748622916666666
vt 0.9349379666666666 0.5748622916666666
vt 0.9155048111111111 0.5902538333333334
vt 0.9050786055555555 0.5751885583333334
vt 0.9047281333333334 0.57391455
vt 0.7924650499999999 0.4428252833333334
vt 0.8016594388888889 0.4259008083333333
vn 0.056521982482230504 0.9165401253691332 -0.3959286098334046
vn -0.43972225964338646 0.8975397097339618 0.03266196296596189
vn -0.7112143206387548 0.48717253974088837 -0.5067909891077061
vn 0.1394138461038078 0.9818786145221017 -0.1283673083721158
vn 0.12733347121667685 0.9918543506810451 -0.0033367863273379393
vn 0.18417520954977973 0.3463961226443474 -0.9198310814515114
vn 0.023368270690890623 0.9997187633526616 0.004039569970011393
vn 0.09960826686792408 0.9950202527868923 0.003590224989802796
vn -0.10564808087488917 0.9944024748060051 -0.0014836128690812668
vn -0.3652686389578341 0.9260669659839007 0.0947565085219185
vn 0.08604773542058039 0.9049383874217213 -0.4167520872168065
vn -0.08553819279381289 0.9875535929366904 -0.13198908534951748
vn -0.22324044083089106 0.8544857150963467 -0.4690606232395921
vn 0.3915953335081992 0.7990564730495802 0.4562475727630427
vn -0.2370075425839726 0.45185036598368405 -0.8600341106716158
vn -0.09370703144433769 0.8384605647552404 -0.5368452976493445
vn -0.1291200766293113 0.9915700028524704 -0.010813660545468996
vn 0.09767129737900065 0.943765358265669 0.31585956722248637
vn -0.1889544077781919 0.7609778559470286 0.6206520237133334
vn -0.025452435457005138 0.9996615152906474 0.005387798819004219
vn -0.29307053021212714 0.9556581955928124 0.028758955430831335
vn 0.07093431356149026 0.9031018653945868 -0.4235272646245786
vn 0.15068688405372202 0.9878572464028713 0.03783548207063262
vn -0.5113996123029568 0.8078956243484443 -0.2928738579918372
vn -0.18386871211950034 0.9799896866458522 0.076239824050695
vn -0.2614907831314805 0.9443677141557979 0.19947980047473104
vn 0.2742974427995806 0.4977299665827034 0.8228157711415064
vn 0.7088240669786682 0.670213326338787 0.21996031294240176
vn 0.6934559976630206 0.7111115440667091 0.11592735311498255
vn -0.38603048379991894 0.9137896099845785 -0.12636856516330433
vn -0.337357954599392 0.9413092470184087 0.011247752937861375
vn 0.6423564896084206 0.7614309464384342 0.08718402413181775
vn 0.6957754686455017 0.7171987663772383 -0.03901828722663317
vn 0.39299459229680017 0.9124347861987956 -0.11409650020850748
vn 0.9418629670457113 0.3259069164177666 -0.08172412825422248
vn 0.13223968320843152 0.07360092387531027 -0.9884814465581205
vn 0.01522577377234392 0.36643503256362986 -0.9303190542620984
vn -0.7280630779379055 -0.11138821590860015 -0.6763998964372205
vn 0.020502064920141783 -0.8296265731957032 -0.5579421245806458
vn 0.8139351481836201 0.5603164547317845 0.15347652950243756
usemtl m_4b9fb592-abfd-3fd6-643c-2d89902af326
f 4/1/1 2/2/1 5/3/1
f 1/4/2 8/5/2 7/6/2
f 7/7/3 6/8/3 1/9/3
f 6/10/4 11/11/4 10/12/4 5/13/4
f 9/14/5 5/15/5 10/16/5
f 9/17/6 12/18/6 4/19/6 5/20/6
f 6/21/7 7/22/7 8/23/7 13/24/7
f 11/25/8 6/26/8 13/27/8
f 15/28/9 10/29/9 11/30/9 16/31/9
f 15/32/10 14/33/10 9/34/10 10/35/10
f 17/36/11 9/37/11 18/38/11
f 18/39/12 9/40/12 14/41/12 19/42/12
f 17/43/13 20/44/13 12/45/13 9/46/13
f 13/47/14 21/48/14 16/49/14 11/50/14
f 22/51/15 19/52/15 14/53/15
f 20/54/16 17/55/16 23/56/16
f 15/57/17 16/58/17 25/59/17 14/60/17
f 16/61/18 24/62/18 25/63/18
f 24/64/19 16/65/19 21/66/19
f 14/67/20 25/68/20 22/69/20
f 19/70/21 22/71/21 26/72/21
f 17/73/22 18/74/22 27/75/22
f 18/76/23 19/77/23 27/78/23
f 17/79/24 27/80/24 26/81/24 23/82/24
f 27/83/25 19/84/25 26/85/25
f 24/86/26 28/87/26 25/88/26
f 24/89/27 21/90/27 29/91/27 28/92/27
f 29/93/28 3/94/28 28/95/28
f 22/96/29 25/97/29 30/98/29
f 5/99/30 2/100/30 32/101/30
f 32/102/31 1/103/31 6/104/31 5/105/31
f 28/106/32 3/107/32 25/108/32
f 25/109/33 3/110/33 30/111/33
f 31/112/34 26/113/34 22/114/34 30/115/34
f 33/116/35 31/117/35 30/118/35
f 35/119/36 20/120/36 23/121/36 34/122/36
f 34/123/37 23/124/37 26/125/37 31/126/37
f 31/127/38 34/128/38 36/129/38
f 36/130/39 35/131/39 34/132/39
f 34/133/40 31/134/40 33/135/40
o cama
v 3.90625 1.1875 1.421875
v 3.90625 1.1875 -1.6875
v 3.90625 0.03125 1.421875
v 3.90625 0.03125 -1.6875
v -2.84375 1.1875 1.421875
v -2.84375 1.1875 -1.6875
v -2.84375 0.03125 1.421875
v -2.84375 0.03125 -1.6875
v 3.90625 0.734375 -1.6875
v -2.84375 0.734375 -1.6875
v -2.84375 0.734375 1.421875
v 3.90625 0.734375 1.421875
v -1.16909625 1.1875 1.421875
v -0.6391737500000001 1.1875 -1.6875
vt 0.9513552812071331 0
vt 0.9650727023319616 0.053896132686084175
vt 0.6434622908093278 0.17201911003236248
vt 0.6297448696844993 0.08518477346278319
vt 0.9613462962962963 0.0057641262135922355
vt 0.9435136488340192 0.12237982200647246
vt 0.598079561042524 0.19681347896440138
vt 0.598079561042524 0.054307815533980563
vt 0.2147297668038409 0.7383769741100323
vt 0.2147297668038409 0.8073971359223301
vt 0.193530877914952 0.8073971359223301
vt 0.193530877914952 0.7383769741100323
vt 0.11498141289437586 0.5704890453074434
vt 0.11498141289437586 0.5835448705501618
vt 0.09739368998628258 0.5835448705501618
vt 0.09739368998628258 0.5704890453074434
vt 0.9842770919067215 0
vt 0.9678161865569274 0.06684111650485436
vt 0.6955884910836763 0.15098351132686083
vt 0.6585514540466392 0.08033040453074436
vt 0.6312462962962962 0.4315521359223301
vt 0.6271310699588477 0.19681347896440138
vt 0.9766803840877915 0.13370668284789644
vt 0.99039780521262 0.42669776699029127
vt 0.6731669958847737 0.385389352750809
vt 0.6657231961591221 0.09691466019417483
vt 0.974007352537723 0.02465478964401302
vt 0.9794943209876544 0.36358788025889965
vt 0.3811055692729767 0.7645623300970874
vt 0.6559275445816186 0.9123549029126213
vt 0.7586612482853223 0.5222654207119741
vt 0.3563373936899863 0.5876083171521036
vt 0.2348804938271605 0.5807721035598705
vt 0.6526437860082304 0.5553071521035599
vt 0.8157624828532235 0.8371564724919094
vt 0.30223389574759946 0.7776891747572816
vt 0.8916655144032922 0.2875395631067962
vt 0.7105439231824418 0.371836860841424
vt 0.6967390534979424 0.1478360517799352
vt 0.9657064471879286 0.02265372168284785
vt 0.7599451303155007 0.15279703883495155
vt 0.7547986556927297 0.42689690938511327
vt 0.6881784087791495 0.38665501618122977
vt 0.10175714677640603 0.5966006796116505
vt 0.09739368998628258 0.5966006796116505
vt 0.09739368998628258 0.5835448705501618
vt 0.11498141289437586 0.5835448705501618
vt 0.11498141289437586 0.5835448705501618
vt 0.11498141289437586 0.5966006796116505
vt 0.10175714677640603 0.5966006796116505
vn 1 0 0
vn -1 0 0
vn 0 -1 0
vn 0 0 1
vn 0 0 -1
vn -1 0 0
vn 1 0 0
vn 0 1 0
vn 0 1 0
vn 0 0 -1
vn 0 0 -1
vn 0 0 1
vn 0 0 1
usemtl m_46d9ffe9-f1f7-fc52-a0b9-f3e890bab551
f 40/136/41 45/137/41 48/138/41 39/139/41
f 43/140/42 47/141/42 46/142/42 44/143/42
f 40/144/43 39/145/43 43/146/43 44/147/43
f 39/148/44 48/149/44 47/150/44 43/151/44
f 44/152/45 46/153/45 45/154/45 40/155/45
f 42/156/46 46/157/46 47/158/46 41/159/46
f 37/160/47 48/161/47 45/162/47 38/163/47
f 42/164/48 41/165/48 49/166/48 50/167/48
f 50/168/49 49/169/49 37/170/49 38/171/49
f 50/172/50 38/173/50 45/174/50 46/175/50
f 46/176/51 42/177/51 50/178/51
f 49/179/52 41/180/52 47/181/52 48/182/52
f 48/183/53 37/184/53 49/185/53
o beveled_cuboid
v -1.9375 1.625 0.38671875
v -1.9375 1.4375 -1.171875
v -2.6875 1.625 0.796875
v -2.6875 1.625 -1.0078125
v -1.9375 1.125 0.796875
v -1.9375 1.125 -1.171875
v -2.6875 1.125 0.796875
v -2.6875 1.125 -1.171875
v -2.8125 1.25 0.796875
v -2.8125 1.5 0.796875
v -2.8125 1.25 -1.171875
v -2.8125 1.5 -1.0078125
v -1.8125 1.25 0.796875
v -1.8125 1.5 0.38671875
v -1.8125 1.3125 -1.171875
v -1.9375 1.3125 -1.5
v -2.6875 1.25 -1.5
v -2.6875 1.5 -1.3359375
v -1.9375 1.25 1.125
v -1.9375 1.5 0.71484375
v -2.6875 1.25 1.125
v -2.6875 1.5 1.125
v -1.8125 1.25 -1.171875
v -1.9375 1.25 -1.5
vt 0.5114166666666667 0.439418875
vt 0.23083333333333333 0.661918875
vt 0.21083333333333334 0.48316887500000005
vt 0.5114166666666667 0.21941887500000012
vt 0.5590314083333333 0.6794794875000001
vt 0.47133678333333334 0.7554252625
vt 0.3506395916666667 0.44184477499999997
vt 0.438334225 0.365899
vt 0.24154166666666668 0.664606375
vt 0.5515416666666667 0.382106375
vt 0.5957083333333334 0.755481375
vt 0.357375 0.964231375
vt 0.61930405 0.20917453750000004
vt 0.7400012333333333 0.522755025
vt 0.47691735 0.75059235
vt 0.3562201583333333 0.4370118625
vt 0.5590314083333333 0.6794794875000001
vt 0.47133678333333334 0.7554252625
vt 0.3506395916666667 0.44184477499999997
vt 0.438334225 0.365899
vt 0.6753537333333334 0.66342615
vt 0.5914766916666666 0.17030440000000002
vt 0.7369609083333333 0.05643575000000001
vt 0.7886275749999999 0.5572149375
vt 0.5228158333333334 0.42058533750000004
vt 0.24288540833333333 0.6804859249999999
vt 0.19193416666666666 0.5212999125
vt 0.5160312583333334 0.22014932499999995
vt 0.53334565 0.7017240124999999
vt 0.47133678333333334 0.7554252625
vt 0.3506395916666667 0.44184477499999997
vt 0.41264846666666666 0.3881435125
vt 0.53334565 0.7017240124999999
vt 0.47133678333333334 0.7554252625
vt 0.3506395916666667 0.44184477499999997
vt 0.41264846666666666 0.3881435125
vt 0.5912017166666667 0.68159145
vt 0.53349625 0.3726712125
vt 0.5843816166666667 0.17029380000000005
vt 0.68625375 0.6667140375
vt 0.3506395916666667 0.44184477499999997
vt 0.4126506583333333 0.38814162500000005
vt 0.5333478500000001 0.7017221124999999
vt 0.47133678333333334 0.7554252625
vt 0.4126506583333333 0.38814162500000005
vt 0.5333478500000001 0.7017221124999999
vt 0.47133678333333334 0.7554252625
vt 0.3506395916666667 0.44184477499999997
vt 0.4126506583333333 0.38814162500000005
vt 0.5333478500000001 0.7017221124999999
vt 0.47133678333333334 0.7554252625
vt 0.3506395916666667 0.44184477499999997
vt 0.3506395916666667 0.44184477499999997
vt 0.4126506583333333 0.38814162500000005
vt 0.5333478500000001 0.7017221124999999
vt 0.47133678333333334 0.7554252625
vt 0.3699447 0.7424383625
vt 0.216188425 0.5926626374999999
vt 0.27734670833333336 0.45139938749999997
vt 0.4311029833333333 0.6011751125
vt 0.30236029166666667 0.4807305125
vt 0.390054925 0.4047847375
vt 0.41850325 0.47869566249999995
vt 0.330808625 0.5546414375
vt 0.390054925 0.4047847375
vt 0.41850325 0.47869566249999995
vt 0.330808625 0.5546414375
vt 0.30236029166666667 0.4807305125
vt 0.37028645833333335 0.471178675
vt 0.330808625 0.5546414375
vt 0.30236029166666667 0.4807305125
vt 0.37028645833333335 0.471178675
vt 0.330808625 0.5546414375
vt 0.30236029166666667 0.4807305125
vt 0.37028645833333335 0.471178675
vt 0.330808625 0.5546414375
vt 0.30236029166666667 0.4807305125
vt 0.37028645833333335 0.471178675
vt 0.330808625 0.5546414375
vt 0.30236029166666667 0.4807305125
vt 0.31947904166666663 0.679418875
vt 0.2633333333333333 0.51101575
vt 0.37562474166666665 0.51101575
vt 0.3165844583333333 0.517685975
vt 0.35606229166666664 0.434223225
vt 0.38451061666666664 0.5081341375
vt 0.5311457083333334 0.36941887500000004
vt 0.5058333333333334 0.23226574999999994
vt 0.6114580749999999 0.14101575
vt 0.3165844583333333 0.517685975
vt 0.35606229166666664 0.434223225
vt 0.38451061666666664 0.5081341375
vt 0.5983651666666666 0.23857683750000003
vt 0.8051694583333333 0.18374999999999997
vt 0.6689262416666667 0.3677609125
vt 0.5937886166666666 0.24258775
vn 1 0 0
vn -1 0 0
vn 0.21680090427461485 0.9692275720512193 -0.11659880566029705
vn 0 -1 0
vn 0.2737551493688227 0.8212654481064682 0.500580844560133
vn -0.21369687880543226 0 -0.9769000173962618
vn 0.7045622222454414 0.7045622222454414 -0.08475936508215837
vn -0.7071067811865476 0.7071067811865476 0
vn 0.19109712190792025 0.9172661851580173 0.3494347372030542
vn 0.15389262041335738 0.9233557224801444 -0.3517545609448169
vn 0.7071067811865476 -0.7071067811865476 0
vn -0.7071067811865476 -0.7071067811865476 0
vn 0 -0.9344877349289681 0.3559953275919878
vn 0 -0.9344877349289681 -0.3559953275919878
vn 0.8069372763162203 0.5043357976976376 0.3074046766918934
vn -0.9099845177562298 0.22749612943905745 -0.34666076866903994
vn -0.9344877349289681 0 0.3559953275919878
vn 0.682768893200473 -0.682768893200473 0.2601024355049421
vn -0.682768893200473 -0.682768893200473 0.2601024355049421
vn 0.682768893200473 -0.682768893200473 -0.2601024355049421
vn -0.682768893200473 -0.682768893200473 -0.2601024355049421
vn 0.682768893200473 0.682768893200473 0.2601024355049421
vn -0.682768893200473 0.682768893200473 0.2601024355049421
vn 0.682768893200473 0.682768893200473 -0.2601024355049421
vn -0.682768893200473 0.682768893200473 -0.2601024355049421
vn 0.9344877349289681 0 -0.3559953275919878
usemtl m_00f68dbd-1d9f-8a94-e267-484e354db757
f 65/186/54 64/187/54 63/188/54 73/189/54
f 59/190/55 60/191/55 62/192/55 61/193/55
f 51/194/56 52/195/56 54/196/56 53/197/56
f 58/198/57 56/199/57 55/200/57 57/201/57
f 69/202/58 70/203/58 72/204/58 71/205/58
f 68/206/59 66/207/59 74/208/59 67/209/59
f 52/210/60 51/211/60 64/212/60 65/213/60
f 60/214/61 53/215/61 54/216/61 62/217/61
f 70/218/62 51/219/62 53/220/62 72/221/62
f 54/222/63 52/223/63 66/224/63 68/225/63
f 63/226/64 55/227/64 56/228/64 73/229/64
f 58/230/65 57/231/65 59/232/65 61/233/65
f 57/234/66 55/235/66 69/236/66 71/237/66
f 74/238/67 56/239/67 58/240/67 67/241/67
f 70/242/68 69/243/68 63/244/68 64/245/68
f 68/246/69 67/247/69 61/248/69 62/249/69
f 59/250/70 71/251/70 72/252/70 60/253/70
f 55/254/71 63/255/71 69/256/71
f 57/257/72 71/258/72 59/259/72
f 56/260/73 74/261/73 73/262/73
f 58/263/74 61/264/74 67/265/74
f 51/266/75 70/267/75 64/268/75
f 53/269/76 60/270/76 72/271/76
f 52/272/77 65/273/77 66/274/77
f 54/275/78 68/276/78 62/277/78
f 73/278/79 74/279/79 66/280/79 65/281/79