# Made in Blockbench 5.0.2
mtllib COMPUTER.mtl

o sphere_selection_selection
v 0.09999499999999983 2.9375 1.818923125
v 0.7562449999999998 2.9375 0.6822650000000001
v 0.09999499999999983 2 1.818923125
v 0.7562449999999998 2 0.6822650000000001
v -0.14686999999999983 3.125 1.8568175
v 0.6656300000000002 3.125 0.4495262499999999
v -0.14686999999999983 2 1.8568175
v 0.6656300000000002 2 0.4495262499999999
v 0.26131125000000033 2 1.47904625
v 0.14493874999999967 2 1.41185875
v 0.5425612500000003 2 0.991906875
v 0.42618874999999967 2 0.924719375
v 0.26131125000000033 1.6875 1.47904625
v 0.14493874999999967 1.6875 1.41185875
v 0.5425612500000003 1.6875 0.991906875
v 0.42618874999999967 1.6875 0.924719375
v 0.18586937500000023 1.5 2.0128399999999997
v -0.2796193750000002 1.5 1.74409
v 0.9671193750000002 1.5 0.6596756250000002
v 0.5016306249999998 1.5 0.39092562499999994
vt 0.8260885250965251 0.9557996084573218
vt 0.6298633204633204 0.9557996084573218
vt 0.6298633204633204 0.9321575391542678
vt 0.8260885250965251 0.9321575391542678
vt 0.9796814671814672 0.38633411119812056
vt 0.9796814671814672 0.9629950215348473
vt 0.5048865534105534 0.9629950215348473
vt 0.5048865534105534 0.38633411119812056
vt 0.7907227001287002 0.380645555990603
vt 0.9735158223938225 0.380645555990603
vt 0.9735158223938225 0.4114830383711825
vt 0.7907227001287002 0.4114830383711825
vt 0.4949584942084942 0.9845812588097103
vt 0.4949584942084942 0.997944167971809
vt 0.4902864658944659 0.997944167971809
vt 0.4902864658944659 0.9845812588097103
vt 0.5224066615186616 0.6422852114330462
vt 0.5224066615186616 0.8324496828504306
vt 0.5031345431145431 0.8324496828504306
vt 0.5031345431145431 0.6422852114330462
vt 0.521822658944659 0.8982363097102584
vt 0.5031345431145431 0.8982363097102584
vt 0.5031345431145431 0.5641635904463587
vt 0.521822658944659 0.5641635904463587
vt 0.4961264993564994 0.9933185454189507
vt 0.4961264993564994 0.979955636256852
vt 0.4984625148005148 0.9732741816758027
vt 0.4984625148005148 1
vt 0.5248886769626769 0.9847525822239624
vt 0.5987651299871299 0.9847525822239624
vt 0.6357033564993565 1
vt 0.48795045045045043 1
vt 0.4902864658944659 0.979955636256852
vt 0.4902864658944659 0.9933185454189507
vt 0.48795045045045043 1
vt 0.48795045045045043 0.9732741816758027
vt 0.601685148005148 1
vt 0.5278086949806949 1
vt 0.4908704684684685 0.9847525822239624
vt 0.6386233745173745 0.9847525822239624
vt 0.5455168854568854 0.9349219949099452
vt 0.9035110810810811 0.9349219949099452
vt 0.9035110810810811 0.9708990563821457
vt 0.5455168854568854 0.9708990563821457
vt 0.5398481287001287 0.9414569107282694
vt 0.9334665431145431 0.9414569107282694
vt 0.9334665431145431 0.97435022513704
vt 0.5398481287001287 0.97435022513704
vt 0.726280084942085 0.35241288175411123
vt 0.7589842857142857 0.35241288175411123
vt 0.7589842857142857 0.38633411119812056
vt 0.726280084942085 0.38633411119812056
vt 0.6173493256113256 0.9461437705559906
vt 0.852118767052767 0.9461437705559906
vt 0.852118767052767 0.9728695888801879
vt 0.6173493256113256 0.9728695888801879
vt 0.5194866435006434 0.9441360649960846
vt 0.7069517940797941 0.9441360649960846
vt 0.7069517940797941 0.9749735473766641
vt 0.5194866435006434 0.9749735473766641
vt 0.5457668056628057 0.3917673786217698
vt 0.7104558146718147 0.3917673786217698
vt 0.7104558146718147 0.41305992952231796
vt 0.5457668056628057 0.41305992952231796
vt 0.59891112998713 0.3917820673453406
vt 0.6942789163449163 0.3886983183241973
vt 0.7001189523809523 0.42128325763508223
vt 0.6117592097812098 0.42128325763508223
vt 0.5913190836550837 0.3945574393108848
vt 0.6573114903474903 0.3945574393108848
vt 0.6573114903474903 0.4240733202819108
vt 0.5913190836550837 0.4240733202819108
vn 0.8660253623621296 0 0.5000000717455371
vn -0.866025398992175 0 -0.500000008300444
vn 0.6004990374554671 0.7205561477265408 0.34669834725384147
vn 0 -1 0
vn 0.15172527727399288 0 0.9884227032176719
vn 0.9318619269673083 0 -0.3628131048746384
vn 0 -1 0
vn 0 -1 0
vn 0 -1 0
vn 0 -1 0
vn 0.8660254417272104 0 0.49999993428118583
vn -0.49999891608789215 0 0.8660260295804815
vn -0.8660254417272104 0 -0.49999993428118583
vn 0.49999891608789215 0 -0.8660260295804815
vn 0.5898533673117526 0.732186646637428 0.34055208053515806
vn -0.17556172356343833 0.9363291552390163 0.30408188743959264
vn -0.5898533673117526 0.7321866466374279 -0.34055208053515806
vn 0.17556172356343847 0.9363291552390163 -0.30408188743959264
usemtl m_64333685-ebe1-3e68-6991-2153049ee970
f 2/1/1 1/2/1 3/3/1 4/4/1
f 7/5/2 5/6/2 6/7/2 8/8/2
f 5/9/3 1/10/3 2/11/3 6/12/3
f 19/13/4 17/14/4 18/15/4 20/16/4
f 3/17/5 1/18/5 5/19/5 7/20/5
f 6/21/6 2/22/6 4/23/6 8/24/6
f 9/25/7 11/26/7 4/27/7 3/28/7
f 10/29/8 9/30/8 3/31/8 7/32/8
f 12/33/9 10/34/9 7/35/9 8/36/9
f 11/37/10 12/38/10 8/39/10 4/40/10
f 13/41/11 15/42/11 11/43/11 9/44/11
f 14/45/12 13/46/12 9/47/12 10/48/12
f 16/49/13 14/50/13 10/51/13 12/52/13
f 15/53/14 16/54/14 12/55/14 11/56/14
f 17/57/15 19/58/15 15/59/15 13/60/15
f 18/61/16 17/62/16 13/63/16 14/64/16
f 20/65/17 18/66/17 14/67/17 16/68/17
f 19/69/18 20/70/18 16/71/18 15/72/18
o sphere_selection_selection_selection
v -0.375 1.625 0.4375
v -0.375 1.625 -1.4375
v -0.375 1.5 0.4375
v -0.375 1.5 -1.4375
v -1 1.5625 0.4375
v -1 1.5625 -1.4375
v -1 1.5 0.4375
v -1 1.5 -1.4375
v -0.7390625000000002 1.5687499999999996 1.03125
v -0.7390625000000002 1.5687499999999996 0.84375
v -1.0109374999999998 1.5687499999999996 1.03125
v -1.0109374999999998 1.5687499999999996 0.84375
v -0.7390625000000002 1.4312500000000004 1.03125
v -0.7390625000000002 1.4312500000000004 0.84375
v -1.0109374999999998 1.4312500000000004 1.03125
v -1.0109374999999998 1.4312500000000004 0.84375
v -1.0562500000000004 1.4656250000000002 1.03125
v -1.0562500000000004 1.5343749999999998 1.03125
v -1.0562500000000004 1.4656250000000002 0.84375
v -1.0562500000000004 1.5343749999999998 0.84375
v -0.6937499999999996 1.4656250000000002 1.03125
v -0.6937499999999996 1.5343749999999998 1.03125
v -0.6937499999999996 1.4656250000000002 0.84375
v -0.6937499999999996 1.5343749999999998 0.84375
v -0.7390625000000002 1.4656250000000002 0.8125
v -0.7390625000000002 1.5343749999999998 0.8125
v -1.0109374999999998 1.4656250000000002 0.8125
v -1.0109374999999998 1.5343749999999998 0.8125
v -0.7390625000000002 1.4656250000000002 1.0625
v -0.7390625000000002 1.5343749999999998 1.0625
v -1.0109374999999998 1.4656250000000002 1.0625
v -1.0109374999999998 1.5343749999999998 1.0625
v -0.8509481250000004 1.5687499999999996 0.84375
v -0.849528125 1.5687499999999996 1.03125
vt 0.424967824967825 0.13566953797963976
vt 0.3945945945945946 0.13566953797963976
vt 0.3945945945945946 0.12901331245105718
vt 0.424967824967825 0.12901331245105718
vt 0.42676962676962676 0.1282302270947533
vt 0.42676962676962676 0.13469068128425998
vt 0.39433719433719433 0.13508222396241187
vt 0.39433719433719433 0.1286217697729053
vt 0.5447554697554697 0.032764833594361775
vt 0.5447554697554697 0.3097469655442443
vt 0.014171199485199485 0.31180495888801874
vt 0.01780888030888031 0.03753915426781518
vt 0.004633204633204633 0.9964761158966328
vt 0.004633204633204633 0.9996084573218481
vt 0.0005148005148005148 0.9996084573218481
vt 0.0005148005148005148 0.9964761158966328
vt 0.41653796653796654 0.26929571260767426
vt 0.41653796653796654 0.27556039545810496
vt 0.3884813384813385 0.27556039545810496
vt 0.3884813384813385 0.26929571260767426
vt 0.4208011583011583 0.14653484729835553
vt 0.3904279279279279 0.14653484729835553
vt 0.3904279279279279 0.13987862176977295
vt 0.4208011583011583 0.13987862176977295
vt 0.75006435006435 0.2899373531714957
vt 0.7492921492921493 0.2899373531714957
vt 0.7492921492921493 0.2897415818324197
vt 0.75006435006435 0.2897415818324197
vt 0.751093951093951 0.2897415818324197
vt 0.751093951093951 0.2899373531714957
vt 0.7503217503217503 0.2899373531714957
vt 0.7503217503217503 0.2897415818324197
vt 0.7474903474903475 0.2907204385277995
vt 0.7485199485199485 0.2907204385277995
vt 0.7485199485199485 0.2913077525450274
vt 0.7474903474903475 0.2913077525450274
vt 0.7502380952380953 0.29109240407204384
vt 0.7502380952380953 0.2913077525450274
vt 0.749118404118404 0.2913077525450274
vt 0.749118404118404 0.29109240407204384
vt 0.7504954954954955 0.2920908379013313
vt 0.7493758043758043 0.2920908379013313
vt 0.7493758043758043 0.29187548942834773
vt 0.7504954954954955 0.29187548942834773
vt 0.7513513513513513 0.2907204385277995
vt 0.7505791505791506 0.2907204385277995
vt 0.7505791505791506 0.2905246671887236
vt 0.7513513513513513 0.2905246671887236
vt 0.7482625482625482 0.2893500391542678
vt 0.7482625482625482 0.2895458104933438
vt 0.7474903474903475 0.2895458104933438
vt 0.7474903474903475 0.2893500391542678
vt 0.7508365508365509 0.2915035238841034
vt 0.7508365508365509 0.2913077525450274
vt 0.7516087516087516 0.2913077525450274
vt 0.7516087516087516 0.2915035238841034
vt 0.7485199485199485 0.2893500391542678
vt 0.7492921492921493 0.2893500391542678
vt 0.7492921492921493 0.2895458104933438
vt 0.7485199485199485 0.2895458104933438
vt 0.7477027027027027 0.2901331245105716
vt 0.7488223938223939 0.2901331245105716
vt 0.7488223938223939 0.29027864134690684
vt 0.7477027027027027 0.29027864134690684
vt 0.7495045045045045 0.29027864134690684
vt 0.7495045045045045 0.2901331245105716
vt 0.7506241956241957 0.2901331245105716
vt 0.7506241956241957 0.29027864134690684
vt 0.749149111969112 0.29187548942834773
vt 0.7493758043758043 0.29187548942834773
vt 0.7493758043758043 0.2920908379013313
vt 0.749149111969112 0.2920908379013313
vt 0.7502380952380953 0.2913077525450274
vt 0.7502380952380953 0.29109240407204384
vt 0.7504647876447876 0.29109240407204384
vt 0.7504647876447876 0.2913077525450274
vt 0.7504954954954955 0.2920908379013313
vt 0.7504954954954955 0.29187548942834773
vt 0.7507221879021879 0.29187548942834773
vt 0.7507221879021879 0.2920908379013313
vt 0.7488917117117118 0.29109240407204384
vt 0.749118404118404 0.29109240407204384
vt 0.749118404118404 0.2913077525450274
vt 0.7488917117117118 0.2913077525450274
vt 0.7488223938223939 0.2901331245105716
vt 0.7490319021879023 0.2902128014878622
vt 0.7488223938223939 0.2902786511354738
vt 0.7477027027027027 0.2901331245105716
vt 0.7477027027027027 0.2902786511354738
vt 0.7474931943371943 0.2902128014878622
vt 0.7495045045045045 0.2901331245105716
vt 0.7495045045045045 0.2902786511354738
vt 0.7492949961389961 0.2902128014878622
vt 0.7506241956241957 0.2901331245105716
vt 0.7508337039897041 0.2902128014878622
vt 0.7506241956241957 0.2902786511354738
vt 0.7501093951093951 0.2907204385277995
vt 0.7501093951093951 0.2905749119028974
vt 0.7503189034749035 0.290640761550509
vt 0.748989703989704 0.29072042873923254
vt 0.7487801956241956 0.29064075176194204
vt 0.748989703989704 0.29057490211433046
vt 0.7477027027027027 0.2899373531714957
vt 0.7474931943371943 0.2898576761942052
vt 0.7477027027027027 0.2897918265465935
vt 0.7488223938223939 0.2899373531714957
vt 0.7488223938223939 0.2897918265465935
vt 0.7490319021879023 0.2898576761942052
vt 0.7482387387387387 0.2915035238841034
vt 0.7486936936936938 0.2915035238841034
vt 0.7486936936936938 0.2920908379013313
vt 0.7482328957528958 0.2920908379013313
vt 0.7482328957528958 0.2920908379013313
vt 0.7475740025740025 0.2920908379013313
vt 0.7475740025740025 0.2915035238841034
vt 0.7482387387387387 0.2915035238841034
vt 0.7501093951093951 0.2905749119028974
vt 0.7501093951093951 0.29072042873923254
vt 0.74965444015444 0.29072042873923254
vt 0.748989703989704 0.2905749119028974
vt 0.74965444015444 0.29072042873923254
vt 0.748989703989704 0.29072042873923254
vt 0.748989703989704 0.2905749119028974
vt 0.7488223938223939 0.2897918363351605
vt 0.7488223938223939 0.2899373531714957
vt 0.7481635006435007 0.2899373531714957
vt 0.7477027027027027 0.2897918363351605
vt 0.7481635006435007 0.2899373531714957
vt 0.7477027027027027 0.2899373531714957
vt 0.7477027027027027 0.2897918363351605
vn 1 0 0
vn -1 0 0
vn -0.09950371902099892 0.9950371902099892 0
vn 0 -1 0
vn 0 0 1
vn 0 0 -1
vn 1 0 0
vn -1 0 0
vn 0 -1 0
vn 0 0 1
vn 0 0 -1
vn 0.6043864813742252 0.7966912709024013 0
vn -0.6043864813742252 0.7966912709024013 0
vn 0.6043864813742252 -0.7966912709024013 0
vn -0.6043864813742252 -0.7966912709024013 0
vn 0 -0.6726727939963144 0.739940073395942
vn 0 -0.6726727939963144 -0.739940073395942
vn 0.567732955803655 0 -0.8232127859153094
vn 0.567732955803655 0 0.8232127859153094
vn -0.567732955803655 0 -0.8232127859153094
vn -0.567732955803655 0 0.8232127859153094
vn 0.4545406036752664 -0.599167159390134 0.6590838753291439
vn -0.4545406036752664 -0.599167159390134 0.6590838753291439
vn 0.4545406036752664 -0.599167159390134 -0.6590838753291439
vn -0.4545406036752664 -0.599167159390134 -0.6590838753291439
vn 0.4545406036752664 0.599167159390134 0.6590838753291439
vn -0.4545406036752664 0.599167159390134 0.6590838753291439
vn 0.4545406036752664 0.599167159390134 -0.6590838753291439
vn -0.4545406036752664 0.599167159390134 -0.6590838753291439
vn 0 1 0
vn 0 1 0
vn 0 0.6726727939963144 0.739940073395942
vn 0 0.6726727939963144 0.7399400733959419
vn 0 0.6726727939963144 -0.739940073395942
vn 0 0.6726727939963144 -0.739940073395942
usemtl m_64333685-ebe1-3e68-6991-2153049ee970
f 22/73/19 21/74/19 23/75/19 24/76/19
f 27/77/20 25/78/20 26/79/20 28/80/20
f 25/81/21 21/82/21 22/83/21 26/84/21
f 24/85/22 23/86/22 27/87/22 28/88/22
f 23/89/23 21/90/23 25/91/23 27/92/23
f 26/93/24 22/94/24 24/95/24 28/96/24
f 44/97/25 42/98/25 41/99/25 43/100/25
f 37/101/26 38/102/26 40/103/26 39/104/26
f 36/105/27 34/106/27 33/107/27 35/108/27
f 49/109/28 50/110/28 52/111/28 51/112/28
f 48/113/29 46/114/29 45/115/29 47/116/29
f 30/117/30 29/118/30 42/119/30 44/120/30
f 38/121/31 31/122/31 32/123/31 40/124/31
f 41/125/32 33/126/32 34/127/32 43/128/32
f 36/129/33 35/130/33 37/131/33 39/132/33
f 35/133/34 33/134/34 49/135/34 51/136/34
f 45/137/35 34/138/35 36/139/35 47/140/35
f 43/141/36 45/142/36 46/143/36 44/144/36
f 50/145/37 49/146/37 41/147/37 42/148/37
f 48/149/38 47/150/38 39/151/38 40/152/38
f 37/153/39 51/154/39 52/155/39 38/156/39
f 33/157/40 41/158/40 49/159/40
f 35/160/41 51/161/41 37/162/41
f 34/163/42 45/164/42 43/165/42
f 36/166/43 39/167/43 47/168/43
f 29/169/44 50/170/44 42/171/44
f 31/172/45 38/173/45 52/174/45
f 30/175/46 44/176/46 46/177/46
f 32/178/47 48/179/47 40/180/47
f 54/181/48 29/182/48 30/183/48 53/184/48
f 53/185/49 32/186/49 31/187/49 54/188/49
f 50/189/50 29/190/50 54/191/50 52/192/50
f 54/193/51 31/194/51 52/195/51
f 48/196/52 32/197/52 53/198/52 46/199/52
f 53/200/53 30/201/53 46/202/53
o sphere_selection_selection_selection
v 1.203125 1.484375 2.3125
v 1.203125 1.484375 -2
v 1.203125 0 2.3125
v 1.203125 0 -2
v -1.375 1.484375 2.3125
v -1.375 1.484375 -2
v -1.375 0 2.3125
v -1.375 0 -2
v -1.375 1.03125 2.3125
v -1.375 1.03125 -2
v 1.203125 0.59375 -2
v 1.203125 0.59375 2.3125
v -1.375 1.03125 -1.28125
v -1.375 0 -1.28125
v 1.203125 0 -1.28125
v 1.203125 0.59375 -1.28125
v 1.203125 1.484375 -1.28125
v -1.375 1.484375 -1.28125
v -1.375 1.03125 0.640625
v -1.375 0 0.640625
v 1.203125 0 0.765625
v 1.203125 0.59375 0.765625
v 1.203125 1.484375 0.765625
v -1.375 1.484375 0.640625
v 0.5 0 -1.28125
v 0.5 1.03125 0.640625
v 0.5 0 0.640625
v 0.5 1.03125 -1.28125
vt 0.28040129987129986 0.5214736687548942
vt 0.15976306821106823 0.5214736687548942
vt 0.15976306821106823 0.5020397278778386
vt 0.28040129987129986 0.5020397278778386
vt 0.02875786872586873 0.8614595281910729
vt 0.055896743886743885 0.8563206930305403
vt 0.055896743886743885 0.9015424412685983
vt 0.024657750321750323 0.8974313723570869
vt 0.43979470785070784 0.9508752564604542
vt 0.24738202316602317 0.949847490211433
vt 0.2520678712998713 0.8892092364917776
vt 0.4761100386100386 0.8892092364917776
vt 0.2448478893178893 0.9245278465152702
vt 0.2448478893178893 0.9633957263116679
vt 0.0035714285714285713 0.9633957263116679
vt 0.0035714285714285713 0.9245278465152702
vt 0.05101565250965251 0.8545221006264683
vt 0.06097308108108108 0.755085646045419
vt 0.09904560617760617 0.7653633144087706
vt 0.09318829601029602 0.8586331695379796
vt 0.059730177606177604 0.8163601057165231
vt 0.07437345431145431 0.6782282223962413
vt 0.09774104761904762 0.7193389017227878
vt 0.07606899356499355 0.8482208829287392
vt 0.053858746460746454 0.6420924393108849
vt 0.07199739768339768 0.6383483437744715
vt 0.0462252277992278 0.8607129874706343
vt 0.025781678249678253 0.8528086550509005
vt 0.09026262805662805 0.71839886256852
vt 0.08529347747747748 0.8176274843382929
vt 0.06322093693693694 0.8176274843382929
vt 0.06322093693693694 0.715467445184025
vt 0.28040129987129986 0.5020397278778386
vt 0.15976306821106823 0.5020397278778386
vt 0.15976306821106823 0.4826057889584965
vt 0.28040129987129986 0.4826057889584965
vt 0.09709827541827543 0.7262104306969459
vt 0.09182669498069498 0.7750293617854346
vt 0.05375416988416988 0.764751693422083
vt 0.06488306048906049 0.640905771339076
vt 0.07913074646074647 0.6430590446358653
vt 0.10182783011583012 0.7273359357870008
vt 0.0895274749034749 0.8347375861393892
vt 0.055115770913770915 0.8573484612372748
vt 0.15976306821106823 0.5020397278778386
vt 0.09944395366795367 0.5020397278778386
vt 0.09944395366795367 0.4826057889584965
vt 0.15976306821106823 0.4826057889584965
vt 0.15976306821106823 0.5214736687548942
vt 0.09944395366795367 0.5214736687548942
vt 0.09944395366795367 0.5020397278778386
vt 0.15976306821106823 0.5020397278778386
vt 0.24738202316602317 0.949847490211433
vt 0.1353609395109395 0.949847490211433
vt 0.14004678764478765 0.8892092364917776
vt 0.2520678712998713 0.8892092364917776
vt 0.04874437837837838 0.8710524216914644
vt 0.30568511454311453 0.8669413547376664
vt 0.30392792020592024 0.9101075665622553
vt 0.047572916344916345 0.9111353347689898
vt 0.44677026769626765 0.7508642443226312
vt 0.3134707438867439 0.7553914565387627
vt 0.3122992818532818 0.6240453543461237
vt 0.43813641184041185 0.6208031519185591
vt 0.09944395366795367 0.49718124314800316
vt 0.09944395366795367 0.47774730422866096
vt 0.3407204144144144 0.47774730422866096
vt 0.3407204144144144 0.49718124314800316
vt 0.03912483912483913 0.4826057889584965
vt 0.09944395366795367 0.4826057889584965
vt 0.09944395366795367 0.5020397278778386
vt 0.03912483912483913 0.5020397278778386
vt 0.09944395366795367 0.4826057889584965
vt 0.15976306821106823 0.4826057889584965
vt 0.15976306821106823 0.5020397278778386
vt 0.09944395366795367 0.5020397278778386
vt 0.025682779922779925 0.8953758398590447
vt 0.14004678764478765 0.8892092364917776
vt 0.1353609395109395 0.949847490211433
vt 0.07195554182754182 0.9508752564604542
vt 0.47039916087516087 0.8799593343774471
vt 0.31400894208494207 0.8799593343774471
vt 0.31049455341055343 0.7576550626468285
vt 0.45927026769626766 0.7576550626468285
vt 0.0498021981981982 0.8517934808144088
vt 0.06916779407979408 0.6380604776820673
vt 0.09936210810810811 0.7229592619420517
vt 0.09075042985842986 0.8525994557556774
vt 0.20495991505791505 0.897283261550509
vt 0.3903980823680823 0.9059478680501174
vt 0.3871536808236808 0.9544819400939702
vt 0.20495991505791505 0.9522563429913861
vt 0.048350234234234235 0.8630053641346906
vt 0.06948004633204634 0.6299430227094753
vt 0.09750406177606177 0.7367514565387627
vt 0.08684315572715572 0.863329819890368
vn 1 0 0
vn -1 0 0
vn 0 1 0
vn 0 -1 0
vn 0 0 1
vn 0 0 -1
vn -1 0 0
vn 0 0 -1
vn 1 0 0
vn 0 0 1
vn -1 0 0
vn 1 0 0
vn 1 0 0
vn 0 1 0
vn -1 0 0
vn -1 0 0
vn 0 -1 0
vn 1 0 0
vn 1 0 0
vn 0 1 0
vn -1 0 0
vn 0 0 -1
vn 0 -1 0
vn 0 0 1
usemtl m_64333685-ebe1-3e68-6991-2153049ee970
f 56/203/54 71/204/54 70/205/54 65/206/54
f 64/207/55 67/208/55 72/209/55 60/210/55
f 60/211/56 72/212/56 71/213/56 56/214/56
f 58/215/57 69/216/57 68/217/57 62/218/57
f 59/219/58 63/220/58 66/221/58 55/222/58
f 56/223/59 65/224/59 64/225/59 60/226/59
f 62/227/60 68/228/60 67/229/60 64/230/60
f 62/231/61 64/232/61 65/233/61 58/234/61
f 65/235/62 70/236/62 69/237/62 58/238/62
f 57/239/63 66/240/63 63/241/63 61/242/63
f 79/243/64 81/244/64 80/245/64 82/246/64
f 70/247/65 76/248/65 75/249/65 69/250/65
f 71/251/66 77/252/66 76/253/66 70/254/66
f 72/255/67 78/256/67 77/257/67 71/258/67
f 67/259/68 73/260/68 78/261/68 72/262/68
f 63/263/69 73/264/69 74/265/69 61/266/69
f 61/267/70 74/268/70 75/269/70 57/270/70
f 57/271/71 75/272/71 76/273/71 66/274/71
f 66/275/72 76/276/72 77/277/72 55/278/72
f 55/279/73 77/280/73 78/281/73 59/282/73
f 59/283/74 78/284/74 73/285/74 63/286/74
f 80/287/75 81/288/75 74/289/75 73/290/75
f 82/291/76 80/292/76 73/293/76 67/294/76
f 79/295/77 82/296/77 67/297/77 68/298/77
o sphere_selection_selection
v 0.6340011168479637 2.9375 -0.13903565605868118
v 0.2393249153321516 2.9375 -1.3907890069971023
v 0.6340011168479637 2 -0.13903565605868118
v 0.2393249153321516 2 -1.3907890069971023
v 0.4951602041250078 3.125 0.06857338236666577
v 0.00651330289654134 3.125 -1.481216641554762
v 0.4951602041250078 2 0.06857338236666577
v 0.00651330289654134 2 -1.481216641554762
v 0.49240127843389603 2 -0.48758795978788916
v 0.36424533593121233 2 -0.44718036998413013
v 0.3232542032704522 2 -1.0240538022597496
v 0.1950982607677685 2 -0.9836462124559905
v 0.49240127843389603 1.6875000000000002 -0.48758795978788916
v 0.36424533593121233 1.6875000000000002 -0.44718036998413013
v 0.3232542032704522 1.6875000000000002 -1.0240538022597496
v 0.1950982607677685 1.6875000000000002 -0.9836462124559905
v 0.8349875208456204 1.5000000000000002 -0.07134054471748508
v 0.32236459532264544 1.5000000000000002 0.09028889290087982
v 0.36513494387901907 1.5000000000000002 -1.5615230651447596
v -0.14748798164395593 1.5000000000000002 -1.3998936275263945
vt 0.8260885250965251 0.9557996084573218
vt 0.6298633204633204 0.9557996084573218
vt 0.6298633204633204 0.9321575391542678
vt 0.8260885250965251 0.9321575391542678
vt 0.9796814671814672 0.38633411119812056
vt 0.9796814671814672 0.9629950215348473
vt 0.5048865534105534 0.9629950215348473
vt 0.5048865534105534 0.38633411119812056
vt 0.7907227001287002 0.380645555990603
vt 0.9735158223938225 0.380645555990603
vt 0.9735158223938225 0.4114830383711825
vt 0.7907227001287002 0.4114830383711825
vt 0.4949584942084942 0.9845812588097103
vt 0.4949584942084942 0.997944167971809
vt 0.4902864658944659 0.997944167971809
vt 0.4902864658944659 0.9845812588097103
vt 0.5224066615186616 0.6422852114330462
vt 0.5224066615186616 0.8324496828504306
vt 0.5031345431145431 0.8324496828504306
vt 0.5031345431145431 0.6422852114330462
vt 0.521822658944659 0.8982363097102584
vt 0.5031345431145431 0.8982363097102584
vt 0.5031345431145431 0.5641635904463587
vt 0.521822658944659 0.5641635904463587
vt 0.4961264993564994 0.9933185454189507
vt 0.4961264993564994 0.979955636256852
vt 0.4984625148005148 0.9732741816758027
vt 0.4984625148005148 1
vt 0.5248886769626769 0.9847525822239624
vt 0.5987651299871299 0.9847525822239624
vt 0.6357033564993565 1
vt 0.48795045045045043 1
vt 0.4902864658944659 0.979955636256852
vt 0.4902864658944659 0.9933185454189507
vt 0.48795045045045043 1
vt 0.48795045045045043 0.9732741816758027
vt 0.601685148005148 1
vt 0.5278086949806949 1
vt 0.4908704684684685 0.9847525822239624
vt 0.6386233745173745 0.9847525822239624
vt 0.5455168854568854 0.9349219949099452
vt 0.9035110810810811 0.9349219949099452
vt 0.9035110810810811 0.9708990563821457
vt 0.5455168854568854 0.9708990563821457
vt 0.5398481287001287 0.9414569107282694
vt 0.9334665431145431 0.9414569107282694
vt 0.9334665431145431 0.97435022513704
vt 0.5398481287001287 0.97435022513704
vt 0.726280084942085 0.35241288175411123
vt 0.7589842857142857 0.35241288175411123
vt 0.7589842857142857 0.38633411119812056
vt 0.726280084942085 0.38633411119812056
vt 0.6173493256113256 0.9461437705559906
vt 0.852118767052767 0.9461437705559906
vt 0.852118767052767 0.9728695888801879
vt 0.6173493256113256 0.9728695888801879
vt 0.5194866435006434 0.9441360649960846
vt 0.7069517940797941 0.9441360649960846
vt 0.7069517940797941 0.9749735473766641
vt 0.5194866435006434 0.9749735473766641
vt 0.5457668056628057 0.3917673786217698
vt 0.7104558146718147 0.3917673786217698
vt 0.7104558146718147 0.41305992952231796
vt 0.5457668056628057 0.41305992952231796
vt 0.59891112998713 0.3917820673453406
vt 0.6942789163449163 0.3886983183241973
vt 0.7001189523809523 0.42128325763508223
vt 0.6117592097812098 0.42128325763508223
vt 0.5913190836550837 0.3945574393108848
vt 0.6573114903474903 0.3945574393108848
vt 0.6573114903474903 0.4240733202819108
vt 0.5913190836550837 0.4240733202819108
vn 0.9537169756600792 0 -0.3007057204939612
vn -0.9537169536303499 0 0.30070579036334705
vn 0.6613041035273265 0.7205561477265413 -0.20850832269098055
vn 0 -1 0
vn 0.8312457698450689 0 0.5559050909235126
vn 0.36206291298718607 0 -0.9321536606371471
vn 0 -1 0
vn 0 -1 0
vn 0 -1 0
vn 0 -1 0
vn 0.9537169279289998 0 -0.30070587187760617
vn 0.30070699316991617 0 0.9537165743860743
vn -0.9537169279289998 0 0.30070587187760617
vn -0.30070699316991634 0 -0.953716574386074
vn 0.6495804898670514 0.7321866466374282 -0.20481186896740042
vn 0.10558490287207217 0.9363291552390164 0.3348724254621234
vn -0.6495804898670514 0.7321866466374282 0.20481186896740042
vn -0.10558490287207217 0.9363291552390164 -0.3348724254621234
usemtl m_64333685-ebe1-3e68-6991-2153049ee970
f 84/299/78 83/300/78 85/301/78 86/302/78
f 89/303/79 87/304/79 88/305/79 90/306/79
f 87/307/80 83/308/80 84/309/80 88/310/80
f 101/311/81 99/312/81 100/313/81 102/314/81
f 85/315/82 83/316/82 87/317/82 89/318/82
f 88/319/83 84/320/83 86/321/83 90/322/83
f 91/323/84 93/324/84 86/325/84 85/326/84
f 92/327/85 91/328/85 85/329/85 89/330/85
f 94/331/86 92/332/86 89/333/86 90/334/86
f 93/335/87 94/336/87 90/337/87 86/338/87
f 95/339/88 97/340/88 93/341/88 91/342/88
f 96/343/89 95/344/89 91/345/89 92/346/89
f 98/347/90 96/348/90 92/349/90 94/350/90
f 97/351/91 98/352/91 94/353/91 93/354/91
f 99/355/92 101/356/92 97/357/92 95/358/92
f 100/359/93 99/360/93 95/361/93 96/362/93
f 102/363/94 100/364/94 96/365/94 98/366/94
f 101/367/95 102/368/95 98/369/95 97/370/95