# Made in Blockbench 5.0.2
mtllib door_IHC.mtl

o cuboid
v 0.96875 3.825 0.0625
v 0.96875 3.825 -0.25
v 0.96875 0.02499999999999991 0.0625
v 0.96875 0.02499999999999991 -0.25
v -0.90625 3.825 0.0625
v -0.90625 3.825 -0.25
v -0.90625 0.02499999999999991 0.0625
v -0.90625 0.02499999999999991 -0.25
vt 0.149437729369929 1
vt 0.12698412698412698 1
vt 0.12698412698412698 0.9985273652903058
vt 0.149437729369929 0.9985273652903058
vt 0.149437729369929 0.9985273652903058
vt 0.149437729369929 1
vt 0.12698412698412698 1
vt 0.12698412698412698 0.9985273652903058
vt 0.12698412698412698 0.9970547305806117
vt 0.149437729369929 0.9970547305806117
vt 0.149437729369929 1
vt 0.12698412698412698 1
vt 0.149437729369929 0.9970547305806117
vt 0.149437729369929 1
vt 0.12698412698412698 1
vt 0.12698412698412698 0.9970547305806117
vt 0.9193897191727768 0.040412740808188685
vt 0.9213735515873017 0.985416234288658
vt 0.012630151342013637 0.985416234288658
vt 0.028953455893422544 0.03939075630252109
vt 0.149437729369929 1
vt 0.12698412698412698 1
vt 0.12698412698412698 0.9985273652903058
vt 0.149437729369929 0.9985273652903058
vn 1 0 0
vn -1 0 0
vn 0 1 0
vn 0 -1 0
vn 0 0 1
vn 0 0 -1
usemtl m_080e357b-24b8-a780-e7e2-4b58e4d7ae8d
f 2/1/1 1/2/1 3/3/1 4/4/1
f 7/5/2 5/6/2 6/7/2 8/8/2
f 5/9/3 1/10/3 2/11/3 6/12/3
f 4/13/4 3/14/4 7/15/4 8/16/4
f 3/17/5 1/18/5 5/19/5 7/20/5
f 6/21/6 2/22/6 4/23/6 8/24/6