# Made in Blockbench 5.0.2
mtllib lamp.mtl

o sphere
v -0.00013702486145904377 -0.3749999999999997 0.000618079207795773
v -0.00013702486145904377 -0.12499999999999975 0.000618079207795773
v -0.011372842999223361 -0.14174687499999974 0.06433985109967517
v -0.019598182129225875 -0.18749999999999975 0.11098730032096378
v -0.02260866113698768 -0.24999999999999972 0.12806162299155457
v -0.019598182129225875 -0.3124999999999997 0.11098730032096378
v -0.011372842999223361 -0.35825312499999973 0.06433985109967517
v 0.021993282450597236 -0.14174687499999974 0.06142059883326194
v 0.03819385848847848 -0.18749999999999975 0.10593131567949828
v 0.04412358976265353 -0.24999999999999972 0.1222231184587281
v 0.03819385848847848 -0.3124999999999997 0.10593131567949828
v 0.021993282450597236 -0.35825312499999973 0.06142059883326194
v 0.049429676626242806 -0.14174687499999974 0.04220954378761889
v 0.08571505434247664 -0.18749999999999975 0.07265641697102626
v 0.09899637811394464 -0.24999999999999972 0.083801008367442
v 0.08571505434247664 -0.3124999999999997 0.07265641697102626
v 0.049429676626242806 -0.35825312499999973 0.04220954378761889
v 0.06358474703042036 -0.14174687499999974 0.011853897345560091
v 0.11023219625170896 -0.18749999999999975 0.020079236475562597
v 0.12730651892229974 -0.24999999999999972 0.02308971548332441
v 0.11023219625170896 -0.3124999999999997 0.020079236475562597
v 0.06358474703042036 -0.35825312499999973 0.011853897345560091
v 0.060665494764007115 -0.14174687499999974 -0.021512228104260515
v 0.10517621161024346 -0.18749999999999975 -0.037712804142141745
v 0.12146801438947329 -0.24999999999999972 -0.0436425354163168
v 0.10517621161024346 -0.3124999999999997 -0.037712804142141745
v 0.060665494764007115 -0.35825312499999973 -0.021512228104260515
v 0.04145443971836407 -0.14174687499999974 -0.048948622279906075
v 0.07190131290177144 -0.18749999999999975 -0.08523399999613991
v 0.08304590429818717 -0.24999999999999972 -0.09851532376760791
v 0.07190131290177144 -0.3124999999999997 -0.08523399999613991
v 0.04145443971836407 -0.35825312499999973 -0.048948622279906075
v 0.011098793276305275 -0.14174687499999974 -0.06310369268408363
v 0.019324132406307787 -0.18749999999999975 -0.10975114190537223
v 0.022334611414069595 -0.24999999999999972 -0.12682546457596303
v 0.019324132406307787 -0.3124999999999997 -0.10975114190537223
v 0.011098793276305275 -0.35825312499999973 -0.06310369268408363
v -0.022267332173515328 -0.14174687499999974 -0.06018444041767039
v -0.038467908211396576 -0.18749999999999975 -0.10469515726390673
v -0.04439763948557161 -0.24999999999999972 -0.12098696004313655
v -0.038467908211396576 -0.3124999999999997 -0.10469515726390673
v -0.022267332173515328 -0.35825312499999973 -0.06018444041767039
v -0.049703726349160884 -0.14174687499999974 -0.04097338537202734
v -0.08598910406539473 -0.18749999999999975 -0.07142025855543471
v -0.09927042783686273 -0.24999999999999972 -0.08256484995185046
v -0.08598910406539473 -0.3124999999999997 -0.07142025855543471
v -0.049703726349160884 -0.35825312499999973 -0.04097338537202734
v -0.06385879675333844 -0.14174687499999974 -0.010617738929968546
v -0.11050624597462705 -0.18749999999999975 -0.018843078059971055
v -0.12758056864521783 -0.24999999999999972 -0.02185355706773286
v -0.11050624597462705 -0.3124999999999997 -0.018843078059971055
v -0.06385879675333844 -0.35825312499999973 -0.010617738929968546
v -0.06093954448692521 -0.14174687499999974 0.02274838651985206
v -0.10545026133316156 -0.18749999999999975 0.038948962557733294
v -0.12174206411239137 -0.24999999999999972 0.044878693831908345
v -0.10545026133316156 -0.3124999999999997 0.038948962557733294
v -0.06093954448692521 -0.35825312499999973 0.02274838651985206
v -0.04172848944128216 -0.14174687499999974 0.050184780695497616
v -0.07217536262468953 -0.18749999999999975 0.08647015841173146
v -0.08331995402110526 -0.24999999999999972 0.09975148218319946
v -0.07217536262468953 -0.3124999999999997 0.08647015841173146
v -0.04172848944128216 -0.35825312499999973 0.050184780695497616
v -0.00013702486145904377 -0.18749999999999975 0.000618079207795773
v -0.011372842999223361 -0.19374999999999976 0.06433985109967517
v -0.011372842999223361 -0.056249999999999745 0.06433985109967517
v 0.021993282450597236 -0.19374999999999976 0.06142059883326194
v 0.021993282450597236 -0.056249999999999745 0.06142059883326194
v 0.049429676626242806 -0.19374999999999976 0.04220954378761889
v 0.049429676626242806 -0.056249999999999745 0.04220954378761889
v 0.06358474703042036 -0.19374999999999976 0.011853897345560091
v 0.06358474703042036 -0.056249999999999745 0.011853897345560091
v 0.060665494764007115 -0.19374999999999976 -0.021512228104260515
v 0.060665494764007115 -0.056249999999999745 -0.021512228104260515
v 0.04145443971836407 -0.19374999999999976 -0.048948622279906075
v 0.04145443971836407 -0.056249999999999745 -0.048948622279906075
v 0.011098793276305275 -0.19374999999999976 -0.06310369268408363
v 0.011098793276305275 -0.056249999999999745 -0.06310369268408363
v -0.022267332173515328 -0.19374999999999976 -0.06018444041767039
v -0.022267332173515328 -0.056249999999999745 -0.06018444041767039
v -0.049703726349160884 -0.19374999999999976 -0.04097338537202734
v -0.049703726349160884 -0.056249999999999745 -0.04097338537202734
v -0.06385879675333844 -0.19374999999999976 -0.010617738929968546
v -0.06385879675333844 -0.056249999999999745 -0.010617738929968546
v -0.06093954448692521 -0.19374999999999976 0.02274838651985206
v -0.06093954448692521 -0.056249999999999745 0.02274838651985206
v -0.04172848944128216 -0.19374999999999976 0.050184780695497616
v -0.04172848944128216 -0.056249999999999745 0.050184780695497616
v -0.12758056864521783 2.5673907444456745e-16 -0.02185355706773286
v -0.12174206411239137 2.5673907444456745e-16 0.044878693831908345
v -0.08331995402110526 2.5673907444456745e-16 0.09975148218319946
v -0.02260866113698768 2.5673907444456745e-16 0.12806162299155457
v 0.04412358976265353 2.5673907444456745e-16 0.1222231184587281
v 0.09899637811394464 2.5673907444456745e-16 0.083801008367442
v 0.12730651892229974 2.5673907444456745e-16 0.02308971548332441
v 0.12146801438947329 2.5673907444456745e-16 -0.0436425354163168
v 0.08304590429818717 2.5673907444456745e-16 -0.09851532376760791
v 0.022334611414069595 2.5673907444456745e-16 -0.12682546457596303
v -0.04439763948557161 2.5673907444456745e-16 -0.12098696004313655
v -0.09927042783686273 2.5673907444456745e-16 -0.08256484995185046
v -0.12758056864521783 0.06250000000000025 -0.02185355706773286
v -0.12174206411239137 0.06250000000000025 0.044878693831908345
v -0.00013702486145904377 0.06250000000000025 0.000618079207795773
v -0.08331995402110526 0.06250000000000025 0.09975148218319946
v -0.02260866113698768 0.06250000000000025 0.12806162299155457
v 0.04412358976265353 0.06250000000000025 0.1222231184587281
v 0.09899637811394464 0.06250000000000025 0.083801008367442
v 0.12730651892229974 0.06250000000000025 0.02308971548332441
v 0.12146801438947329 0.06250000000000025 -0.0436425354163168
v 0.08304590429818717 0.06250000000000025 -0.09851532376760791
v 0.022334611414069595 0.06250000000000025 -0.12682546457596303
v -0.04439763948557161 0.06250000000000025 -0.12098696004313655
v -0.09927042783686273 0.06250000000000025 -0.08256484995185046
v -0.00013702486145904377 2.5673907444456745e-16 0.000618079207795773
v -0.00013702486145904377 0.2500000000000002 0.000618079207795773
v -0.007738603782911704 0.23325312500000026 0.046639209696045965
v -0.01330290521845261 0.18750000000000025 0.08032911618945193
v -0.06094852334834654 0.12500000000000025 0.3687876513866245
v -0.052801943310580704 0.06250000000000025 0.31946226530396016
v -0.03054277410490279 0.016746875000000255 0.18470286529721014
v 0.017065125313360692 0.23325312500000026 0.044924156436128106
v 0.02965757054514118 0.18750000000000025 0.07735855425922804
v 0.13747877951595153 0.12500000000000025 0.3550667352039942
v 0.11904218734372232 0.06250000000000025 0.3075796771075715
v 0.06867074525903942 0.016746875000000255 0.1778426904270784
v 0.03725914946659384 0.23325312500000026 0.03133742377097784
v 0.06463530601999375 0.18750000000000025 0.05382527391113662
v 0.2990326338993776 0.12500000000000025 0.24637226927088535
v 0.2589514680855716 0.06250000000000025 0.21344716032711247
v 0.1494479365871661 0.016746875000000255 0.12349489101815711
v 0.047433155845174005 0.23325312500000026 0.009519196682804282
v 0.08225690271609938 0.18750000000000025 0.016035637845909705
v 0.3804241566551917 0.12500000000000025 0.07182758545023075
v 0.3294383831428213 0.06250000000000025 0.062287483181470996
v 0.19014343382865956 0.016746875000000255 0.036223115550196715
v 0.04486072838804649 0.23325312500000026 -0.014683706717272359
v 0.07780118637698731 0.18750000000000025 -0.025885763070519544
v 0.3598441323862651 0.12500000000000025 -0.12179730290794337
v 0.3116161223982796 0.06250000000000025 -0.10539645932668501
v 0.1798536858306098 0.016746875000000255 -0.06058989507125724
v 0.030231005670354263 0.23325312500000026 -0.03478688054552805
v 0.05246230730949916 0.18750000000000025 -0.060704837205522555
v 0.2428083522777812 0.12500000000000025 -0.28262107054596763
v 0.2102594350740536 0.06250000000000025 -0.24467468116067162
v 0.12133566370816108 0.016746875000000255 -0.14100149566908593
v 0.007464554059993618 0.23325312500000026 -0.04540305128045442
v 0.013028855495534519 0.18750000000000025 -0.07909295777386038
v 0.06067447362542844 0.12500000000000025 -0.36755149297103296
v 0.05252789358766262 0.06250000000000025 -0.3182261068883686
v 0.030268724381984705 0.016746875000000255 -0.1834667068816186
v -0.017339175036278784 0.23325312500000026 -0.04368799802053656
v -0.029931620268059272 0.18750000000000025 -0.07612239584363649
v -0.13775282923886958 0.12500000000000025 -0.35383057678840263
v -0.11931623706664043 0.06250000000000025 -0.30634351869197995
v -0.06894479498195753 0.016746875000000255 -0.17660653201148688
v -0.03753319918951193 0.23325312500000026 -0.030101265355386292
v -0.06490935574291185 0.18750000000000025 -0.05258911549554507
v -0.29930668362229573 0.12500000000000025 -0.24513611085529385
v -0.25922551780848974 0.06250000000000025 -0.21221100191152092
v -0.14972198631008418 0.016746875000000255 -0.12225873260256556
v -0.0477072055680921 0.23325312500000026 -0.008283038267212738
v -0.08253095243901748 0.18750000000000025 -0.014799479430318157
v -0.3806982063781098 0.12500000000000025 -0.07059142703463923
v -0.3297124328657394 0.06250000000000025 -0.06105132476587945
v -0.19041748355157764 0.016746875000000255 -0.034986957134605166
v -0.045134778110964585 0.23325312500000026 0.015919865132863906
v -0.0780752360999054 0.18750000000000025 0.02712192148611109
v -0.3601181821091832 0.12500000000000025 0.12303346132353492
v -0.31189017212119774 0.06250000000000025 0.10663261774227656
v -0.1801277355535279 0.016746875000000255 0.061826053486848775
v -0.03050505539327235 0.23325312500000026 0.036023038961119594
v -0.05273635703241725 0.18750000000000025 0.0619409956211141
v -0.2430824020006993 0.12500000000000025 0.2838572289615592
v -0.21053348479697165 0.06250000000000025 0.24591083957626317
v -0.12160971343107917 0.016746875000000255 0.14223765408467748
v -0.00013702486145904377 0.18750000000000025 0.000618079207795773
v -0.007738603782911704 0.18125000000000024 0.046639209696045965
v -0.007738603782911704 0.31875000000000026 0.046639209696045965
v 0.017065125313360692 0.18125000000000024 0.044924156436128106
v 0.017065125313360692 0.31875000000000026 0.044924156436128106
v 0.03725914946659384 0.18125000000000024 0.03133742377097784
v 0.03725914946659384 0.31875000000000026 0.03133742377097784
v 0.047433155845174005 0.18125000000000024 0.009519196682804282
v 0.047433155845174005 0.31875000000000026 0.009519196682804282
v 0.04486072838804649 0.18125000000000024 -0.014683706717272359
v 0.04486072838804649 0.31875000000000026 -0.014683706717272359
v 0.030231005670354263 0.18125000000000024 -0.03478688054552805
v 0.030231005670354263 0.31875000000000026 -0.03478688054552805
v 0.007464554059993618 0.18125000000000024 -0.04540305128045442
v 0.007464554059993618 0.31875000000000026 -0.04540305128045442
v -0.017339175036278784 0.18125000000000024 -0.04368799802053656
v -0.017339175036278784 0.31875000000000026 -0.04368799802053656
v -0.03753319918951193 0.18125000000000024 -0.030101265355386292
v -0.03753319918951193 0.31875000000000026 -0.030101265355386292
v -0.0477072055680921 0.18125000000000024 -0.008283038267212738
v -0.0477072055680921 0.31875000000000026 -0.008283038267212738
v -0.045134778110964585 0.18125000000000024 0.015919865132863906
v -0.045134778110964585 0.31875000000000026 0.015919865132863906
v -0.03050505539327235 0.18125000000000024 0.036023038961119594
v -0.03050505539327235 0.31875000000000026 0.036023038961119594
v -0.09527738627472514 0.3750000000000003 -0.017184155742221242
v -0.09013253136047014 0.3750000000000003 0.03122165105793203
v -0.060873085925085654 0.3750000000000003 0.07142799871444341
v -0.015340182704364366 0.3750000000000003 0.09266034018429616
v 0.03426727548818044 0.3750000000000003 0.08923023366446044
v 0.07465532379464673 0.3750000000000003 0.0620567683341599
v 0.09500333655180707 0.3750000000000003 0.01842031415781279
v 0.08985848163755204 0.3750000000000003 -0.029985492642340485
v 0.06059903620216757 0.3750000000000003 -0.07019184029885188
v 0.015066132981446278 0.3750000000000003 -0.09142418176870462
v -0.03454132521109853 0.3750000000000003 -0.0879940752488689
v -0.0749293735175648 0.3750000000000003 -0.06082060991856835
v -0.09527738627472514 0.4375000000000003 -0.017184155742221242
v -0.09013253136047014 0.4375000000000003 0.03122165105793203
v -0.00013702486145904377 0.4375000000000003 0.000618079207795773
v -0.060873085925085654 0.4375000000000003 0.07142799871444341
v -0.015340182704364366 0.4375000000000003 0.09266034018429616
v 0.03426727548818044 0.4375000000000003 0.08923023366446044
v 0.07465532379464673 0.4375000000000003 0.0620567683341599
v 0.09500333655180707 0.4375000000000003 0.01842031415781279
v 0.08985848163755204 0.4375000000000003 -0.029985492642340485
v 0.06059903620216757 0.4375000000000003 -0.07019184029885188
v 0.015066132981446278 0.4375000000000003 -0.09142418176870462
v -0.03454132521109853 0.4375000000000003 -0.0879940752488689
v -0.0749293735175648 0.4375000000000003 -0.06082060991856835
vt 0.4721782131071534 0.7214631055144028
vt 0.46609501887116733 0.7172149902880656
vt 0.4773314711465517 0.7075689274074073
vt 0.49153485244083006 0.6653058699588479
vt 0.49082342357376035 0.6507185491358027
vt 0.5035451444798013 0.6524944414814817
vt 0.4988798261768877 0.6663312388477365
vt 0.49082342357376035 0.6507185491358027
vt 0.4918170161171416 0.6363692059259266
vt 0.5065069635892573 0.6384198051028805
vt 0.5035451444798013 0.6524944414814817
vt 0.4918170161171416 0.6363692059259266
vt 0.4947788352266076 0.6222945695473253
vt 0.5075005561326388 0.624070461893004
vt 0.5065069635892573 0.6384198051028805
vt 0.5370418060776356 0.48120701530864174
vt 0.5343279699539346 0.4668573948971193
vt 0.5412299785463592 0.4641405415637865
vt 0.5489963296214895 0.4765011015637858
vt 0.4684779700999466 0.6838207223045267
vt 0.47529694867481365 0.6809012345679009
vt 0.4775193854779667 0.6955550837860085
vt 0.46609501887116733 0.7172149902880656
vt 0.46283346139834647 0.7105442712757197
vt 0.4773302256962851 0.7075700362139914
vt 0.5766370224647128 0.7778641975308642
vt 0.5688698410894112 0.7655054393415635
vt 0.5808242262498872 0.7607993869958848
vt 0.5835390310571278 0.7751470669958844
vt 0.22604983090078448 0.4881938827983542
vt 0.22704342344415612 0.4738445395884773
vt 0.2417333709162815 0.4758951387654323
vt 0.23877169019017447 0.4899697751440335
vt 0.22704342344415612 0.4738445395884773
vt 0.23000524255362195 0.459769903209877
vt 0.2427269634596435 0.4615457955555554
vt 0.2417333709162815 0.4758951387654323
vt 0.23000524255362195 0.459769903209877
vt 0.23467194469016067 0.44593324444444427
vt 0.24201691842621853 0.44695861333333364
vt 0.2427269634596435 0.4615457955555554
vt 0.4591772243004515 0.69506998090535
vt 0.460585275014769 0.6877774986008233
vt 0.47394757250621333 0.6941477310288069
vt 0.46283346139834647 0.7105442712757197
vt 0.46321290857856423 0.7031277412345676
vt 0.4773298105461995 0.7075700362139914
vt 0.5835393078238548 0.7751487302057611
vt 0.5808242262498872 0.7607993869958848
vt 0.5936689699652609 0.7607993869958848
vt 0.5909538883913028 0.7751487302057611
vt 0.24717183706595944 0.49348607802469124
vt 0.24229852856907622 0.47995586567901205
vt 0.25656516133504015 0.4758937527572017
vt 0.25952711882785484 0.48996825053497917
vt 0.2417333709162815 0.4758951387654323
vt 0.2427269634596435 0.4615457955555554
vt 0.25557170717502703 0.4615457955555554
vt 0.25656529971838904 0.4758951387654323
vt 0.2427269634596435 0.46154607275720194
vt 0.24201691842621853 0.44695861333333364
vt 0.24922599970020085 0.4452222222222224
vt 0.2552156467830714 0.4585380190946503
vt 0.4614777093201052 0.7021297524279835
vt 0.4591772243004515 0.69506998090535
vt 0.473947295739496 0.6941477310288069
vt 0.46321290857856423 0.7031277412345676
vt 0.46713732235819067 0.6968254232098765
vt 0.4773298105461995 0.7075700362139914
vt 0.46321290857856423 0.7031277412345676
vt 0.4496197876383131 0.6978413672427981
vt 0.4564171784086195 0.686925582222222
vt 0.46713732235819067 0.6968254232098765
vt 0.25952711882785484 0.48996825053497917
vt 0.25656516133504015 0.4758937527572017
vt 0.2712551088071461 0.4738430149794238
vt 0.27224883973388614 0.48819235818930073
vt 0.25656516133504015 0.4758937527572017
vt 0.25557170717502703 0.4615457955555554
vt 0.2682934280810488 0.45976976460905417
vt 0.2712551088071461 0.4738430149794238
vt 0.4497349123210115 0.7107884230452676
vt 0.4614777093201052 0.7021297524279835
vt 0.46690953306838356 0.7071867420576132
vt 0.45914304360987523 0.7195471634567899
vt 0.46690953306838356 0.7071867420576132
vt 0.4614777093201052 0.7021297524279835
vt 0.473947295739496 0.6941477310288069
vt 0.46713732235819067 0.6968254232098765
vt 0.4736222434957583 0.6932220790123456
vt 0.47733077922973904 0.7075710064197531
vt 0.31770044002566955 0.5138098097119341
vt 0.3130352601061148 0.49997439835390933
vt 0.3257569810121363 0.4981985060082309
vt 0.3250454137617177 0.5127844408230455
vt 0.3130352601061148 0.49997439835390933
vt 0.31007344099665873 0.48589976197530904
vt 0.32476338846877434 0.48384916279835377
vt 0.3257569810121363 0.4981985060082309
vt 0.31007344099665873 0.48589976197530904
vt 0.30907984845327735 0.47155041876543213
vt 0.3218015693593086 0.4697745264197538
vt 0.32476338846877434 0.48384916279835377
vt 0.45914304360987523 0.7195471634567899
vt 0.46690953306838356 0.7071867420576132
vt 0.47381140327743015 0.7099037339917696
vt 0.47109742877038013 0.7242533544032921
vt 0.47381140327743015 0.7099037339917696
vt 0.46690953306838356 0.7071867420576132
vt 0.4756020839893115 0.6951907022222222
vt 0.4736222434957583 0.6932220790123456
vt 0.48103820789681206 0.6932220790123456
vt 0.47733091761310753 0.7075714222222219
vt 0.3321014430366862 0.514522633744856
vt 0.3261130414040824 0.5012065596707825
vt 0.3386017247275199 0.4981985060082309
vt 0.3393117697609547 0.512785965432099
vt 0.3257569810121363 0.4981985060082309
vt 0.32476338846877434 0.48384916279835377
vt 0.3395953172709013 0.48384916279835377
vt 0.3386017247275199 0.4981985060082309
vt 0.3253286845049373 0.479787188477366
vt 0.3302018546184619 0.4662568375308642
vt 0.3425571363803573 0.4697745264197538
vt 0.3395953172709013 0.48384916279835377
vt 0.47109770553709746 0.7242516911934155
vt 0.47381140327743015 0.7099037339917696
vt 0.48122736767851315 0.7099037339917696
vt 0.4839424492524712 0.7242516911934155
vt 0.48122736767851315 0.7099037339917696
vt 0.47381140327743015 0.7099037339917696
vt 0.47752007739478913 0.6955543907818933
vt 0.48103820789681206 0.6932220790123456
vt 0.48752299065103055 0.6968254232098765
vt 0.47733077922973904 0.7075716994238679
vt 0.3393117697609547 0.5127856882304523
vt 0.3386017247275199 0.4981985060082309
vt 0.35132344563356094 0.49997439835390933
vt 0.3466567434970027 0.513810918518518
vt 0.3386017247275199 0.4981985060082309
vt 0.3395953172709013 0.48384916279835377
vt 0.3542852647430169 0.48589976197530904
vt 0.35132344563356094 0.49997439835390933
vt 0.3395953172709013 0.48384916279835377
vt 0.3425571363803573 0.4697745264197538
vt 0.3552788572863983 0.47155041876543213
vt 0.3542852647430169 0.48589976197530904
vt 0.48580481254617097 0.7237700533333333
vt 0.48122736767851315 0.7099037339917696
vt 0.48771228881607115 0.7063003897942386
vt 0.49703683655395253 0.7175288582716046
vt 0.48771228881607115 0.7063003897942386
vt 0.48122736767851315 0.7099037339917696
vt 0.47752007739478913 0.6955541135802472
vt 0.48752299065103055 0.6968254232098765
vt 0.4914482347308284 0.7031271868312756
vt 0.4773305024630122 0.7075719766255144
vt 0.48752299065103055 0.6968254232098765
vt 0.4982420275336938 0.6869243348148149
vt 0.5050406637542573 0.6978394268312755
vt 0.4914482347308284 0.7031271868312756
vt 0.16081342287649653 0.4861159792592591
vt 0.15785174215039915 0.4720414814814816
vt 0.17254168962252453 0.46999088230452735
vt 0.1735352821658962 0.48434022551440314
vt 0.15785174215039915 0.4720414814814816
vt 0.15685814960702746 0.45769213827160593
vt 0.16957987051305876 0.45591624592592606
vt 0.17254168962252453 0.46999088230452735
vt 0.4984303570152042 0.716200507983539
vt 0.48771228881607115 0.7063003897942386
vt 0.49163739451251026 0.6999984875720163
vt 0.5052288548523994 0.705285277366255
vt 0.49163739451251026 0.6999984875720163
vt 0.48771228881607115 0.7063003897942386
vt 0.47752076931159204 0.695554806584362
vt 0.4914482347308284 0.7031271868312756
vt 0.4918287889779348 0.7105437168724278
vt 0.4773305024630122 0.7075719766255144
vt 0.17988098964072244 0.5006625514403298
vt 0.17389134255784225 0.4873467545679018
vt 0.1863800258812798 0.4843388395061726
vt 0.18709007091470478 0.4989261603292182
vt 0.1735352821658962 0.48434022551440314
vt 0.17254168962252453 0.46999088230452735
vt 0.18737361842464179 0.46999088230452735
vt 0.1863800258812798 0.48434022551440314
vt 0.17310698565869725 0.4659287693827159
vt 0.17798015577221213 0.452398418436214
vt 0.19033543753409782 0.45591624592592606
vt 0.18737361842464179 0.46999088230452735
vt 0.1527777777777778 0.66698353909465
vt 0.15549285935174567 0.6531234567901232
vt 0.1629074399191741 0.6531234567901232
vt 0.165622521493142 0.66698353909465
vt 0.4920173952261722 0.6925819575308642
vt 0.49163739451251026 0.6999984875720163
vt 0.47752076931159204 0.695554806584362
vt 0.4918287889779348 0.7105437168724278
vt 0.4885686153387393 0.7172151288888888
vt 0.4773302256962851 0.707571838024691
vt 0.18709007091470478 0.4989258831275716
vt 0.1863800258812798 0.4843388395061726
vt 0.19910188517066973 0.4861147318518524
vt 0.19443504465076258 0.4999512520164612
vt 0.1863800258812798 0.4843388395061726
vt 0.18737361842464179 0.46999088230452735
vt 0.20206356589675742 0.4720414814814816
vt 0.19910188517066973 0.4861147318518524
vt 0.18737361842464179 0.46999088230452735
vt 0.19033543753409782 0.45591624592592606
vt 0.2030571584401388 0.45769213827160593
vt 0.20206356589675742 0.4720414814814816
vt 0.5028357913631695 0.46773945053498
vt 0.5145792802790662 0.4590823045267498
vt 0.5200101353438243 0.46414040296296366
vt 0.5122421236683322 0.4765002699588482
vt 0.48875639128679566 0.6859109613168722
vt 0.4920173952261722 0.6925819575308642
vt 0.47752035416150646 0.6955549451851852
vt 0.4885686153387393 0.7172151288888888
vt 0.48248680493637824 0.7214653231275721
vt 0.4773302256962851 0.707571838024691
vt 0.46992366108891326 0.6663311002469137
vt 0.46525695895237434 0.6524944414814817
vt 0.4779786798583959 0.6507185491358027
vt 0.4772686348249613 0.665305731358025
vt 0.46525695895237434 0.6524944414814817
vt 0.46229513984289894 0.6384198051028805
vt 0.47698508731501466 0.6363692059259266
vt 0.4779786798583959 0.6507185491358027
vt 0.46229513984289894 0.6384198051028805
vt 0.46130154729952744 0.624070461893004
vt 0.47402326820555857 0.6222945695473253
vt 0.47698508731501466 0.6363692059259266
vt 0.5122428155851544 0.4764990225514404
vt 0.5200101353438243 0.46414040296296366
vt 0.5269120055528808 0.4668573948971193
vt 0.52419720074563 0.4812052134979429
vt 0.4826740273509905 0.6816615986831278
vt 0.48875639128679566 0.6859109613168722
vt 0.4775193854779667 0.6955557767901237
vt 0.47955543016669855 0.7222222222222223
vt 0.4721782131071534 0.7214631055144028
vt 0.4773316095299201 0.707568511604938
vt 0.48432438733320293 0.6670411522633747
vt 0.4783347402503323 0.6537268800000005
vt 0.49082342357376035 0.6507185491358027
vt 0.49153471405746163 0.6653043453497943
vt 0.4779786798583959 0.6507185491358027
vt 0.47698508731501466 0.6363692059259266
vt 0.4918170161171416 0.6363692059259266
vt 0.49082342357376035 0.6507185491358027
vt 0.4775503833511776 0.632307231604939
vt 0.4824235534647023 0.618776880658436
vt 0.4947788352266076 0.6222945695473253
vt 0.4918170161171416 0.6363692059259266
vt 0.5241969239789129 0.4812067381069962
vt 0.5269120055528808 0.4668573948971193
vt 0.5343279699539346 0.4668573948971193
vt 0.5370416676942674 0.4812067381069962
vt 0.47529694867481365 0.6809012345679009
vt 0.4826740273509905 0.6816615986831278
vt 0.4775195238613254 0.6955554995884772
vt 0.7904978482018223 0.3739960894211015
vt 0.7905025947084202 0.377647647572362
vt 0.7905055089155357 0.36429480349673193
vt 0.7906212206985349 0.3482169000933705
vt 0.7906156998996334 0.3482169000933705
vt 0.7906156998996334 0.3775702614379082
vt 0.7906212206985349 0.3775702614379082
vt 0.7904948372596784 0.40425513538748803
vt 0.7904852750175803 0.41140534736227796
vt 0.7905003580585799 0.430940009337068
vt 0.7904951355002608 0.36776850696311814
vt 0.7904978482018223 0.3739960894211015
vt 0.7905055094306319 0.36429413637488306
vt 0.7904468272221331 0.561695891690009
vt 0.7904413064232317 0.561695891690009
vt 0.7904413064232317 0.5910492530345468
vt 0.7904468272221331 0.5910492530345468
vt 0.7904852750175803 0.41140534736227796
vt 0.7904797542186789 0.42378979736227806
vt 0.7905003580585799 0.430940009337068
vt 0.7904951766049214 0.3606197626563955
vt 0.7904951355002608 0.36776850696311814
vt 0.7905055092245934 0.36429426979925283
vt 0.7904413064232317 0.561695891690009
vt 0.7904357866545222 0.561695891690009
vt 0.7904357866545222 0.5910492530345468
vt 0.7904413064232317 0.5910492530345468
vt 0.7904797542186789 0.42378979736227806
vt 0.7904797542186789 0.4380902213118577
vt 0.7905003580585799 0.430940009337068
vt 0.7904979602867113 0.3544450162488326
vt 0.7904951766049214 0.3606197626563955
vt 0.7905055092245934 0.36429426979925283
vt 0.7904357866545222 0.561695891690009
vt 0.7904302658556207 0.561695891690009
vt 0.7904302658556207 0.5910492530345468
vt 0.7904357866545222 0.5910492530345468
vt 0.7904797542186789 0.4380902213118577
vt 0.7904852750175803 0.4504746713118578
vt 0.7905003580585799 0.430940009337068
vt 0.7905027483100466 0.35088538748832865
vt 0.7904979602867113 0.3544450162488326
vt 0.7905055092245934 0.36429426979925283
vt 0.7904468277372291 0.6150656395891687
vt 0.7904413069383277 0.6150656395891687
vt 0.7904413069383277 0.6444190009337067
vt 0.7904468277372291 0.6444190009337067
vt 0.7904852750175803 0.4504746713118578
vt 0.7904948372596784 0.45762488328664774
vt 0.7905003580585799 0.430940009337068
vt 0.7905082691089481 0.35088538748832865
vt 0.7905027483100466 0.35088538748832865
vt 0.7905055092245934 0.3642945366479924
vt 0.7904413069383277 0.6150656395891687
vt 0.7904357861394262 0.6150656395891687
vt 0.7904357861394262 0.6444190009337067
vt 0.7904413069383277 0.6444190009337067
vt 0.7904948372596784 0.45762488328664774
vt 0.7905058788574814 0.45762488328664774
vt 0.7905003580585799 0.430940009337068
vt 0.7905130571322836 0.3544450162488326
vt 0.7905082691089481 0.35088538748832865
vt 0.7905055092245934 0.36429480349673193
vt 0.7904357861394262 0.6150656395891687
vt 0.7904302653405247 0.6150656395891687
vt 0.7904302653405247 0.6444190009337067
vt 0.7904357861394262 0.6444190009337067
vt 0.7905058788574814 0.45762488328664774
vt 0.7905154410995793 0.4504746713118578
vt 0.7905003580585799 0.430940009337068
vt 0.7905158411231309 0.36061962923202595
vt 0.7905130571322836 0.3544450162488326
vt 0.7905055097396894 0.36429413637488306
vt 0.7906013560213903 0.3482169000933705
vt 0.7905958352224889 0.3482169000933705
vt 0.7905958352224889 0.3775702614379082
vt 0.7906013560213903 0.3775702614379082
vt 0.7905154410995793 0.4504746713118578
vt 0.7905209618984806 0.4380902213118577
vt 0.7905003580585799 0.430940009337068
vt 0.7905158825368491 0.3677682401143788
vt 0.7905158411231309 0.36061962923202595
vt 0.7905055087094974 0.3642945366479924
vt 0.7905958352224889 0.3482169000933705
vt 0.7905903154537793 0.3482169000933705
vt 0.8193054600061623 0.19225863678804833
vt 0.7905958352224889 0.3775702614379082
vt 0.7905209618984806 0.4380902213118577
vt 0.7905209618984806 0.42378979736227806
vt 0.7905003580585799 0.430940009337068
vt 0.7905131700413263 0.37399595599673174
vt 0.7905158825368491 0.3677682401143788
vt 0.7905055085034589 0.3642944032236226
vt 0.7905903154537793 0.3482169000933705
vt 0.7905847946548779 0.3482169000933705
vt 0.7905847946548779 0.3775702614379082
vt 0.8193054600061623 0.19225863678804833
vt 0.7905209618984806 0.42378979736227806
vt 0.7905154410995793 0.41140534736227796
vt 0.7905003580585799 0.430940009337068
vt 0.7905084240498242 0.37764858154295033
vt 0.7905131700413263 0.37399595599673174
vt 0.7905055085034589 0.3642944032236226
vt 0.7906322622963378 0.3482169000933705
vt 0.7906267414974364 0.3482169000933705
vt 0.7906267414974364 0.3775702614379082
vt 0.7906322622963378 0.3775702614379082
vt 0.7905154410995793 0.41140534736227796
vt 0.7905058788574814 0.40425513538748803
vt 0.7905003580585799 0.430940009337068
vt 0.790502903869038 0.37775625500933685
vt 0.7905084240498242 0.37764858154295033
vt 0.7905055085034589 0.36429480349673193
vt 0.7906267414974364 0.3482169000933705
vt 0.7906212206985349 0.3482169000933705
vt 0.7906212206985349 0.3775702614379082
vt 0.7906267414974364 0.3775702614379082
vt 0.7905058788574814 0.40425513538748803
vt 0.7904948372596784 0.40425513538748803
vt 0.7905003580585799 0.430940009337068
vt 0.7904903232674138 0.4912396855765637
vt 0.7904981227479889 0.48111717891689987
vt 0.819201507040633 0.2856556956115778
vt 0.7904824626964531 0.4760285068790847
vt 0.7904801242636433 0.4967186238958915
vt 0.7904903232674138 0.4912396855765637
vt 0.7904824626964531 0.4760285068790847
vt 0.7904773632460776 0.47876810946311843
vt 0.7904690826658405 0.4967186238958915
vt 0.7904801242636433 0.4967186238958915
vt 0.7904773633490968 0.47876904343370663
vt 0.7904718425501953 0.47876904343370663
vt 0.7904510837694181 0.4811178460387485
vt 0.7904588836620703 0.4912396855765637
vt 0.7904667427907622 0.4760289071521939
vt 0.7904628428959456 0.4709679873832866
vt 0.7904588836620703 0.4912396855765637
vt 0.7904690826658405 0.4967186238958915
vt 0.7904718427562336 0.47876757576563944
vt 0.7904667433058582 0.47602797318160595
vt 0.7907317814185394 0.8445555555555554
vt 0.7907428230163426 0.8445555555555554
vt 0.7907400621017957 0.8312131185807654
vt 0.7907345423330863 0.8312131185807654
vt 0.7907067660904772 0.5234028307236225
vt 0.7907169651972668 0.5179240258286646
vt 0.7907091056564982 0.5027123134337066
vt 0.7907040061031034 0.5054516491690009
vt 0.7907169651972668 0.5179240258286646
vt 0.7907247657080341 0.5078029868370679
vt 0.7907130065815066 0.49765286133286635
vt 0.7907091062746133 0.5027133808286646
vt 0.7906957244926743 0.5234028307236225
vt 0.7907067660904772 0.5234028307236225
vt 0.7907040062061226 0.5054519160177402
vt 0.7906984854072211 0.5054519160177402
vt 0.8194444444444445 0.5179240258286646
vt 0.7906957244926743 0.5234028307236225
vt 0.790698485304202 0.5054521828664797
vt 0.7906933858538264 0.5027127137068159
vt 0.7906777252871946 0.5078024531395889
vt 0.8194444444444445 0.5179240258286646
vt 0.7906933856477881 0.5027129805555555
vt 0.7906894856499523 0.4976521942110175
vt 0.7905566487793813 0.33754295051353844
vt 0.7905676903771841 0.33754295051353844
vt 0.7905649294626373 0.3242005135387488
vt 0.8192745542463108 0.13888888888888895
vt 0.7905456071815784 0.6310765639589166
vt 0.7905566487793813 0.6310765639589166
vt 0.7905566487793813 0.6177341269841268
vt 0.7905456071815784 0.6177341269841268
vt 0.790711917256491 0.3642278244631184
vt 0.7907229588542939 0.3642278244631184
vt 0.7907229588542939 0.35088538748832865
vt 0.790711917256491 0.35088538748832865
vt 0.7907008756586881 0.3642278244631184
vt 0.790711917256491 0.3642278244631184
vt 0.790711917256491 0.35088538748832865
vt 0.7907008756586881 0.35088538748832865
vt 0.7904337654178277 0.5376795051353873
vt 0.7904448070156309 0.5376795051353873
vt 0.7904448070156309 0.5243370681605974
vt 0.7904337654178277 0.5243370681605974
vt 0.7906898340608852 0.3642278244631184
vt 0.7907008756586881 0.3642278244631184
vt 0.7907008756586881 0.35088538748832865
vt 0.7906898340608852 0.35088538748832865
vt 0.7904227238200249 0.5376795051353873
vt 0.7904337654178277 0.5376795051353873
vt 0.7904337654178277 0.5243370681605974
vt 0.7904227238200249 0.5243370681605974
vt 0.7904646711776793 0.3775702614379082
vt 0.7904757127754822 0.3775702614379082
vt 0.7904757127754822 0.3642278244631184
vt 0.7904646711776793 0.3642278244631184
vt 0.790411682222222 0.5376795051353873
vt 0.7904227238200249 0.5376795051353873
vt 0.7904227238200249 0.5243370681605974
vt 0.790411682222222 0.5243370681605974
vt 0.7904536295798764 0.3775702614379082
vt 0.7904646711776793 0.3775702614379082
vt 0.7904646711776793 0.3642278244631184
vt 0.7904536295798764 0.3642278244631184
vt 0.7904425879820736 0.3775702614379082
vt 0.7904536295798764 0.3775702614379082
vt 0.7904536295798764 0.3642278244631184
vt 0.819201507040633 0.3642278244631184
vt 0.7905676903771841 0.6310765639589166
vt 0.7905787319749871 0.6310765639589166
vt 0.8193376510335467 0.6177341269841268
vt 0.7905676903771841 0.6177341269841268
vt 0.7905566487793813 0.6310765639589166
vt 0.7905676903771841 0.6310765639589166
vt 0.7905676903771841 0.6177341269841268
vt 0.7905566487793813 0.6177341269841268
vt 0.3950994112597815 0.4570147966395717
vt 0.3905499207292395 0.4533321383879704
vt 0.39996395985998023 0.44614370093887934
vt 0.6043166043356215 0.7592123577130374
vt 0.6064412600390214 0.7455601114740338
vt 0.6159507844444436 0.7486450457302787
vt 0.6098075132248073 0.760993717570492
vt 0.23399639580445716 0.7952479819245778
vt 0.21128072342482393 0.8636626193540262
vt 0.17239077003194253 0.8379632134295483
vt 0.22557549020383647 0.7896832578472142
vt 0.4440673225767465 0.7778406902868286
vt 0.4409558893978398 0.7587245773763154
vt 0.47882887405588415 0.745852991688632
vt 0.48779813382093357 0.7629781551775724
vt 0.33991831212260953 0.5338373980786899
vt 0.3534582974187585 0.5657225734580225
vt 0.33501244916754125 0.5801002055439364
vt 0.30796844806604906 0.5587409996972148
vt 0.33983626123605754 0.5799569456251104
vt 0.3598334201752242 0.5680750043026793
vt 0.3719593277802689 0.6116482809451433
vt 0.3905499207292395 0.4533321383879704
vt 0.38825437383077893 0.44794853361601494
vt 0.39996439322734356 0.44614339806378667
vt 0.5860857062942877 0.6701298268358542
vt 0.5801521848762066 0.6576701512741825
vt 0.5893717865187191 0.6543656325757619
vt 0.5914083241925523 0.668222168064762
vt 0.22557549020383647 0.7896832578472142
vt 0.17239077003194253 0.8379632134295483
vt 0.1509502088770771 0.7964809864267794
vt 0.22093354797015502 0.7807024055997862
vt 0.14675319046488147 0.6420007569180917
vt 0.15541172583379742 0.6246999258754108
vt 0.19210826256905197 0.6384672646496234
vt 0.18912669514192504 0.6578979133438597
vt 0.3079680146986859 0.5587405453845761
vt 0.33501244916754125 0.5801002055439364
vt 0.3255293601709951 0.601492576213304
vt 0.2915423806174739 0.5957942842200787
vt 0.3283830842273441 0.6002621461493899
vt 0.33983626123605754 0.5799569456251104
vt 0.3719594722360532 0.6116484323826895
vt 0.38825437383077893 0.44794853361601494
vt 0.38876155809611296 0.44213938933887786
vt 0.3999645376831182 0.44614339806378667
vt 0.5914086131041015 0.6682236824402252
vt 0.5893717865187191 0.6543656325757619
vt 0.599009876573861 0.6543656325757619
vt 0.596973049988459 0.6682236824402252
vt 0.2209332590585762 0.7807025570373324
vt 0.1509502088770771 0.7964809864267794
vt 0.15247349514253164 0.7498442796596492
vt 0.22126305161846174 0.7706045500106438
vt 0.18912669514192504 0.6578982162189524
vt 0.19210826256905197 0.6384672646496234
vt 0.23065773367385242 0.6384672646496234
vt 0.23363930110097936 0.6578982162189524
vt 0.2915433918079747 0.595794435657625
vt 0.3255293601709951 0.601492576213304
vt 0.32731598933468886 0.6247508088909768
vt 0.29463763474833715 0.6360766715432917
vt 0.32851988385686515 0.6235951889749489
vt 0.3283830842273441 0.6002621461493899
vt 0.3719593277802689 0.6116484323826895
vt 0.38876155809611296 0.44213938933887786
vt 0.39195128631115655 0.43728218147795783
vt 0.3999656933294329 0.44614385237642584
vt 0.596973049988459 0.6682236824402252
vt 0.599009876573861 0.6543656325757619
vt 0.6082294782163835 0.6576699998366362
vt 0.6022956678867235 0.6701311897737712
vt 0.22126348498582485 0.7706045500106438
vt 0.15247349514253164 0.7498442796596492
vt 0.1765707426613686 0.7099968209694899
vt 0.22648036124857568 0.7619776073089842
vt 0.23363930110097936 0.6578979133438597
vt 0.23065773367385242 0.6384672646496234
vt 0.2673542704091069 0.6246999258754108
vt 0.27601280577803267 0.6420007569180917
vt 0.294636768013601 0.6360769744183843
vt 0.32731598933468886 0.6247508088909768
vt 0.3399421473273459 0.6442765603643068
vt 0.31650665176507586 0.6698978245148798
vt 0.340210112810746 0.6437512235160954
vt 0.32851988385686515 0.6235951889749489
vt 0.3719594722360532 0.6116484323826895
vt 0.39195128631115655 0.43728218147795783
vt 0.3970609763805493 0.43452601813479075
vt 0.39996511550627556 0.4461430951886941
vt 0.39195128631115655 0.43728218147795783
vt 0.3838502058211576 0.42624405016366584
vt 0.3927004340183778 0.4214704358283188
vt 0.3970609763805493 0.43452601813479075
vt 0.22648079461594875 0.7619780616216233
vt 0.1765707426613686 0.7099968209694899
vt 0.21704812068877 0.6871465610416243
vt 0.23524391597408326 0.7570310512957308
vt 0.15165125280748196 0.5358178983095656
vt 0.16062210158616996 0.5186936434459029
vt 0.19849393059793885 0.5315688636346984
vt 0.195382352963228 0.5506849765452113
vt 0.31650694067662505 0.6698973702022407
vt 0.3399421473273459 0.6442765603643068
vt 0.3603462382162396 0.6553754181346763
vt 0.3518464597563443 0.6891203980204619
vt 0.3603462382162396 0.6553754181346763
vt 0.340210112810746 0.6437512235160954
vt 0.3719593277802689 0.611648583820236
vt 0.3970609763805493 0.43452601813479075
vt 0.4028666544278524 0.43452601813479075
vt 0.3999645376831182 0.4461412779381383
vt 0.3970609763805493 0.43452601813479075
vt 0.39493603176558045 0.4208739233333334
vt 0.40499304360069516 0.4208739233333334
vt 0.4028666544278524 0.43452601813479075
vt 0.23524377151829867 0.7570304455455454
vt 0.21704812068877 0.6871465610416243
vt 0.2634964341829027 0.6871465610416243
vt 0.2453007833534037 0.7570304455455454
vt 0.195382352963228 0.5506848251076651
vt 0.19849393059793885 0.5315688636346984
vt 0.2387190888226303 0.5315688636346984
vt 0.24183066645735085 0.5506848251076651
vt 0.3518464597563443 0.6891202465829154
vt 0.3603462382162396 0.6553754181346763
vt 0.3835703949633059 0.6553754181346763
vt 0.39207161798105544 0.6891202465829154
vt 0.3835703949633059 0.6553754181346763
vt 0.3603462382162396 0.6553754181346763
vt 0.3719590388686901 0.6116493410079676
vt 0.40286679888362703 0.43452601813479075
vt 0.4083561187591643 0.4363076808673382
vt 0.40193491460688374 0.4464936731084431
vt 0.40286679888362703 0.43452601813479075
vt 0.40499304360069516 0.4208739233333334
vt 0.4145008345366646 0.4239597662148563
vt 0.4083561187591643 0.4363076808673382
vt 0.2453003499860403 0.7570324142336478
vt 0.2634964341829027 0.6871465610416243
vt 0.30397280101980323 0.7099957609066657
vt 0.2540636157999497 0.7619794245595402
vt 0.24183066645735085 0.5506849765452113
vt 0.2387190888226303 0.5315688636346984
vt 0.27659091783438905 0.5186936434459029
vt 0.28556032205522286 0.5358183526222047
vt 0.3928612133084101 0.6888903643875898
vt 0.3835703949633059 0.6553754181346763
vt 0.40370608700145605 0.6437533436417442
vt 0.42773789604913776 0.6687599227917722
vt 0.40370608700145605 0.6437533436417442
vt 0.3835703949633059 0.6553754181346763
vt 0.37195889441291546 0.611648583820236
vt 0.4083561187591643 0.4363076808673382
vt 0.4123033731170344 0.4405088612775657
vt 0.40193404787215753 0.4464950360463601
vt 0.5860865730290041 0.7155624536721317
vt 0.5801514625972746 0.7031017180476358
vt 0.5893725087976708 0.6997968964741228
vt 0.5914093353830531 0.713654946338586
vt 0.25406376025574395 0.7619791216844476
vt 0.30397280101980323 0.7099957609066657
vt 0.3280712041849549 0.7498407965960836
vt 0.25928193662057414 0.7706071244489316
vt 0.3489920134210731 0.8237262668241725
vt 0.3576506932457931 0.8064254357814916
vt 0.3943456409673894 0.8201927745557043
vt 0.39136392908447815 0.8396234232499407
vt 0.4283186083096535 0.6681316084120581
vt 0.40370608700145605 0.6437533436417442
vt 0.4153981938805346 0.6235983691634217
vt 0.4485697205209829 0.6332223766701042
vt 0.4153981938805346 0.6235983691634217
vt 0.40370608700145605 0.6437533436417442
vt 0.37195889441291546 0.611648583820236
vt 0.4123033731170344 0.4405088612775657
vt 0.41376671023120154 0.4461368862492946
vt 0.40193549243002147 0.44649427885862836
vt 0.5914093353830531 0.713654946338586
vt 0.5893725087976708 0.6997968964741228
vt 0.5990105988527933 0.6997968964741228
vt 0.596973772267391 0.713654946338586
vt 0.25928323672264414 0.7706066701362926
vt 0.3280712041849549 0.7498407965960836
vt 0.3295981018450497 0.7964772004881212
vt 0.2596138960172556 0.7807046771629812
vt 0.39136407354024283 0.83962221174957
vt 0.3943456409673894 0.8201927745557043
vt 0.43289511207219966 0.8201927745557043
vt 0.43587667949931663 0.83962221174957
vt 0.4487869820234271 0.6323553967173771
vt 0.4153981938805346 0.6235983691634217
vt 0.4155362936121354 0.6002653263378628
vt 0.44902634526115526 0.5919436817296002
vt 0.4155362936121354 0.6002653263378628
vt 0.4153981938805346 0.6235983691634217
vt 0.3719594722360532 0.6116487352577824
vt 0.41376671023120154 0.4461368862492946
vt 0.41239842502434276 0.45185683381164443
vt 0.4019352035184427 0.44649427885862836
vt 0.596973772267391 0.713654946338586
vt 0.5990105988527933 0.6997968964741228
vt 0.6082302004953055 0.7031012637349968
vt 0.6022963901656556 0.7155624536721317
vt 0.2596134626499024 0.7807045257254347
vt 0.3295981018450497 0.7964772004881212
vt 0.3081607187174812 0.837961396178992
vt 0.2549723871509375 0.7896858322855017
vt 0.43587696841089546 0.8396234232499407
vt 0.43289511207219966 0.8201927745557043
vt 0.46959150435165004 0.8064249814688526
vt 0.47825018417637005 0.8237258125115334
vt 0.44882006239845573 0.5910751874014097
vt 0.4155362936121354 0.6002653263378628
vt 0.40408383888234417 0.5799598229384905
vt 0.42898324938195825 0.5559038172667623
vt 0.40408383888234417 0.5799598229384905
vt 0.4155362936121354 0.6002653263378628
vt 0.37195889441291546 0.6116488866953286
vt 0.40631105819396096 0.45638133338328235
vt 0.400808737297687 0.4581186249147555
vt 0.39996439322734356 0.4461423380009625
vt 0.5930210285896631 0.760993717570492
vt 0.5868764572679375 0.7486458029180104
vt 0.5963842482039168 0.7455601114740338
vt 0.5985103484651709 0.7592120548379448
vt 0.2549723871509375 0.7896858322855017
vt 0.3081607187174812 0.837961396178992
vt 0.2692727877056116 0.8636639822919434
vt 0.24655292610816112 0.7952504049253192
vt 0.35388964239633036 0.7629748235515532
vt 0.36285875770559517 0.7458499629377053
vt 0.40073073117313857 0.7587245773763154
vt 0.39761944244999653 0.7778408417243747
vt 0.42841004882232164 0.5552679310097317
vt 0.40408383888234417 0.5799598229384905
vt 0.3840874022220996 0.5680765186781427
vt 0.3937744627887547 0.5346849940254866
vt 0.3840874022220996 0.5680765186781427
vt 0.40408383888234417 0.5799598229384905
vt 0.37195889441291546 0.6116488866953286
vt 0.400808737297687 0.4581186249147555
vt 0.3950994112597815 0.4570147966395717
vt 0.39996439322734356 0.44614279231360165
vt 0.5985106373767594 0.7592137206509543
vt 0.5963842482039168 0.7455601114740338
vt 0.6064412600390214 0.7455601114740338
vt 0.6043163154240722 0.7592137206509543
vt 0.2465526371965823 0.7952496477375876
vt 0.2692727877056116 0.8636639822919434
vt 0.22293353833007398 0.867
vt 0.23651931611040006 0.7959720048335716
vt 0.39761915353841776 0.7778420532247454
vt 0.40073073117313857 0.7587245773763154
vt 0.4409558893978398 0.7587245773763154
vt 0.44406746703254074 0.7778420532247454
vt 0.39298804548869704 0.5344449655145571
vt 0.3840874022220996 0.5680765186781427
vt 0.3608651234002602 0.5677739464605795
vt 0.3527659208355083 0.5339209916042625
vt 0.3608651234002602 0.5677739464605795
vt 0.3840874022220996 0.5680765186781427
vt 0.3719587499571312 0.611649492445514
vt 0.9168814038224236 0.8427811747881336
vt 0.9172602389217029 0.8466757398943139
vt 0.9175035364167936 0.8326920525556563
vt 0.9448393415568346 0.2708889941461211
vt 0.9444007402823837 0.2708889941461211
vt 0.9444007402823837 0.31361811460092126
vt 0.9448393415568346 0.31361811460092126
vt 0.931941443812819 0.3743128879742168
vt 0.9311740293688067 0.3817943685193026
vt 0.9323844542481081 0.4022324837259327
vt 0.9166666666666666 0.8362327428551608
vt 0.9168814038224236 0.8427811747881336
vt 0.917503481302283 0.8326930236720302
vt 0.9214519399480356 0.2514666666666666
vt 0.921022708140368 0.2514666666666666
vt 0.921022708140368 0.29419578712146677
vt 0.9214519399480356 0.29419578712146677
vt 0.9311740293688067 0.3817943685193026
vt 0.9307310189335176 0.39475100318084677
vt 0.9323844542481081 0.4022324837259327
vt 0.9166724647131702 0.8287518449798993
vt 0.9166666666666666 0.8362327428551608
vt 0.917503481302283 0.8326930236720302
vt 0.921022708140368 0.2514666666666666
vt 0.9205981059515814 0.2514666666666666
vt 0.9205981059515814 0.29419578712146677
vt 0.921022708140368 0.29419578712146677
vt 0.9307310189335176 0.39475100318084677
vt 0.9307310189335176 0.40971396427101847
vt 0.9323844542481081 0.4022324837259327
vt 0.9168972768014436 0.8223090705084146
vt 0.9166724647131702 0.8287518449798993
vt 0.917503481302283 0.8326930236720302
vt 0.9205981059515814 0.2514666666666666
vt 0.9201688741439136 0.2514666666666666
vt 0.9201688741439136 0.29419578712146677
vt 0.9205981059515814 0.29419578712146677
vt 0.9307310189335176 0.40971396427101847
vt 0.9311740293688067 0.42267059893256265
vt 0.9323844542481081 0.4022324837259327
vt 0.917281887901422 0.8185986290667396
vt 0.9168972768014436 0.8223090705084146
vt 0.9175034261877725 0.8326922467789311
vt 0.9203681130993219 0.4845345964201213
vt 0.9199296220538922 0.4845345964201213
vt 0.9199296220538922 0.5272637168749214
vt 0.9203681130993219 0.5272637168749214
vt 0.9311740293688067 0.42267059893256265
vt 0.931941443812819 0.43015207947764855
vt 0.9323844542481081 0.4022324837259327
vt 0.917724898336711 0.8185986290667396
vt 0.917281887901422 0.8185986290667396
vt 0.9175034482335772 0.8326934121185798
vt 0.9199296220538922 0.4845345964201213
vt 0.9194866116186031 0.4845345964201213
vt 0.9194866116186031 0.5272637168749214
vt 0.9199296220538922 0.5272637168749214
vt 0.931941443812819 0.43015207947764855
vt 0.9328274646833973 0.43015207947764855
vt 0.9323844542481081 0.4022324837259327
vt 0.9181095755741013 0.8223071282756667
vt 0.917724898336711 0.8185986290667396
vt 0.9175034372106747 0.8326939947884042
vt 0.9194866116186031 0.4845345964201213
vt 0.9190481205731735 0.4845345964201213
vt 0.9190481205731735 0.5272637168749214
vt 0.9194866116186031 0.5272637168749214
vt 0.9328274646833973 0.43015207947764855
vt 0.9335948791274095 0.42267059893256265
vt 0.9323844542481081 0.4022324837259327
vt 0.9183345089142982 0.8287485431842277
vt 0.9181095755741013 0.8223071282756667
vt 0.9175035143709894 0.8326928294487554
vt 0.9247588105772167 0.2514666666666666
vt 0.9243295787695489 0.2514666666666666
vt 0.9243295787695489 0.29419578712146677
vt 0.9247588105772167 0.29419578712146677
vt 0.9335948791274095 0.42267059893256265
vt 0.9340378895626985 0.40971396427101847
vt 0.9323844542481081 0.4022324837259327
vt 0.9183404061669207 0.8362294410594893
vt 0.9183345089142982 0.8287485431842277
vt 0.9175034372106747 0.832693217895305
vt 0.9243295787695489 0.2514666666666666
vt 0.9239049765807624 0.2514666666666666
vt 0.9239049765807624 0.29419578712146677
vt 0.9243295787695489 0.29419578712146677
vt 0.9340378895626985 0.40971396427101847
vt 0.9340378895626985 0.39475100318084677
vt 0.9323844542481081 0.4022324837259327
vt 0.9181257241256738 0.8427784556622866
vt 0.9183404061669207 0.8362294410594893
vt 0.9175035143709894 0.8326936063418546
vt 0.9239049765807624 0.2514666666666666
vt 0.9234757447730947 0.2514666666666666
vt 0.9234757447730947 0.29419578712146677
vt 0.9239049765807624 0.29419578712146677
vt 0.9340378895626985 0.39475100318084677
vt 0.9335948791274095 0.3817943685193026
vt 0.9323844542481081 0.4022324837259327
vt 0.9177470323241221 0.8466736034382911
vt 0.9181257241256738 0.8427784556622866
vt 0.9175035143709894 0.8326936063418546
vt 0.9457208430375532 0.2708889941461211
vt 0.9452823519921236 0.2708889941461211
vt 0.9452823519921236 0.31361811460092126
vt 0.9457208430375532 0.31361811460092126
vt 0.9335948791274095 0.3817943685193026
vt 0.9328274646833973 0.3743128879742168
vt 0.9323844542481081 0.4022324837259327
vt 0.9173041982552667 0.8468901623896871
vt 0.9177470323241221 0.8466736034382911
vt 0.9175034923251854 0.8326924410022059
vt 0.9452823519921236 0.2708889941461211
vt 0.9448393415568346 0.2708889941461211
vt 0.9448393415568346 0.31361811460092126
vt 0.9452823519921236 0.31361811460092126
vt 0.9328274646833973 0.3743128879742168
vt 0.931941443812819 0.3743128879742168
vt 0.9323844542481081 0.4022324837259327
vt 0.9231880911199642 0.7654570046269292
vt 0.9238685458893309 0.756231593297463
vt 0.9228905278778485 0.7409093191489214
vt 0.9225503500962247 0.7455213450321927
vt 0.9223557738284037 0.7703254052329293
vt 0.9231880911199642 0.7654570046269292
vt 0.9225503611191265 0.7455219277020171
vt 0.9221342024733462 0.7479561280050171
vt 0.921469752957825 0.7703254052329293
vt 0.9223557738284037 0.7703254052329293
vt 0.9221342134962486 0.7479567106748415
vt 0.921691203060959 0.7479567106748415
vt 0.9199568486220724 0.7562352835396842
vt 0.920637402597558 0.7654583641898528
vt 0.9212749231632557 0.7455205681390935
vt 0.9209346902671212 0.7409097075954709
vt 0.920637402597558 0.7654583641898528
vt 0.921469752957825 0.7703254052329293
vt 0.921691225106763 0.7479539915489943
vt 0.9212749562319621 0.7455197912459943
vt 0.9595227289825659 0.9958223175116178
vt 0.96036069 0.99824972
vt 0.96036069 0.9751909501465672
vt 0.959941709491283 0.973977248902376
vt 0.9223556635993825 0.44014564385892707
vt 0.9231880139596494 0.4352787970391254
vt 0.9225503831649307 0.41534080676509133
vt 0.9221342024733462 0.41777423017499216
vt 0.9231880139596494 0.4352787970391254
vt 0.9238685348664286 0.4260549394958576
vt 0.9228906381068692 0.41073052889129313
vt 0.9225504162336371 0.41534197210474
vt 0.9214696427288038 0.44014564385892707
vt 0.9223556635993825 0.44014564385892707
vt 0.9221342134962486 0.41777500706809134
vt 0.921691203060959 0.41777500706809134
vt 0.9206373254372433 0.43527743747620185
vt 0.9214696427288038 0.44014564385892707
vt 0.9216911920380572 0.4177763666310149
vt 0.9212750333922768 0.4153423605512896
vt 0.9199568596449748 0.42605222037001045
vt 0.9206373254372433 0.43527743747620185
vt 0.9212750444151786 0.4153417778814652
vt 0.9209348556106529 0.41072975199819395
vt 0.929760893319937 0.6850650778403449
vt 0.9305988543373712 0.6874924803287271
vt 0.9305988543373712 0.6644337104752943
vt 0.9301798738286541 0.6632200092311031
vt 0.9487379215705968 0.27477345964201216
vt 0.949596495414953 0.27477345964201216
vt 0.949596495414953 0.25535113216255767
vt 0.9487379215705968 0.25535113216255767
vt 0.943850366780667 0.5466860443543758
vt 0.9447273488715264 0.5466860443543758
vt 0.9447273488715264 0.5272637168749214
vt 0.943850366780667 0.5272637168749214
vt 0.9429643459100889 0.5466860443543758
vt 0.943850366780667 0.5466860443543758
vt 0.943850366780667 0.5272637168749214
vt 0.9429643459100889 0.5272637168749214
vt 0.9184792837104442 0.33304044208037575
vt 0.9193378575548002 0.33304044208037575
vt 0.9193378575548002 0.31361811460092126
vt 0.9184792837104442 0.31361811460092126
vt 0.9420873638192298 0.5466860443543758
vt 0.9429643459100889 0.5466860443543758
vt 0.9429643459100889 0.5272637168749214
vt 0.9420873638192298 0.5272637168749214
vt 0.9176300793328702 0.33304044208037575
vt 0.9184792837104442 0.33304044208037575
vt 0.9184792837104442 0.31361811460092126
vt 0.9176300793328702 0.31361811460092126
vt 0.9515663982487561 0.8962879389845578
vt 0.9524433803396153 0.8962879389845578
vt 0.9524433803396153 0.8768656115051032
vt 0.9515663982487561 0.8768656115051032
vt 0.9167715054885139 0.33304044208037575
vt 0.9176300793328702 0.33304044208037575
vt 0.9176300793328702 0.31361811460092126
vt 0.9167715054885139 0.31361811460092126
vt 0.9506803773781778 0.8962879389845578
vt 0.9515663982487561 0.8962879389845578
vt 0.9515663982487561 0.8768656115051032
vt 0.9506803773781778 0.8768656115051032
vt 0.9498033952873186 0.8962879389845578
vt 0.9506803773781778 0.8962879389845578
vt 0.9506803773781778 0.8768656115051032
vt 0.9498033952873186 0.8768656115051032
vt 0.950445699792527 0.27477345964201216
vt 0.9513042736368831 0.27477345964201216
vt 0.9513042736368831 0.25535113216255767
vt 0.950445699792527 0.25535113216255767
vt 0.949596495414953 0.27477345964201216
vt 0.950445699792527 0.27477345964201216
vt 0.950445699792527 0.25535113216255767
vt 0.949596495414953 0.25535113216255767
vn 0.02255836193682716 0.9659256086491206 0.25783490621433214
vn 0.061626459120660185 0.7071065147940485 0.7044164650773459
vn 0.0841886442126601 0.25882094904406183 0.9622494419440135
vn 0.08418322402941902 -0.25882131293042426 0.9622498182722531
vn 0.061630467190256 -0.7071059820023552 0.7044166492427587
vn 0.02255836193682716 -0.9659256086491206 0.25783490621433214
vn 0.14845237525169042 0.9659256086491206 0.21201323269540898
vn 0.4055807343543923 0.7071079703866089 0.5792258507147989
vn 0.5540304986746204 0.2588162444739006 0.7912422878832864
vn 0.5540350045333733 -0.25881588057836524 0.7912392518778064
vn 0.4055771711933336 -0.7071085031708114 0.5792276952549388
vn 0.14845237525169042 -0.9659256086491204 0.21201323269540895
vn 0.23457037561867533 0.9659256312759249 0.10938196252728287
vn 0.6408563820557887 0.7071067811865475 0.2988362387301199
vn 0.8754259213236626 0.25881977290038427 0.4082178112606192
vn 0.8754259213236626 -0.2588197729003842 0.4082178112606192
vn 0.6408563820557888 -0.7071067811865474 0.29883623873011994
vn 0.23457037561867533 -0.9659256312759249 0.10938196252728287
vn 0.25783490621433214 0.9659256086491206 -0.022558361936827243
vn 0.704416465077346 0.7071065147940484 -0.061626459120660004
vn 0.9622494419440135 0.258820949044062 -0.0841886442126601
vn 0.962249818272253 -0.25882131293042443 -0.08418322402941886
vn 0.7044166492427588 -0.7071059820023551 -0.06163046719025635
vn 0.25783490621433214 -0.9659256086491206 -0.02255836193682723
vn 0.21201323269540895 0.9659256086491206 -0.14845237525169047
vn 0.5792258507147989 0.707107970386609 -0.4055807343543923
vn 0.7912422878832865 0.25881624447390067 -0.5540304986746205
vn 0.7912392518778064 -0.25881588057836524 -0.5540350045333732
vn 0.5792276952549387 -0.7071085031708113 -0.4055771711933337
vn 0.21201323269540895 -0.9659256086491206 -0.14845237525169047
vn 0.10938196252728287 0.9659256312759249 -0.23457037561867533
vn 0.2988362387301199 0.7071067811865476 -0.6408563820557885
vn 0.4082178112606192 0.2588197729003841 -0.8754259213236626
vn 0.4082178112606191 -0.258819772900384 -0.8754259213236625
vn 0.2988362387301199 -0.7071067811865476 -0.6408563820557885
vn 0.10938196252728287 -0.9659256312759249 -0.23457037561867533
vn -0.022558361936827146 0.9659256086491206 -0.25783490621433214
vn -0.061626459120660185 0.7071065147940485 -0.7044164650773459
vn -0.0841886442126601 0.25882094904406183 -0.9622494419440135
vn -0.08418322402941898 -0.25882131293042426 -0.9622498182722532
vn -0.061630467190256014 -0.7071059820023552 -0.7044166492427587
vn -0.022558361936827146 -0.9659256086491206 -0.25783490621433214
vn -0.14845237525169047 0.9659256086491206 -0.21201323269540895
vn -0.4055807343543923 0.7071079703866089 -0.5792258507147989
vn -0.5540304986746206 0.25881624447390067 -0.7912422878832865
vn -0.5540350045333733 -0.25881588057836524 -0.7912392518778064
vn -0.4055771711933336 -0.7071085031708113 -0.5792276952549387
vn -0.14845237525169047 -0.9659256086491206 -0.21201323269540895
vn -0.23457037561867533 0.9659256312759249 -0.10938196252728287
vn -0.6408563820557887 0.7071067811865476 -0.2988362387301199
vn -0.8754259213236626 0.2588197729003841 -0.4082178112606192
vn -0.8754259213236625 -0.258819772900384 -0.4082178112606191
vn -0.6408563820557887 -0.7071067811865475 -0.2988362387301199
vn -0.23457037561867533 -0.9659256312759249 -0.10938196252728287
vn -0.25783490621433214 0.9659256086491206 0.02255836193682716
vn -0.704416465077346 0.7071065147940484 0.061626459120660004
vn -0.9622494419440136 0.2588209490440619 0.08418864421266
vn -0.9622498182722531 -0.2588213129304242 0.08418322402941886
vn -0.7044166492427587 -0.7071059820023551 0.06163046719025618
vn -0.25783490621433214 -0.9659256086491206 0.02255836193682716
vn -0.21201323269540895 0.9659256086491206 0.1484523752516905
vn -0.5792258507147989 0.707107970386609 0.4055807343543923
vn -0.7912422878832865 0.25881624447390067 0.5540304986746205
vn -0.7912392518778064 -0.25881588057836524 0.5540350045333732
vn -0.5792276952549387 -0.7071085031708113 0.4055771711933337
vn -0.21201323269540895 -0.9659256086491206 0.1484523752516905
vn -0.10938196252728287 0.9659256312759249 0.23457037561867533
vn -0.2988362387301199 0.7071067811865476 0.6408563820557885
vn -0.4082178112606192 0.25881977290038416 0.8754259213236626
vn -0.4082178112606191 -0.25881977290038394 0.8754259213236625
vn -0.2988362387301199 -0.7071067811865476 0.6408563820557885
vn -0.10938196252728287 -0.9659256312759249 0.23457037561867533
vn -0.008672602279923537 -0.9950371867648832 -0.09912508726211146
vn 0.08715854404788272 0 0.9961944530057641
vn 0 1 0
vn -0.05707277911726584 -0.9950371867648832 -0.08150886356009837
vn 0.5735741328923433 0 0.8191536571833131
vn 0 1 0
vn -0.09018099538783822 -0.9950371902099892 -0.04205208876938957
vn 0.9063077870366499 0 0.42261826174069944
vn 0 1 0
vn -0.09912508726211144 -0.9950371867648832 0.008672602279923544
vn 0.996194453005764 0 -0.08715854404788288
vn 0 1 0
vn -0.08150886356009834 -0.9950371867648832 0.05707277911726584
vn 0.8191536571833129 0 -0.5735741328923433
vn 0 1 0
vn -0.04205208876938957 -0.9950371902099892 0.09018099538783822
vn 0.42261826174069944 0 -0.9063077870366499
vn 0 1 0
vn 0.00867260227992353 -0.9950371867648832 0.09912508726211147
vn -0.08715854404788272 0 -0.9961944530057641
vn 0 1 0
vn 0.05707277911726584 -0.9950371867648832 0.08150886356009834
vn -0.5735741328923433 0 -0.8191536571833129
vn 0 1 0
vn 0.09018099538783822 -0.9950371902099892 0.04205208876938957
vn -0.9063077870366499 0 -0.42261826174069944
vn 0 1 0
vn 0.09912508726211146 -0.9950371867648832 -0.008672602279923537
vn -0.9961944530057641 0 0.08715854404788272
vn 0 1 0
vn 0.08150886356009836 -0.9950371867648832 -0.057072779117265854
vn -0.8191536571833129 0 0.5735741328923433
vn 0 1 0
vn 0.04205208876938957 -0.9950371902099892 -0.09018099538783822
vn -0.42261826174069944 0 0.9063077870366499
vn 0 1 0
vn -0.6664190836505507 -0.7432940299278885 0.058306003292280945
vn -0.5479850123055667 -0.7432940299278885 0.3837009400067028
vn -0.28271671204411325 -0.7432941462471664 0.6062879455223089
vn 0.3837009400067026 -0.7432940299278886 0.5479850123055665
vn 0.058306003292281056 -0.7432940299278885 0.6664190836505508
vn 0.6062879455223089 -0.7432941462471664 0.28271671204411325
vn 0.5479850123055666 -0.7432940299278886 -0.38370094000670274
vn 0.6664190836505507 -0.7432940299278885 -0.05830600329228111
vn 0.28271671204411325 -0.7432941462471664 -0.6062879455223089
vn -0.058306003292281014 -0.7432940299278886 -0.6664190836505507
vn -0.38370094000670274 -0.7432940299278886 -0.5479850123055665
vn -0.6062879455223089 -0.7432941462471664 -0.28271671204411325
vn -0.9961944530057641 0 0.0871585440478826
vn -0.819153657183313 0 0.5735741328923434
vn -0.42261826174069944 0 0.9063077870366499
vn 0.5735741328923433 0 0.8191536571833129
vn 0.08715854404788266 0 0.996194453005764
vn 0.9063077870366499 0 0.42261826174069944
vn 0.8191536571833129 0 -0.5735741328923433
vn 0.9961944530057641 0 -0.08715854404788272
vn 0.42261826174069944 0 -0.9063077870366499
vn -0.0871585440478826 0 -0.9961944530057641
vn -0.5735741328923434 0 -0.819153657183313
vn -0.9063077870366499 0 -0.42261826174069944
vn 0.023878602149516037 0.9381734046438702 0.34534109975256944
vn 0.05581650004895507 0.5876026835267081 0.807222153210934
vn 0.014802373053466975 0.976706824923769 0.21406697059405483
vn 0.05443700049198641 -0.6142143603239013 0.7872593807312405
vn 0.02245400975200726 -0.9455383470585991 0.32473535638693385
vn 0.006336200502419197 -0.9957724417389322 0.09163567447494478
vn 0.18964455400300617 0.9405235137572422 0.2818695854588287
vn 0.44833523636137346 0.5957796369228019 0.666364870071139
vn 0.11737396958216142 0.9776446428857815 0.17445430204285323
vn 0.4369509748669569 -0.6223347156080915 0.6494407958480988
vn 0.1782778148587575 -0.9476315387670201 0.26497450342105816
vn 0.05020517447164643 -0.9959474361274593 0.07462000353398775
vn 0.30491800867869684 0.9417049763111242 0.14218560255624868
vn 0.7250450411103431 0.6000017485101464 0.33809405517705876
vn 0.18857272969831393 0.9781145788243546 0.08793290797751632
vn 0.7063789257813056 -0.6265230285021707 0.32938990265112417
vn 0.286599686818264 -0.9486832980505138 0.1336436287881807
vn 0.08062742803649249 -0.9960349739675668 0.037597187150757494
vn 0.33782579918264777 0.9405235137572422 -0.03590612031863643
vn 0.7986491416802395 0.5957800423264547 -0.08488633375817979
vn 0.20908626127550517 0.9776446473692855 -0.022223384441101324
vn 0.7783633590215698 -0.6223395554717349 -0.082728223889446
vn 0.31757699034347586 -0.9476315475935428 -0.033753595509912776
vn 0.0894335031452551 -0.9959474361274593 -0.009505418786589582
vn 0.2798955000443958 0.9381734046438702 -0.2036889095503892
vn 0.6542464377780355 0.5876022776835096 -0.4761146520701741
vn 0.17349964352097738 0.9767068118138535 -0.1262603558307665
vn 0.6380679360160492 -0.6142130371880355 -0.4643400197877285
vn 0.2631954550137708 -0.9455380998938843 -0.19153551657370796
vn 0.0742698303984357 -0.9957724417389322 -0.05404846497239767
vn 0.14762711903939915 0.9370051576911717 -0.3165873784348799
vn 0.34317273302446827 0.5836353624691081 -0.7359363009011514
vn 0.09158005784935357 0.97623893751587 -0.19639406783860444
vn 0.3347962011153117 -0.6102676502120087 -0.717972770252096
vn 0.13883844765822892 -0.9444970994152526 -0.297740011835876
vn 0.03921806152818274 -0.9956849707742286 -0.08410340435615755
vn -0.023878602149516037 0.9381734046438702 -0.34534109975256944
vn -0.05581650004895507 0.5876026835267081 -0.807222153210934
vn -0.014802373053466975 0.976706824923769 -0.21406697059405483
vn -0.054437000491986354 -0.6142143603239013 -0.7872593807312406
vn -0.022454009752007176 -0.9455383470585992 -0.32473535638693385
vn -0.006336200502419183 -0.9957724417389322 -0.09163567447494476
vn -0.18964455400300617 0.9405235137572422 -0.2818695854588287
vn -0.44833523636137346 0.5957796369228019 -0.666364870071139
vn -0.11737396958216137 0.9776446428857815 -0.17445430204285325
vn -0.4369509748669572 -0.6223347156080913 -0.6494407958480989
vn -0.1782778148587576 -0.9476315387670201 -0.2649745034210581
vn -0.05020517447164645 -0.9959474361274593 -0.07462000353398775
vn -0.30491800867869684 0.9417049763111242 -0.14218560255624868
vn -0.7250450411103431 0.6000017485101464 -0.33809405517705876
vn -0.18857272969831385 0.9781145788243545 -0.0879329079775163
vn -0.7063789257813052 -0.6265230285021711 -0.329389902651124
vn -0.286599686818264 -0.9486832980505138 -0.1336436287881807
vn -0.08062742803649249 -0.9960349739675668 -0.037597187150757494
vn -0.33782579918264777 0.9405235137572422 0.03590612031863643
vn -0.7986491416802395 0.5957800423264547 0.08488633375817979
vn -0.2090862612755052 0.9776446473692855 0.022223384441101352
vn -0.7783633590215695 -0.6223395554717353 0.0827282238894459
vn -0.31757699034347575 -0.9476315475935428 0.033753595509912665
vn -0.0894335031452551 -0.9959474361274593 0.009505418786589554
vn -0.2798955000443958 0.9381734046438702 0.2036889095503892
vn -0.6542464377780355 0.5876022776835096 0.4761146520701741
vn -0.17349964352097738 0.9767068118138535 0.12626035583076647
vn -0.638067936016049 -0.6142130371880354 0.4643400197877285
vn -0.2631954550137708 -0.9455380998938843 0.19153551657370796
vn -0.07426983039843571 -0.9957724417389322 0.05404846497239768
vn -0.14762711903939915 0.9370051576911717 0.3165873784348799
vn -0.34317273302446827 0.5836353624691081 0.7359363009011514
vn -0.09158005784935357 0.97623893751587 0.19639406783860444
vn -0.3347962011153117 -0.6102676502120087 0.717972770252096
vn -0.13883844765822892 -0.9444970994152526 0.29774001183587606
vn -0.03921806152818274 -0.9956849707742286 0.08410340435615755
vn -0.009410071712940733 -0.9906515246408367 -0.13609190746382765
vn 0.0689802745987449 0 0.9976180239531971
vn 0 1 0
vn -0.07457723044369964 -0.9910356889223589 -0.11084448557114882
vn 0.5582236977041444 0 0.8296904864595664
vn 0 1 0
vn -0.11978100868222184 -0.9912279006826347 -0.055854801650050426
vn 0.9063077870366499 0 0.42261826174069944
vn 0 1 0
vn -0.1328491219161082 -0.9910356889223592 0.01411998896261325
vn 0.994399062978661 0 -0.1056906029274188
vn 0 1 0
vn -0.11030112696946742 -0.9906515246408367 0.08026965875130614
vn 0.8085594094295305 0 -0.5884145489558945
vn 0 1 0
vn -0.05823809864536352 -0.9904596462288626 0.12489200558230042
vn 0.42261826174069944 0 -0.9063077870366499
vn 0 1 0
vn 0.00941007171294072 -0.9906515246408367 0.13609190746382765
vn -0.0689802745987448 0 -0.9976180239531972
vn 0 1 0
vn 0.07457723044369964 -0.9910356889223589 0.11084448557114882
vn -0.5582236977041444 0 -0.8296904864595664
vn 0 1 0
vn 0.11978100868222184 -0.9912279006826347 0.055854801650050426
vn -0.9063077870366499 0 -0.42261826174069944
vn 0 1 0
vn 0.1328491219161082 -0.9910356889223592 -0.01411998896261325
vn -0.994399062978661 0 0.1056906029274188
vn 0 1 0
vn 0.11030112696946745 -0.9906515246408367 -0.08026965875130616
vn -0.8085594094295306 0 0.5884145489558947
vn 0 1 0
vn 0.05823809864536352 -0.9904596462288626 -0.12489200558230042
vn -0.42261826174069944 0 0.9063077870366499
vn 0 1 0
vn -0.7673425529245625 -0.6360296758781864 0.08155769659268264
vn -0.6292606204943485 -0.6279557005208554 0.4579330842802576
vn -0.33023303550950256 -0.6240330702407055 0.708187030031007
vn 0.430761465136738 -0.6360296758781865 0.640242775480942
vn 0.05368383558420481 -0.6279557005208554 0.7763953142441871
vn 0.6962449278663613 -0.6401843996644798 0.32466434181565884
vn 0.6292606204943485 -0.6279557005208554 -0.4579330842802576
vn 0.7673425529245625 -0.6360296758781865 -0.0815576965926828
vn 0.33023303550950256 -0.6240330702407055 -0.708187030031007
vn -0.05368383558420481 -0.6279557005208554 -0.7763953142441871
vn -0.4307614651367383 -0.6360296758781865 -0.640242775480942
vn -0.6962449278663614 -0.6401843996644797 -0.32466434181565895
vn -0.9943990629786609 0 0.1056906029274185
vn -0.8085594094295304 0 0.5884145489558947
vn -0.42261826174069944 0 0.9063077870366499
vn 0.5582236977041444 0 0.8296904864595664
vn 0.06898027459874467 0 0.9976180239531971
vn 0.9063077870366499 0 0.42261826174069944
vn 0.8085594094295304 0 -0.5884145489558947
vn 0.994399062978661 0 -0.1056906029274188
vn 0.42261826174069944 0 -0.9063077870366499
vn -0.06898027459874467 0 -0.9976180239531971
vn -0.5582236977041445 0 -0.8296904864595663
vn -0.9063077870366499 0 -0.42261826174069944
usemtl m_e8ba60eb-4507-43ab-0bf6-99b65e21ffd5
f 3/1/1 8/2/1 2/3/1
f 3/4/2 4/5/2 9/6/2 8/7/2
f 4/8/3 5/9/3 10/10/3 9/11/3
f 5/12/4 6/13/4 11/14/4 10/15/4
f 6/16/5 7/17/5 12/18/5 11/19/5
f 12/20/6 7/21/6 1/22/6
f 8/23/7 13/24/7 2/25/7
f 8/26/8 9/27/8 14/28/8 13/29/8
f 9/30/9 10/31/9 15/32/9 14/33/9
f 10/34/10 11/35/10 16/36/10 15/37/10
f 11/38/11 12/39/11 17/40/11 16/41/11
f 17/42/12 12/43/12 1/44/12
f 13/45/13 18/46/13 2/47/13
f 13/48/14 14/49/14 19/50/14 18/51/14
f 14/52/15 15/53/15 20/54/15 19/55/15
f 15/56/16 16/57/16 21/58/16 20/59/16
f 16/60/17 17/61/17 22/62/17 21/63/17
f 22/64/18 17/65/18 1/66/18
f 18/67/19 23/68/19 2/69/19
f 18/70/20 19/71/20 24/72/20 23/73/20
f 19/74/21 20/75/21 25/76/21 24/77/21
f 20/78/22 21/79/22 26/80/22 25/81/22
f 21/82/23 22/83/23 27/84/23 26/85/23
f 27/86/24 22/87/24 1/88/24
f 23/89/25 28/90/25 2/91/25
f 23/92/26 24/93/26 29/94/26 28/95/26
f 24/96/27 25/97/27 30/98/27 29/99/27
f 25/100/28 26/101/28 31/102/28 30/103/28
f 26/104/29 27/105/29 32/106/29 31/107/29
f 32/108/30 27/109/30 1/110/30
f 28/111/31 33/112/31 2/113/31
f 28/114/32 29/115/32 34/116/32 33/117/32
f 29/118/33 30/119/33 35/120/33 34/121/33
f 30/122/34 31/123/34 36/124/34 35/125/34
f 31/126/35 32/127/35 37/128/35 36/129/35
f 37/130/36 32/131/36 1/132/36
f 33/133/37 38/134/37 2/135/37
f 33/136/38 34/137/38 39/138/38 38/139/38
f 34/140/39 35/141/39 40/142/39 39/143/39
f 35/144/40 36/145/40 41/146/40 40/147/40
f 36/148/41 37/149/41 42/150/41 41/151/41
f 42/152/42 37/153/42 1/154/42
f 38/155/43 43/156/43 2/157/43
f 38/158/44 39/159/44 44/160/44 43/161/44
f 39/162/45 40/163/45 45/164/45 44/165/45
f 40/166/46 41/167/46 46/168/46 45/169/46
f 41/170/47 42/171/47 47/172/47 46/173/47
f 47/174/48 42/175/48 1/176/48
f 43/177/49 48/178/49 2/179/49
f 43/180/50 44/181/50 49/182/50 48/183/50
f 44/184/51 45/185/51 50/186/51 49/187/51
f 45/188/52 46/189/52 51/190/52 50/191/52
f 46/192/53 47/193/53 52/194/53 51/195/53
f 52/196/54 47/197/54 1/198/54
f 48/199/55 53/200/55 2/201/55
f 48/202/56 49/203/56 54/204/56 53/205/56
f 49/206/57 50/207/57 55/208/57 54/209/57
f 50/210/58 51/211/58 56/212/58 55/213/58
f 51/214/59 52/215/59 57/216/59 56/217/59
f 57/218/60 52/219/60 1/220/60
f 53/221/61 58/222/61 2/223/61
f 53/224/62 54/225/62 59/226/62 58/227/62
f 54/228/63 55/229/63 60/230/63 59/231/63
f 55/232/64 56/233/64 61/234/64 60/235/64
f 56/236/65 57/237/65 62/238/65 61/239/65
f 62/240/66 57/241/66 1/242/66
f 58/243/67 3/244/67 2/245/67
f 58/246/68 59/247/68 4/248/68 3/249/68
f 59/250/69 60/251/69 5/252/69 4/253/69
f 60/254/70 61/255/70 6/256/70 5/257/70
f 61/258/71 62/259/71 7/260/71 6/261/71
f 7/262/72 62/263/72 1/264/72
f 66/265/73 64/266/73 63/267/73
f 64/268/74 66/269/74 67/270/74 65/271/74
f 104/272/75 105/273/75 102/274/75
f 68/275/76 66/276/76 63/277/76
f 66/278/77 68/279/77 69/280/77 67/281/77
f 105/282/78 106/283/78 102/284/78
f 70/285/79 68/286/79 63/287/79
f 68/288/80 70/289/80 71/290/80 69/291/80
f 106/292/81 107/293/81 102/294/81
f 72/295/82 70/296/82 63/297/82
f 70/298/83 72/299/83 73/300/83 71/301/83
f 107/302/84 108/303/84 102/304/84
f 74/305/85 72/306/85 63/307/85
f 72/308/86 74/309/86 75/310/86 73/311/86
f 108/312/87 109/313/87 102/314/87
f 76/315/88 74/316/88 63/317/88
f 74/318/89 76/319/89 77/320/89 75/321/89
f 109/322/90 110/323/90 102/324/90
f 78/325/91 76/326/91 63/327/91
f 76/328/92 78/329/92 79/330/92 77/331/92
f 110/332/93 111/333/93 102/334/93
f 80/335/94 78/336/94 63/337/94
f 78/338/95 80/339/95 81/340/95 79/341/95
f 111/342/96 112/343/96 102/344/96
f 82/345/97 80/346/97 63/347/97
f 80/348/98 82/349/98 83/350/98 81/351/98
f 112/352/99 100/353/99 102/354/99
f 84/355/100 82/356/100 63/357/100
f 82/358/101 84/359/101 85/360/101 83/361/101
f 100/362/102 101/363/102 102/364/102
f 86/365/103 84/366/103 63/367/103
f 84/368/104 86/369/104 87/370/104 85/371/104
f 101/372/105 103/373/105 102/374/105
f 64/375/106 86/376/106 63/377/106
f 86/378/107 64/379/107 65/380/107 87/381/107
f 103/382/108 104/383/108 102/384/108
f 89/385/109 88/386/109 83/387/109 85/388/109
f 90/389/110 89/390/110 85/391/110 87/392/110
f 91/393/111 90/394/111 87/395/111 65/396/111
f 93/397/112 92/398/112 67/399/112 69/400/112
f 92/401/113 91/402/113 65/403/113 67/404/113
f 94/405/114 93/406/114 69/407/114 71/408/114
f 96/409/115 95/410/115 73/411/115 75/412/115
f 95/413/116 94/414/116 71/415/116 73/416/116
f 97/417/117 96/418/117 75/419/117 77/420/117
f 98/421/118 97/422/118 77/423/118 79/424/118
f 99/425/119 98/426/119 79/427/119 81/428/119
f 88/429/120 99/430/120 81/431/120 83/432/120
f 101/433/121 100/434/121 88/435/121 89/436/121
f 103/437/122 101/438/122 89/439/122 90/440/122
f 104/441/123 103/442/123 90/443/123 91/444/123
f 106/445/124 105/446/124 92/447/124 93/448/124
f 105/449/125 104/450/125 91/451/125 92/452/125
f 107/453/126 106/454/126 93/455/126 94/456/126
f 109/457/127 108/458/127 95/459/127 96/460/127
f 108/461/128 107/462/128 94/463/128 95/464/128
f 110/465/129 109/466/129 96/467/129 97/468/129
f 111/469/130 110/470/130 97/471/130 98/472/130
f 112/473/131 111/474/131 98/475/131 99/476/131
f 100/477/132 112/478/132 99/479/132 88/480/132
f 115/481/133 120/482/133 114/483/133
f 115/484/134 116/485/134 121/486/134 120/487/134
f 116/488/135 117/489/135 122/490/135 121/491/135
f 117/492/136 118/493/136 123/494/136 122/495/136
f 118/496/137 119/497/137 124/498/137 123/499/137
f 124/500/138 119/501/138 113/502/138
f 120/503/139 125/504/139 114/505/139
f 120/506/140 121/507/140 126/508/140 125/509/140
f 121/510/141 122/511/141 127/512/141 126/513/141
f 122/514/142 123/515/142 128/516/142 127/517/142
f 123/518/143 124/519/143 129/520/143 128/521/143
f 129/522/144 124/523/144 113/524/144
f 125/525/145 130/526/145 114/527/145
f 125/528/146 126/529/146 131/530/146 130/531/146
f 126/532/147 127/533/147 132/534/147 131/535/147
f 127/536/148 128/537/148 133/538/148 132/539/148
f 128/540/149 129/541/149 134/542/149 133/543/149
f 134/544/150 129/545/150 113/546/150
f 130/547/151 135/548/151 114/549/151
f 130/550/152 131/551/152 136/552/152 135/553/152
f 131/554/153 132/555/153 137/556/153 136/557/153
f 132/558/154 133/559/154 138/560/154 137/561/154
f 133/562/155 134/563/155 139/564/155 138/565/155
f 139/566/156 134/567/156 113/568/156
f 135/569/157 140/570/157 114/571/157
f 135/572/158 136/573/158 141/574/158 140/575/158
f 136/576/159 137/577/159 142/578/159 141/579/159
f 137/580/160 138/581/160 143/582/160 142/583/160
f 138/584/161 139/585/161 144/586/161 143/587/161
f 144/588/162 139/589/162 113/590/162
f 140/591/163 145/592/163 114/593/163
f 140/594/164 141/595/164 146/596/164 145/597/164
f 141/598/165 142/599/165 147/600/165 146/601/165
f 142/602/166 143/603/166 148/604/166 147/605/166
f 143/606/167 144/607/167 149/608/167 148/609/167
f 149/610/168 144/611/168 113/612/168
f 145/613/169 150/614/169 114/615/169
f 145/616/170 146/617/170 151/618/170 150/619/170
f 146/620/171 147/621/171 152/622/171 151/623/171
f 147/624/172 148/625/172 153/626/172 152/627/172
f 148/628/173 149/629/173 154/630/173 153/631/173
f 154/632/174 149/633/174 113/634/174
f 150/635/175 155/636/175 114/637/175
f 150/638/176 151/639/176 156/640/176 155/641/176
f 151/642/177 152/643/177 157/644/177 156/645/177
f 152/646/178 153/647/178 158/648/178 157/649/178
f 153/650/179 154/651/179 159/652/179 158/653/179
f 159/654/180 154/655/180 113/656/180
f 155/657/181 160/658/181 114/659/181
f 155/660/182 156/661/182 161/662/182 160/663/182
f 156/664/183 157/665/183 162/666/183 161/667/183
f 157/668/184 158/669/184 163/670/184 162/671/184
f 158/672/185 159/673/185 164/674/185 163/675/185
f 164/676/186 159/677/186 113/678/186
f 160/679/187 165/680/187 114/681/187
f 160/682/188 161/683/188 166/684/188 165/685/188
f 161/686/189 162/687/189 167/688/189 166/689/189
f 162/690/190 163/691/190 168/692/190 167/693/190
f 163/694/191 164/695/191 169/696/191 168/697/191
f 169/698/192 164/699/192 113/700/192
f 165/701/193 170/702/193 114/703/193
f 165/704/194 166/705/194 171/706/194 170/707/194
f 166/708/195 167/709/195 172/710/195 171/711/195
f 167/712/196 168/713/196 173/714/196 172/715/196
f 168/716/197 169/717/197 174/718/197 173/719/197
f 174/720/198 169/721/198 113/722/198
f 170/723/199 115/724/199 114/725/199
f 170/726/200 171/727/200 116/728/200 115/729/200
f 171/730/201 172/731/201 117/732/201 116/733/201
f 172/734/202 173/735/202 118/736/202 117/737/202
f 173/738/203 174/739/203 119/740/203 118/741/203
f 119/742/204 174/743/204 113/744/204
f 178/745/205 176/746/205 175/747/205
f 176/748/206 178/749/206 179/750/206 177/751/206
f 216/752/207 217/753/207 214/754/207
f 180/755/208 178/756/208 175/757/208
f 178/758/209 180/759/209 181/760/209 179/761/209
f 217/762/210 218/763/210 214/764/210
f 182/765/211 180/766/211 175/767/211
f 180/768/212 182/769/212 183/770/212 181/771/212
f 218/772/213 219/773/213 214/774/213
f 184/775/214 182/776/214 175/777/214
f 182/778/215 184/779/215 185/780/215 183/781/215
f 219/782/216 220/783/216 214/784/216
f 186/785/217 184/786/217 175/787/217
f 184/788/218 186/789/218 187/790/218 185/791/218
f 220/792/219 221/793/219 214/794/219
f 188/795/220 186/796/220 175/797/220
f 186/798/221 188/799/221 189/800/221 187/801/221
f 221/802/222 222/803/222 214/804/222
f 190/805/223 188/806/223 175/807/223
f 188/808/224 190/809/224 191/810/224 189/811/224
f 222/812/225 223/813/225 214/814/225
f 192/815/226 190/816/226 175/817/226
f 190/818/227 192/819/227 193/820/227 191/821/227
f 223/822/228 224/823/228 214/824/228
f 194/825/229 192/826/229 175/827/229
f 192/828/230 194/829/230 195/830/230 193/831/230
f 224/832/231 212/833/231 214/834/231
f 196/835/232 194/836/232 175/837/232
f 194/838/233 196/839/233 197/840/233 195/841/233
f 212/842/234 213/843/234 214/844/234
f 198/845/235 196/846/235 175/847/235
f 196/848/236 198/849/236 199/850/236 197/851/236
f 213/852/237 215/853/237 214/854/237
f 176/855/238 198/856/238 175/857/238
f 198/858/239 176/859/239 177/860/239 199/861/239
f 215/862/240 216/863/240 214/864/240
f 201/865/241 200/866/241 195/867/241 197/868/241
f 202/869/242 201/870/242 197/871/242 199/872/242
f 203/873/243 202/874/243 199/875/243 177/876/243
f 205/877/244 204/878/244 179/879/244 181/880/244
f 204/881/245 203/882/245 177/883/245 179/884/245
f 206/885/246 205/886/246 181/887/246 183/888/246
f 208/889/247 207/890/247 185/891/247 187/892/247
f 207/893/248 206/894/248 183/895/248 185/896/248
f 209/897/249 208/898/249 187/899/249 189/900/249
f 210/901/250 209/902/250 189/903/250 191/904/250
f 211/905/251 210/906/251 191/907/251 193/908/251
f 200/909/252 211/910/252 193/911/252 195/912/252
f 213/913/253 212/914/253 200/915/253 201/916/253
f 215/917/254 213/918/254 201/919/254 202/920/254
f 216/921/255 215/922/255 202/923/255 203/924/255
f 218/925/256 217/926/256 204/927/256 205/928/256
f 217/929/257 216/930/257 203/931/257 204/932/257
f 219/933/258 218/934/258 205/935/258 206/936/258
f 221/937/259 220/938/259 207/939/259 208/940/259
f 220/941/260 219/942/260 206/943/260 207/944/260
f 222/945/261 221/946/261 208/947/261 209/948/261
f 223/949/262 222/950/262 209/951/262 210/952/262
f 224/953/263 223/954/263 210/955/263 211/956/263
f 212/957/264 224/958/264 211/959/264 200/960/264
o sphere_selection
v -0.011104918468827663 0.0625000000000003 2.208876118981759
v 0.10676852376646229 0.0625000000000003 1.7035961467460057
v 0.20050685059630766 0.0625000000000003 0.8236036472658336
v -0.21160054080621282 0.0625000000000003 0.8056106499776323
v -0.1949153165148917 0.0625000000000003 1.6904243458190613
v -0.12152846958999464 0.0625000000000003 2.204054922620503
v -0.21160054080621282 0.12500000000000044 0.8056106499776323
v -0.1949153165148917 0.12500000000000044 1.6904243458190613
v 0.016696452550243865 0.12500000000000044 0.3051518741031363
v -0.12152846958999464 0.12500000000000044 2.204054922620503
v -0.011104918468827663 0.12500000000000044 2.208876118981759
v 0.10676852376646229 0.12500000000000044 1.7035961467460057
v 0.20050685059630766 0.12500000000000044 0.8236036472658336
v -0.1908833810620276 0.12500000000000044 0.3311096803674041
v 0.22176344667494197 0.12500000000000044 0.33674755432308645
v 0.2253467653006876 0.12500000000000044 0.2546760646336812
v -0.18935724315101668 0.0625000000000003 0.2961553754590357
v -0.18938144438996252 0.11769650783726159 0.29670963615404267
v 0.22167291867494712 0.0625000000000003 0.33882098641053415
vt 0.04447314693358203 0.41818920322933784
vt 0.05585844683251954 0.21068301899288444
vt 0.08696521848582324 0.5379944444444444
vt 0.05585844683251954 0.21068301899288444
vt 0.07557991858688573 0.09087777777777772
vt 0.08696521848582324 0.5379944444444444
vt 0.07557991858688573 0.09087777777777772
vt 0.09835051838475355 0.09087777777777772
vt 0.08696521848582324 0.5379944444444444
vt 0.09835051838475355 0.09087777777777772
vt 0.11807199013912693 0.21068301899288444
vt 0.08696521848582324 0.5379944444444444
vt 0.11807199013912693 0.21068301899288444
vt 0.12945729003805734 0.41818920322933784
vt 0.08696521848582324 0.5379944444444444
vt 0.032159499999999994 0.6569999999999999
vt 0.017999999999999995 0.6569999999999999
vt 0.017999999999999995 0.6559999999999999
vt 0.032159499999999994 0.6559999999999999
vt 0.03630160000000001 0.575
vt 0.028000000000000008 0.575
vt 0.028000000000000008 0.574
vt 0.03630160000000001 0.574
vt 0.04376839999999995 0.5459999999999999
vt 0.04199999999999995 0.5459999999999999
vt 0.04199999999999995 0.5449999999999999
vt 0.04376839999999995 0.5449999999999999
vt 0.05830160000000004 0.575
vt 0.05000000000000004 0.575
vt 0.05000000000000004 0.574
vt 0.05830160000000004 0.574
vt 0.06915959999999996 0.6569999999999999
vt 0.05499999999999995 0.6569999999999999
vt 0.05499999999999995 0.6559999999999999
vt 0.06915959999999996 0.6559999999999999
vt 0.04447314693358203 0.5297744707970808
vt 0.04447314693358203 0.41818920322933784
vt 0.08696521848582324 0.5379944444444444
vt 0.12945729003805734 0.41818920322933784
vt 0.12945729003805734 0.5326799437701368
vt 0.08696521848582324 0.5379944444444444
vt 0.06479707083428203 0.7689999999999999
vt 0.056999999999999995 0.7689999999999999
vt 0.056999999999999995 0.7679999999999999
vt 0.12945729003805734 0.5326799437701368
vt 0.12945729003805734 0.5519801554097425
vt 0.08696521848582324 0.5379944444444444
vt 0.022167976675275314 0.7688831441253962
vt 0.03031819999999997 0.7679999999999999
vt 0.03031819999999997 0.7689999999999999
vt 0.022718905116253765 0.7689999999999999
vt 0.02215910000000023 0.7679999999999999
vt 0.03031819999999997 0.7679999999999999
vt 0.022167976675275314 0.7688831441253962
vt 0.06611145762713362 0.7689999999999999
vt 0.06479707083428203 0.7689999999999999
vt 0.06476386451913008 0.7679999999999999
vt 0.06479707083428203 0.7689999999999999
vt 0.056999999999999995 0.7679999999999999
vt 0.06476386451913008 0.7679999999999999
vt 0 1
vt 4.440892098500626e-19 0.9966979224176286
vt 0.0005631921944924221 0.9967005208907976
vt 0.0034347 1
vt 0 1
vt 0.0066077 0.9990859
vt 0 1
vt 0.0033 0.999
vt 0.0033 0.9998832
vt 0.0034347 1
vt 0 1
vt 0.0066053 0.9986445
vt 0 0.9983238
vt 0.0066118 0.9983238
vt 0.00008050000000000024 1
vt 0 0.9918410000009366
vt 0.006600123621969681 1
vt 1.2362121210562905e-7 1
vt 0.0066 0.992236
vt 0.0066 1
vt 0 0.9918409
vt 0.005716014119040859 1
vt 0 0.9858681866046524
vt 0.006600000000757576 0.9858681866046524
vt 0.0057158 1
vt 0.0008841999999999999 1
vt 0 0.9858681
vt 0.0015316000000000001 1
vt 0 0.9918409
vt 0.0033 1
vt 0.0033 1
vt 0 0.9918409
vt 0.0048316 0.9918409
vn 0 1 0
vn 0 1 0
vn 0 1 0
vn 0 1 0
vn 0 1 0
vn -0.9998222479481742 0 0.018853978568453167
vn -0.9899465117643415 0 0.14144222794347022
vn -0.04361938736533789 0 0.9990482215818578
vn 0.9738519639817586 0 0.22718352107684214
vn 0.9943743899342599 0 0.10592248412338423
vn 0 1 0
vn 0 1 0
vn 0.9990482215818578 0 0.043619387365335605
vn 0 1 0
vn -0.9990482217268122 0 -0.04361938404533494
vn -0.9990482215818575 -3.06680999777197e-8 -0.04361938736533472
vn 0.9990482215818579 -2.2805948849999023e-15 0.04361938736533555
vn 0.9990482215818579 -2.24506682550786e-15 0.04361938736533533
vn -0.026097993245819198 0.9776312372582984 -0.20870088328837985
vn -0.030059368327731317 0.9917948410703277 -0.12425549324686495
vn 0.040574243298695356 0.010050603319242518 -0.9991259761179556
vn -0.1734639386298106 0.6751001327194459 -0.7170425878545987
vn 0.0615969492940098 -0.8025398936360988 -0.5934100900391148
vn 0 -1 0
vn 0 -1 0
vn 0 -1 0
vn 0 -1 0
vn 0 -1 0
vn 0 -1 0
usemtl m_e8ba60eb-4507-43ab-0bf6-99b65e21ffd5
f 231/961/265 232/962/265 233/963/265
f 232/964/266 234/965/266 233/966/266
f 234/967/267 235/968/267 233/969/267
f 235/970/268 236/971/268 233/972/268
f 236/973/269 237/974/269 233/975/269
f 232/976/270 231/977/270 228/978/270 229/979/270
f 234/980/271 232/981/271 229/982/271 230/983/271
f 235/984/272 234/985/272 230/986/272 225/987/272
f 236/988/273 235/989/273 225/990/273 226/991/273
f 237/992/274 236/993/274 226/994/274 227/995/274
f 238/996/275 231/997/275 233/998/275
f 237/999/276 239/1000/276 233/1001/276
f 239/1002/277 237/1003/277 227/1004/277
f 239/1005/278 240/1006/278 233/1007/278
f 242/1008/279 228/1009/279 231/1010/279 238/1011/279
f 241/1012/280 228/1013/280 242/1014/280
f 240/1015/281 239/1016/281 243/1017/281
f 239/1018/282 227/1019/282 243/1020/282
f 233/1021/283 242/1022/283 238/1023/283
f 233/1024/284 240/1025/284 242/1026/284
f 233/1027/285 241/1028/285 242/1029/285
f 233/1030/286 240/1031/286 241/1032/286
f 243/1033/287 241/1034/287 240/1035/287
f 241/1036/288 227/1037/288 228/1038/288
f 243/1039/289 227/1040/289 241/1041/289
f 226/1042/290 228/1043/290 227/1044/290
f 226/1045/291 229/1046/291 228/1047/291
f 230/1048/292 229/1049/292 225/1050/292
f 225/1051/293 229/1052/293 226/1053/293
o sphere_selection
v 1.916301542085395 0.0625000000000003 -1.0960874801429554
v 1.4197795289880915 0.0625000000000003 -0.9455288894323572
v 0.6108145058835758 0.0625000000000003 -0.5867124120351652
v 0.801285808843029 0.0625000000000003 -0.22082044334914508
v 1.5592143349124434 0.0625000000000003 -0.677677119373985
v 1.9673380391204973 0.0625000000000003 -0.998047281515307
v 0.801285808843029 0.12500000000000044 -0.22082044334914508
v 1.5592143349124434 0.12500000000000044 -0.677677119373985
v 0.2537272987106247 0.12500000000000044 -0.16830205126619574
v 1.9673380391204973 0.12500000000000044 -0.998047281515307
v 1.916301542085395 0.12500000000000044 -1.0960874801429554
v 1.4197795289880915 0.12500000000000044 -0.9455288894323572
v 0.6108145058835758 0.12500000000000044 -0.5867124120351652
v 0.3799973351681312 0.12500000000000044 -0.0015115451767556826
v 0.1785564633686019 0.12500000000000044 -0.36169311776587354
v 0.10568880905827152 0.12500000000000044 -0.32376061788092053
v 0.34896295019035156 0.0625000000000003 0.014643933076814594
v 0.34945505465201976 0.11769650783726159 0.01438776161704125
v 0.18039737222935084 0.0625000000000003 -0.36265143426184804
vt 0.04447314693358203 0.41818920322933784
vt 0.05585844683251954 0.21068301899288444
vt 0.08696521848582324 0.5379944444444444
vt 0.05585844683251954 0.21068301899288444
vt 0.07557991858688573 0.09087777777777772
vt 0.08696521848582324 0.5379944444444444
vt 0.07557991858688573 0.09087777777777772
vt 0.09835051838475355 0.09087777777777772
vt 0.08696521848582324 0.5379944444444444
vt 0.09835051838475355 0.09087777777777772
vt 0.11807199013912693 0.21068301899288444
vt 0.08696521848582324 0.5379944444444444
vt 0.11807199013912693 0.21068301899288444
vt 0.12945729003805734 0.41818920322933784
vt 0.08696521848582324 0.5379944444444444
vt 0.032159499999999994 0.6569999999999999
vt 0.017999999999999995 0.6569999999999999
vt 0.017999999999999995 0.6559999999999999
vt 0.032159499999999994 0.6559999999999999
vt 0.03630160000000001 0.575
vt 0.028000000000000008 0.575
vt 0.028000000000000008 0.574
vt 0.03630160000000001 0.574
vt 0.04376839999999995 0.5459999999999999
vt 0.04199999999999995 0.5459999999999999
vt 0.04199999999999995 0.5449999999999999
vt 0.04376839999999995 0.5449999999999999
vt 0.05830160000000004 0.575
vt 0.05000000000000004 0.575
vt 0.05000000000000004 0.574
vt 0.05830160000000004 0.574
vt 0.06915959999999996 0.6569999999999999
vt 0.05499999999999995 0.6569999999999999
vt 0.05499999999999995 0.6559999999999999
vt 0.06915959999999996 0.6559999999999999
vt 0.04447314693358203 0.5297744707970808
vt 0.04447314693358203 0.41818920322933784
vt 0.08696521848582324 0.5379944444444444
vt 0.12945729003805734 0.41818920322933784
vt 0.12945729003805734 0.5326799437701368
vt 0.08696521848582324 0.5379944444444444
vt 0.06479707083428203 0.7689999999999999
vt 0.056999999999999995 0.7689999999999999
vt 0.056999999999999995 0.7679999999999999
vt 0.12945729003805734 0.5326799437701368
vt 0.12945729003805734 0.5519801554097425
vt 0.08696521848582324 0.5379944444444444
vt 0.022167976675275314 0.7688831441253962
vt 0.03031819999999997 0.7679999999999999
vt 0.03031819999999997 0.7689999999999999
vt 0.022718905116253765 0.7689999999999999
vt 0.02215910000000023 0.7679999999999999
vt 0.03031819999999997 0.7679999999999999
vt 0.022167976675275314 0.7688831441253962
vt 0.06611145762713362 0.7689999999999999
vt 0.06479707083428203 0.7689999999999999
vt 0.06476386451913008 0.7679999999999999
vt 0.06479707083428203 0.7689999999999999
vt 0.056999999999999995 0.7679999999999999
vt 0.06476386451913008 0.7679999999999999
vt 0 1
vt 4.440892098500626e-19 0.9966979224176286
vt 0.0005631921944924221 0.9967005208907976
vt 0.0034347 1
vt 0 1
vt 0.0066077 0.9990859
vt 0 1
vt 0.0033 0.999
vt 0.0033 0.9998832
vt 0.0034347 1
vt 0 1
vt 0.0066053 0.9986445
vt 0 0.9983238
vt 0.0066118 0.9983238
vt 0.00008050000000000024 1
vt 0 0.9918410000009366
vt 0.006600123621969681 1
vt 1.2362121210562905e-7 1
vt 0.0066 0.992236
vt 0.0066 1
vt 0 0.9918409
vt 0.005716014119040859 1
vt 0 0.9858681866046524
vt 0.006600000000757576 0.9858681866046524
vt 0.0057158 1
vt 0.0008841999999999999 1
vt 0 0.9858681
vt 0.0015316000000000001 1
vt 0 0.9918409
vt 0.0033 1
vt 0.0033 1
vt 0 0.9918409
vt 0.0048316 0.9918409
vn 0 1 0
vn 0 1 0
vn 0 1 0
vn 0 1 0
vn 0 1 0
vn 0.5162391483767752 0 0.856444476707756
vn 0.6174658184490854 0 0.7865977136039749
vn 0.8870108331782225 0 -0.46174861323503247
vn -0.2901792814171366 0 -0.9569723008719919
vn -0.4054556328843259 0 -0.9141147246174142
vn 0 1 0
vn 0 1 0
vn -0.4617486132350346 0 -0.8870108331782214
vn 0 1 0
vn 0.46174861618271673 0 0.8870108316437552
vn 0.4617486132350352 -3.066809997964568e-8 0.8870108331782205
vn -0.4617486132350345 -2.2805948849999023e-15 -0.8870108331782215
vn -0.46174861323503485 -2.2504292462694234e-15 -0.8870108331782213
vn -0.16769127009707863 0.9776312372582984 0.12695196678286413
vn -0.09257872954768508 0.9917948410703274 0.08815992321696113
vn -0.8855555985484215 0.010050603319242518 0.4644246626229773
vn -0.5342451273625121 0.675100132719446 0.5087454714212202
vn -0.5447066874828894 -0.8025398936360988 0.2433605221353231
vn 0 -1 0
vn 0 -1 0
vn 0 -1 0
vn 0 -1 0
vn 0 -1 0
vn 0 -1 0
usemtl m_e8ba60eb-4507-43ab-0bf6-99b65e21ffd5
f 250/1054/294 251/1055/294 252/1056/294
f 251/1057/295 253/1058/295 252/1059/295
f 253/1060/296 254/1061/296 252/1062/296
f 254/1063/297 255/1064/297 252/1065/297
f 255/1066/298 256/1067/298 252/1068/298
f 251/1069/299 250/1070/299 247/1071/299 248/1072/299
f 253/1073/300 251/1074/300 248/1075/300 249/1076/300
f 254/1077/301 253/1078/301 249/1079/301 244/1080/301
f 255/1081/302 254/1082/302 244/1083/302 245/1084/302
f 256/1085/303 255/1086/303 245/1087/303 246/1088/303
f 257/1089/304 250/1090/304 252/1091/304
f 256/1092/305 258/1093/305 252/1094/305
f 258/1095/306 256/1096/306 246/1097/306
f 258/1098/307 259/1099/307 252/1100/307
f 261/1101/308 247/1102/308 250/1103/308 257/1104/308
f 260/1105/309 247/1106/309 261/1107/309
f 259/1108/310 258/1109/310 262/1110/310
f 258/1111/311 246/1112/311 262/1113/311
f 252/1114/312 261/1115/312 257/1116/312
f 252/1117/313 259/1118/313 261/1119/313
f 252/1120/314 260/1121/314 261/1122/314
f 252/1123/315 259/1124/315 260/1125/315
f 262/1126/316 260/1127/316 259/1128/316
f 260/1129/317 246/1130/317 247/1131/317
f 262/1132/318 246/1133/318 260/1134/318
f 245/1135/319 247/1136/319 246/1137/319
f 245/1138/320 248/1139/320 247/1140/320
f 249/1141/321 248/1142/321 244/1143/321
f 244/1144/322 248/1145/322 245/1146/322
o sphere_selection
v -1.9772894055530301 0.0625000000000003 -0.9852399066892078
v -1.5691657013449758 0.0625000000000003 -0.6648697445478867
v -0.811237175275562 0.0625000000000003 -0.2080130685230484
v -0.6207658723161086 0.0625000000000003 -0.573905037209068
v -1.4297308954206247 0.0625000000000003 -0.9327215146062591
v -1.9262529085179283 0.0625000000000003 -1.0832801053168564
v -0.6207658723161086 0.12500000000000044 -0.573905037209068
v -1.4297308954206247 0.12500000000000044 -0.9327215146062591
v -0.2636786651431575 0.12500000000000044 -0.15549467644009984
v -1.9262529085179283 0.12500000000000044 -1.0832801053168564
v -1.9772894055530301 0.12500000000000044 -0.9852399066892078
v -1.5691657013449758 0.12500000000000044 -0.6648697445478867
v -0.811237175275562 0.12500000000000044 -0.2080130685230484
v -0.19947739864121025 0.12500000000000044 -0.35459613903667986
v -0.37897913276058853 0.12500000000000044 0.017006225746242498
v -0.3061114784502579 0.12500000000000044 0.05493872563119574
v -0.16844301366343087 0.0625000000000003 -0.33844066078310986
v -0.16893511656182894 0.11769650783726159 -0.33869683524589744
v -0.3808200416213372 0.0625000000000003 0.016047909250267917
vt 0.04447314693358203 0.41818920322933784
vt 0.05585844683251954 0.21068301899288444
vt 0.08696521848582324 0.5379944444444444
vt 0.05585844683251954 0.21068301899288444
vt 0.07557991858688573 0.09087777777777772
vt 0.08696521848582324 0.5379944444444444
vt 0.07557991858688573 0.09087777777777772
vt 0.09835051838475355 0.09087777777777772
vt 0.08696521848582324 0.5379944444444444
vt 0.09835051838475355 0.09087777777777772
vt 0.11807199013912693 0.21068301899288444
vt 0.08696521848582324 0.5379944444444444
vt 0.11807199013912693 0.21068301899288444
vt 0.12945729003805734 0.41818920322933784
vt 0.08696521848582324 0.5379944444444444
vt 0.032159499999999994 0.6569999999999999
vt 0.017999999999999995 0.6569999999999999
vt 0.017999999999999995 0.6559999999999999
vt 0.032159499999999994 0.6559999999999999
vt 0.03630160000000001 0.575
vt 0.028000000000000008 0.575
vt 0.028000000000000008 0.574
vt 0.03630160000000001 0.574
vt 0.04376839999999995 0.5459999999999999
vt 0.04199999999999995 0.5459999999999999
vt 0.04199999999999995 0.5449999999999999
vt 0.04376839999999995 0.5449999999999999
vt 0.05830160000000004 0.575
vt 0.05000000000000004 0.575
vt 0.05000000000000004 0.574
vt 0.05830160000000004 0.574
vt 0.06915959999999996 0.6569999999999999
vt 0.05499999999999995 0.6569999999999999
vt 0.05499999999999995 0.6559999999999999
vt 0.06915959999999996 0.6559999999999999
vt 0.04447314693358203 0.5297744707970808
vt 0.04447314693358203 0.41818920322933784
vt 0.08696521848582324 0.5379944444444444
vt 0.12945729003805734 0.41818920322933784
vt 0.12945729003805734 0.5326799437701368
vt 0.08696521848582324 0.5379944444444444
vt 0.06479707083428203 0.7689999999999999
vt 0.056999999999999995 0.7689999999999999
vt 0.056999999999999995 0.7679999999999999
vt 0.12945729003805734 0.5326799437701368
vt 0.12945729003805734 0.5519801554097425
vt 0.08696521848582324 0.5379944444444444
vt 0.022167976675275314 0.7688831441253962
vt 0.03031819999999997 0.7679999999999999
vt 0.03031819999999997 0.7689999999999999
vt 0.022718905116253765 0.7689999999999999
vt 0.02215910000000023 0.7679999999999999
vt 0.03031819999999997 0.7679999999999999
vt 0.022167976675275314 0.7688831441253962
vt 0.06611145762713362 0.7689999999999999
vt 0.06479707083428203 0.7689999999999999
vt 0.06476386451913008 0.7679999999999999
vt 0.06479707083428203 0.7689999999999999
vt 0.056999999999999995 0.7679999999999999
vt 0.06476386451913008 0.7679999999999999
vt 0 1
vt 4.440892098500626e-19 0.9966979224176286
vt 0.0005631921944924221 0.9967005208907976
vt 0.0034347 1
vt 0 1
vt 0.0066077 0.9990859
vt 0 1
vt 0.0033 0.999
vt 0.0033 0.9998832
vt 0.0034347 1
vt 0 1
vt 0.0066053 0.9986445
vt 0 0.9983238
vt 0.0066118 0.9983238
vt 0.00008050000000000024 1
vt 0 0.9918410000009366
vt 0.006600123621969681 1
vt 1.2362121210562905e-7 1
vt 0.0066 0.992236
vt 0.0066 1
vt 0 0.9918409
vt 0.005716014119040859 1
vt 0 0.9858681866046524
vt 0.006600000000757576 0.9858681866046524
vt 0.0057158 1
vt 0.0008841999999999999 1
vt 0 0.9858681
vt 0.0015316000000000001 1
vt 0 0.9918409
vt 0.0033 1
vt 0.0033 1
vt 0 0.9918409
vt 0.0048316 0.9918409
vn 0 1 0
vn 0 1 0
vn 0 1 0
vn 0 1 0
vn 0 1 0
vn 0.4054556328843249 0 -0.9141147246174144
vn 0.2901792814171349 0 -0.9569723008719926
vn -0.8870108331782237 0 -0.4617486132350304
vn -0.6174658184490842 0 0.786597713603976
vn -0.5162391483767741 0 0.8564444767077567
vn 0 1 0
vn 0 1 0
vn -0.4617486132350337 0 0.8870108331782218
vn 0 1 0
vn 0.4617486102873515 0 -0.8870108347126879
vn 0.46174861323503247 -3.0668099274259913e-8 -0.8870108331782218
vn -0.4617486132350358 -6.757318177777455e-16 0.8870108331782208
vn -0.4617486132350335 -6.917522782416738e-16 0.8870108331782219
vn 0.2001767242261573 0.9776312372582978 0.06454799001436906
vn 0.12531735910340347 0.9917948410703276 0.02526960097889766
vn 0.8883682362119588 0.010050603319245583 0.4590216359416761
vn 0.7231703092279607 0.675100132719445 0.14582357372291854
vn 0.5117801898694039 -0.8025398936360997 0.3066117355545851
vn 0 -1 0
vn 0 -1 0
vn 0 -1 0
vn 0 -1 0
vn 0 -1 0
vn 0 -1 0
usemtl m_e8ba60eb-4507-43ab-0bf6-99b65e21ffd5
f 269/1147/323 270/1148/323 271/1149/323
f 270/1150/324 272/1151/324 271/1152/324
f 272/1153/325 273/1154/325 271/1155/325
f 273/1156/326 274/1157/326 271/1158/326
f 274/1159/327 275/1160/327 271/1161/327
f 270/1162/328 269/1163/328 266/1164/328 267/1165/328
f 272/1166/329 270/1167/329 267/1168/329 268/1169/329
f 273/1170/330 272/1171/330 268/1172/330 263/1173/330
f 274/1174/331 273/1175/331 263/1176/331 264/1177/331
f 275/1178/332 274/1179/332 264/1180/332 265/1181/332
f 276/1182/333 269/1183/333 271/1184/333
f 275/1185/334 277/1186/334 271/1187/334
f 277/1188/335 275/1189/335 265/1190/335
f 277/1191/336 278/1192/336 271/1193/336
f 280/1194/337 266/1195/337 269/1196/337 276/1197/337
f 279/1198/338 266/1199/338 280/1200/338
f 278/1201/339 277/1202/339 281/1203/339
f 277/1204/340 265/1205/340 281/1206/340
f 271/1207/341 280/1208/341 276/1209/341
f 271/1210/342 278/1211/342 280/1212/342
f 271/1213/343 279/1214/343 280/1215/343
f 271/1216/344 278/1217/344 279/1218/344
f 281/1219/345 279/1220/345 278/1221/345
f 279/1222/346 265/1223/346 266/1224/346
f 281/1225/347 265/1226/347 279/1227/347
f 264/1228/348 266/1229/348 265/1230/348
f 264/1231/349 267/1232/349 266/1233/349
f 268/1234/350 267/1235/350 263/1236/350
f 263/1237/351 267/1238/351 264/1239/351