# Made in Blockbench 5.0.2
mtllib quadro.mtl

o cuboid
v 0.10625000000000001 0.9875 1.6062500000000002
v 0.10625000000000001 0.9875 -1.66875
v 0.10625000000000001 -1.1125 1.6062500000000002
v 0.10625000000000001 -1.1125 -1.66875
v -0.10625 0.9875 1.6062500000000002
v -0.10625 0.9875 -1.66875
v -0.10625 -1.1125 1.6062500000000002
v -0.10625 -1.1125 -1.66875
v -0.10625 -0.9025000000000001 1.27875
v -0.10625 0.7775000000000001 1.27875
v -0.10625 0.7775000000000001 -1.34125
v -0.10625 -0.9025000000000001 -1.34125
v -0.04375 -0.9025000000000001 1.27875
v -0.04375 0.7775000000000001 1.27875
v -0.04375 0.7775000000000001 -1.34125
v -0.04375 -0.9025000000000001 -1.34125
vt 0.9787157793132407 0.9601063829787234
vt 0.9744897959183674 0.9601063829787234
vt 0.9744897959183674 0.9581209682420079
vt 0.9787157793132407 0.9581209682420079
vt 0.44012566596928776 0.6472187777828562
vt 0.44012566596928776 0.655663811315555
vt 0.42010201088003596 0.655663811315555
vt 0.42010201088003596 0.6472187777828562
vt 0.02507427331297329 0.4225456981733485
vt 0.10914305422204579 0.4225456981733485
vt 0.10914305422204579 0.9296247205608433
vt 0.02507427331297329 0.9296247205608433
vt 0.10914305422204579 0.4225456981733485
vt 0.10914305422204579 0.9296247205608433
vt 0.02507427331297329 0.9296247205608433
vt 0.02507427331297329 0.4225456981733485
vt 0.10914305422204579 0.6760852093670959
vt 0.10914305422204579 0.9296247205608433
vt 0.02507427331297329 0.9296247205608433
vt 0.02507427331297329 0.6760852093670959
vt 0.10914305422204579 0.9296247205608433
vt 0.02507427331297329 0.9296247205608433
vt 0.02507427331297329 0.6760852093670959
vt 0.10914305422204579 0.6760852093670959
vt 0.6718306900793612 0.8959576895577183
vt 0.6780403159419633 0.40387111509360096
vt 0.8462925170068023 0.2935452975585374
vt 0.8462925170068023 1
vt 0.17828007324920014 0.894638153068234
vt 0.6750119291751249 0.894638153068234
vt 0.8296507196950293 0.99654407109897
vt 0.03319455328714501 0.99654407109897
vt 0.16036769095323294 0.40676152835628054
vt 0.16371133564848006 0.8940098023589559
vt 0.02077530156194107 0.9934023175525791
vt 0.02077530156194107 0.3073690131626574
vt 0.6841353025578712 0.39792691738382935
vt 0.16533539164331446 0.39792691738382935
vt 0.024596609785080742 0.29624720560843354
vt 0.8205751126650728 0.29624720560843354
vt 0.22712594561148292 0.8322303606227248
vt 0.22712594561148292 0.823785327090026
vt 0.2276036091393753 0.823785327090026
vt 0.2276036091393753 0.8322303606227248
vt 0.2218716468046658 0.8366288155876721
vt 0.2218716468046658 0.8234585847212014
vt 0.22234931033255836 0.8234585847212014
vt 0.22234931033255836 0.8366288155876721
vt 0.21757267505363379 0.823785327090026
vt 0.21757267505363379 0.8322303606227248
vt 0.2170950115257414 0.8322303606227248
vt 0.2170950115257414 0.823785327090026
vt 0.2218716468046658 0.8325445359773639
vt 0.2218716468046658 0.819374305110893
vt 0.22234931033255836 0.819374305110893
vt 0.22234931033255836 0.8325445359773639
vn 1 0 0
vn -1 0 0
vn 0 1 0
vn 0 -1 0
vn 0 0 1
vn 0 0 -1
vn -1 0 0
vn -1 0 0
vn -1 0 0
vn -1 0 0
vn 0 0 -1
vn 0 -1 0
vn 0 0 1
vn 0 1 0
usemtl m_12451347-5d8b-96f5-ae64-3343ce5a42d8
f 2/1/1 1/2/1 3/3/1 4/4/1
f 13/5/2 14/6/2 15/7/2 16/8/2
f 5/9/3 1/10/3 2/11/3 6/12/3
f 4/13/4 3/14/4 7/15/4 8/16/4
f 3/17/5 1/18/5 5/19/5 7/20/5
f 6/21/6 2/22/6 4/23/6 8/24/6
f 10/25/7 9/26/7 7/27/7 5/28/7
f 11/29/8 10/30/8 5/31/8 6/32/8
f 12/33/9 11/34/9 6/35/9 8/36/9
f 9/37/10 12/38/10 8/39/10 7/40/10
f 14/41/11 13/42/11 9/43/11 10/44/11
f 15/45/12 14/46/12 10/47/12 11/48/12
f 16/49/13 15/50/13 11/51/13 12/52/13
f 13/53/14 16/54/14 12/55/14 9/56/14
o cuboid
v 0.0625 0.875 1.3125
v 0.0625 0.875 -1.375
v 0.0625 -1 1.3125
v 0.0625 -1 -1.375
v -0.0625 0.875 1.3125
v -0.0625 0.875 -1.375
v -0.0625 -1 1.3125
v -0.0625 -1 -1.375
vt 0.002403614445476713 1
vt 0 1
vt 0 0.9979212182956345
vt 0.002403614445476713 0.9979212182956345
vt 0.9953288173574885 0.019504452031948727
vt 0.9965408306825897 0.29628528187219916
vt 0 0.29628528187219916
vt 0 0.01808510638297889
vt 0 0.9958424365912691
vt 0.002403614445476713 0.9958424365912691
vt 0.002403614445476713 1
vt 0 1
vt 0.002403614445476713 0.9958424365912691
vt 0.002403614445476713 1
vt 0 1
vt 0 0.9958424365912691
vt 0.002403614445476713 0.9979212182956345
vt 0.002403614445476713 1
vt 0 1
vt 0 0.9979212182956345
vt 0.002403614445476713 1
vt 0 1
vt 0 0.9979212182956345
vt 0.002403614445476713 0.9979212182956345
vn 1 0 0
vn -1 0 0
vn 0 1 0
vn 0 -1 0
vn 0 0 1
vn 0 0 -1
usemtl m_12451347-5d8b-96f5-ae64-3343ce5a42d8
f 18/57/15 17/58/15 19/59/15 20/60/15
f 23/61/16 21/62/16 22/63/16 24/64/16
f 21/65/17 17/66/17 18/67/17 22/68/17
f 20/69/18 19/70/18 23/71/18 24/72/18
f 19/73/19 17/74/19 21/75/19 23/76/19
f 22/77/20 18/78/20 20/79/20 24/80/20