# Made in Blockbench 5.0.2
mtllib quarto.mtl

o cuboid
v 9.875 0.125 -1.1718749999999996
v 9.875 8.171875 -1.1718750000000016
v 9.875 0.125 -1.2968749999999998
v 9.875 8.171875 -1.2968750000000016
v -1.375 0.125 -1.1718749999999996
v -1.375 8.171875 -1.1718750000000016
v -1.375 0.125 -1.2968749999999998
v -1.375 8.171875 -1.2968750000000016
v 1.1875 0.125 -1.2968749999999998
v 1.1875 8.171875 -1.2968750000000016
v 1.1875 8.171875 -1.1718750000000016
v 1.1875 0.125 -1.1718749999999996
v 3.03125 0.125 -1.2968749999999998
v 3.03125 8.171875 -1.2968750000000016
v 3.03125 8.171875 -1.1718750000000016
v 3.03125 0.125 -1.1718749999999996
v 3.03125 3.875661875 -1.2968750000000004
v 1.1875 3.875661875 -1.2968750000000004
v -1.375 3.875661875 -1.2968750000000004
v -1.375 3.875661875 -1.1718750000000004
v 1.1875 3.875661875 -1.1718750000000004
v 3.03125 3.875661875 -1.1718750000000004
v 9.875 3.875661875 -1.1718750000000004
v 9.875 3.875661875 -1.2968750000000004
vt 0.005291005291005291 0.990990990990991
vt 0.015155595238095239 0.990990990990991
vt 0.015155595238095239 0.996996996996997
vt 0.005291005291005291 0.996996996996997
vt 0.026455026455026454 0.996996996996997
vt 0.01659043650793651 0.996996996996997
vt 0.01659043650793651 0.990990990990991
vt 0.026455026455026454 0.990990990990991
vt 0.3521759702675492 0.007441748317660646
vt 0.3521759702675492 0.17389469761732534
vt 0.031746031746031744 0.17389469761732534
vt 0.031746031746031744 0.007441748317660646
vt 0.005291005291005291 0.996996996996997
vt 0.005291005291005291 0.8864202759009009
vt 0.3480747652116402 0.8864202759009009
vt 0.3480747652116402 0.996996996996997
vt 0.005291005291005291 0.990990990990991
vt 0.015049973544973545 0.990990990990991
vt 0.015049973544973545 0.996996996996997
vt 0.005291005291005291 0.996996996996997
vt 0.026455026455026454 0.996996996996997
vt 0.0166960582010582 0.996996996996997
vt 0.0166960582010582 0.990990990990991
vt 0.026455026455026454 0.990990990990991
vt 0.0166960582010582 0.996996996996997
vt 0.013227513227513227 0.996996996996997
vt 0.013227513227513227 0.990990990990991
vt 0.0166960582010582 0.990990990990991
vt 0.4699074074074074 0.996996996996997
vt 0.4699074074074074 0.8864202759009009
vt 0.7486772486772487 0.8864202759009009
vt 0.7486772486772487 0.996996996996997
vt 0.005291005291005291 0.990990990990991
vt 0.013227513227513227 0.990990990990991
vt 0.013227513227513227 0.996996996996997
vt 0.005291005291005291 0.996996996996997
vt 0.9749159222843434 0.007441748317660646
vt 0.9749159222843434 0.20403432629710005
vt 0.6663145577619262 0.20403432629710005
vt 0.6663145577619262 0.007441748317660646
vt 0.026455026455026454 0.996996996996997
vt 0.018518518518518517 0.996996996996997
vt 0.018518518518518517 0.990990990990991
vt 0.026455026455026454 0.990990990990991
vt 0.4699074074074074 0.7597597597597597
vt 0.4699074074074074 0.8864202759009009
vt 0.3480747652116402 0.8864202759009009
vt 0.3480747652116402 0.7597597597597597
vt 0.3480747652116402 0.7597597597597597
vt 0.3480747652116402 0.8864202759009009
vt 0.005291005291005291 0.8864202759009009
vt 0.005291005291005291 0.7597597597597597
vt 0.005291005291005291 0.990990990990991
vt 0.01659043650793651 0.990990990990991
vt 0.01659043650793651 0.996996996996997
vt 0.005291005291005291 0.996996996996997
vt 0.031746031746031744 0.28828828828828834
vt 0.031746031746031744 0.13896012801122293
vt 0.38276526401473765 0.13896012801122293
vt 0.38276526401473765 0.28828828828828834
vt 0.43884563588458325 0.28828828828828834
vt 0.43884563588458325 0.1293702461585674
vt 0.6051359702675493 0.1293702461585674
vt 0.6051359702675493 0.28828828828828834
vt 0.7172967140072403 0.28828828828828834
vt 0.7172967140072403 0.1643048157646697
vt 0.9749159222843434 0.1643048157646697
vt 0.9749159222843434 0.28828828828828834
vt 0.026455026455026454 0.996996996996997
vt 0.015155595238095239 0.996996996996997
vt 0.015155595238095239 0.990990990990991
vt 0.026455026455026454 0.990990990990991
vt 0.7486772486772487 0.7597597597597597
vt 0.7486772486772487 0.8864202759009009
vt 0.4699074074074074 0.8864202759009009
vt 0.4699074074074074 0.7597597597597597
vt 0.005291005291005291 0.996996996996997
vt 0.005291005291005291 0.9954954954954955
vt 0.08467010582010581 0.9954954954954955
vt 0.08467010582010581 0.996996996996997
vt 0.04431216931216931 0.996996996996997
vt 0.005291005291005291 0.996996996996997
vt 0.005291005291005291 0.9954954954954955
vt 0.04431216931216931 0.9954954954954955
vt 0.08467010582010581 0.9954954954954955
vt 0.08467010582010581 0.996996996996997
vt 0.005291005291005291 0.996996996996997
vt 0.005291005291005291 0.9954954954954955
vt 0.005291005291005291 0.996996996996997
vt 0.005291005291005291 0.9954954954954955
vt 0.04431216931216931 0.9954954954954955
vt 0.04431216931216931 0.996996996996997
vn 1 0 0
vn -1 0 0
vn 0 2.220446049250313e-16 1
vn 0 -2.220446049250313e-16 -1
vn 0 -1 2.220446049250313e-16
vn 0 1 -2.220446049250313e-16
vn 0 1 -2.220446049250313e-16
vn 0 -2.220446049250313e-16 -1
vn 0 1 -2.220446049250313e-16
vn 0 2.220446049250313e-16 1
vn 0 -1 2.220446049250313e-16
vn 0 -2.220446049250313e-16 -1
vn 0 -2.220446049250313e-16 -1
vn -1 0 0
vn 0 2.220446049250313e-16 1
vn 0 2.220446049250313e-16 1
vn 0 2.220446049250313e-16 1
vn 1 0 0
vn 0 -2.220446049250313e-16 -1
vn 1 0 0
vn 0 -1 2.220446049250313e-16
vn -1 0 0
vn 0 -1 2.220446049250313e-16
usemtl m_f7a0388f-5925-762f-8d6f-20060d05b48e
f 3/1/1 24/2/1 23/3/1 1/4/1
f 5/5/2 20/6/2 19/7/2 7/8/2
f 12/9/3 21/10/3 20/11/3 5/12/3
f 7/13/4 19/14/4 18/15/4 9/16/4
f 7/17/5 9/18/5 12/19/5 5/20/5
f 6/21/6 11/22/6 10/23/6 8/24/6
f 11/25/7 15/26/7 14/27/7 10/28/7
f 13/29/8 17/30/8 24/31/8 3/32/8
f 4/33/9 14/34/9 15/35/9 2/36/9
f 1/37/10 23/38/10 22/39/10 16/40/10
f 1/41/11 16/42/11 13/43/11 3/44/11
f 14/45/12 17/46/12 18/47/12 10/48/12
f 10/49/13 18/50/13 19/51/13 8/52/13
f 8/53/14 19/54/14 20/55/14 6/56/14
f 6/57/15 20/58/15 21/59/15 11/60/15
f 11/61/16 21/62/16 22/63/16 15/64/16
f 15/65/17 22/66/17 23/67/17 2/68/17
f 2/69/18 23/70/18 24/71/18 4/72/18
f 4/73/19 24/74/19 17/75/19 14/76/19
f 12/77/20 9/78/20 18/79/20 21/80/20
f 16/81/21 12/82/21 9/83/21 13/84/21
f 13/85/22 16/86/22 22/87/22 17/88/22
f 21/89/23 18/90/23 17/91/23 22/92/23
o cuboid
v 9.875 0.125 9.140625
v 9.875 8.171875 9.140624999999998
v 9.875 0.125 9.015625
v 9.875 8.171875 9.015624999999998
v -1.375 0.125 9.140625
v -1.375 8.171875 9.140624999999998
v -1.375 0.125 9.015625
v -1.375 8.171875 9.015624999999998
vt 0.026455026455026454 0.996996996996997
vt 0.005291005291005291 0.996996996996997
vt 0.005291005291005291 0.990990990990991
vt 0.026455026455026454 0.990990990990991
vt 0.026455026455026454 0.990990990990991
vt 0.026455026455026454 0.996996996996997
vt 0.005291005291005291 0.996996996996997
vt 0.005291005291005291 0.990990990990991
vt 0.005291005291005291 0.44819819819819817
vt 0.8531746031746034 0.44819819819819817
vt 0.8531746031746034 0.996996996996997
vt 0.005291005291005291 0.996996996996997
vt 0.9710922605659448 0.28828828828828834
vt 0.9710922605659448 0.006756756756756799
vt 0.031746031746031744 0.006756756756756799
vt 0.031746031746031744 0.28828828828828834
vt 0.026455026455026454 0.990990990990991
vt 0.026455026455026454 0.996996996996997
vt 0.005291005291005291 0.996996996996997
vt 0.005291005291005291 0.990990990990991
vt 0.026455026455026454 0.996996996996997
vt 0.005291005291005291 0.996996996996997
vt 0.005291005291005291 0.990990990990991
vt 0.026455026455026454 0.990990990990991
vn 1 0 0
vn -1 0 0
vn 0 2.220446049250313e-16 1
vn 0 -2.220446049250313e-16 -1
vn 0 -1 2.220446049250313e-16
vn 0 1 -2.220446049250313e-16
usemtl m_f7a0388f-5925-762f-8d6f-20060d05b48e
f 26/93/24 25/94/24 27/95/24 28/96/24
f 31/97/25 29/98/25 30/99/25 32/100/25
f 29/101/26 25/102/26 26/103/26 30/104/26
f 28/105/27 27/106/27 31/107/27 32/108/27
f 27/109/28 25/110/28 29/111/28 31/112/28
f 30/113/29 26/114/29 28/115/29 32/116/29
o cuboid
v -1.4374999999999978 0.12500000000000222 9.934375
v -1.4374999999999978 8.171875000000002 9.934374999999998
v -1.3124999999999978 0.12500000000000222 9.934375
v -1.3124999999999978 8.171875000000002 9.934374999999998
v -1.4375000000000002 0.12499999999999978 -1.3156249999999998
v -1.4375000000000002 8.171875 -1.3156250000000016
v -1.3125000000000002 0.12499999999999978 -1.3156249999999998
v -1.3125000000000002 8.171875 -1.3156250000000016
vt 0.026455026455026454 0.996996996996997
vt 0.005291005291005291 0.996996996996997
vt 0.005291005291005291 0.990990990990991
vt 0.026455026455026454 0.990990990990991
vt 0.026455026455026454 0.990990990990991
vt 0.026455026455026454 0.996996996996997
vt 0.005291005291005291 0.996996996996997
vt 0.005291005291005291 0.990990990990991
vt 0.005291005291005291 0.5187687687687688
vt 0.8650793650793651 0.5187687687687688
vt 0.8650793650793651 0.996996996996997
vt 0.005291005291005291 0.996996996996997
vt 0.9761904761904762 0.28828828828828834
vt 0.9761904761904762 0.010866706122180436
vt 0.031746031746031744 0.010866706122180436
vt 0.031746031746031744 0.28828828828828834
vt 0.026455026455026454 0.990990990990991
vt 0.026455026455026454 0.996996996996997
vt 0.005291005291005291 0.996996996996997
vt 0.005291005291005291 0.990990990990991
vt 0.026455026455026454 0.996996996996997
vt 0.005291005291005291 0.996996996996997
vt 0.005291005291005291 0.990990990990991
vt 0.026455026455026454 0.990990990990991
vn 2.220446049250313e-16 2.220446049250313e-16 1
vn -2.220446049250313e-16 -2.220446049250313e-16 -1
vn -1 4.930380657631324e-32 2.220446049250313e-16
vn 1 -4.930380657631324e-32 -2.220446049250313e-16
vn 4.930380657631324e-32 -1 2.220446049250313e-16
vn -4.930380657631324e-32 1 -2.220446049250313e-16
usemtl m_f7a0388f-5925-762f-8d6f-20060d05b48e
f 34/117/30 33/118/30 35/119/30 36/120/30
f 39/121/31 37/122/31 38/123/31 40/124/31
f 37/125/32 33/126/32 34/127/32 38/128/32
f 36/129/33 35/130/33 39/131/33 40/132/33
f 35/133/34 33/134/34 37/135/34 39/136/34
f 38/137/35 34/138/35 36/139/35 40/140/35
o cuboid
v 9.750000000000002 0.12500000000000222 9.934375
v 9.750000000000002 8.171875000000002 9.934374999999998
v 9.875000000000002 0.12500000000000222 9.934375
v 9.875000000000002 8.171875000000002 9.934374999999998
v 9.75 0.12499999999999978 -1.3156249999999998
v 9.75 8.171875 -1.3156250000000016
v 9.875 0.12499999999999978 -1.3156249999999998
v 9.875 8.171875 -1.3156250000000016
vt 0.026455026455026454 0.996996996996997
vt 0.005291005291005291 0.996996996996997
vt 0.005291005291005291 0.990990990990991
vt 0.026455026455026454 0.990990990990991
vt 0.026455026455026454 0.990990990990991
vt 0.026455026455026454 0.996996996996997
vt 0.005291005291005291 0.996996996996997
vt 0.005291005291005291 0.990990990990991
vt 0.031746031746031744 0.009496723000372742
vt 0.9723668144720776 0.009496723000372742
vt 0.9723668144720776 0.28828828828828834
vt 0.031746031746031744 0.28828828828828834
vt 0.7671957671957672 0.5315315315315315
vt 0.7671957671957672 0.9264264264264265
vt 0.17724867724867724 0.9264264264264265
vt 0.17724867724867724 0.5315315315315315
vt 0.026455026455026454 0.990990990990991
vt 0.026455026455026454 0.996996996996997
vt 0.005291005291005291 0.996996996996997
vt 0.005291005291005291 0.990990990990991
vt 0.026455026455026454 0.996996996996997
vt 0.005291005291005291 0.996996996996997
vt 0.005291005291005291 0.990990990990991
vt 0.026455026455026454 0.990990990990991
vn 2.220446049250313e-16 2.220446049250313e-16 1
vn -2.220446049250313e-16 -2.220446049250313e-16 -1
vn -1 4.930380657631324e-32 2.220446049250313e-16
vn 1 -4.930380657631324e-32 -2.220446049250313e-16
vn 4.930380657631324e-32 -1 2.220446049250313e-16
vn -4.930380657631324e-32 1 -2.220446049250313e-16
usemtl m_f7a0388f-5925-762f-8d6f-20060d05b48e
f 42/141/36 41/142/36 43/143/36 44/144/36
f 47/145/37 45/146/37 46/147/37 48/148/37
f 45/149/38 41/150/38 42/151/38 46/152/38
f 44/153/39 43/154/39 47/155/39 48/156/39
f 43/157/40 41/158/40 45/159/40 47/160/40
f 46/161/41 42/162/41 44/163/41 48/164/41
o chao
v 2.4326925 0.125 -1.3125
v 9.875 0 -1.3125
v -1.375 0.125 -1.3125
v -1.375 0 -1.3125
v -1.375 0.125 2.7911325
v -1.375 0 2.7911325
v 9.875 0.125 9.125
v 9.875 0.125 -1.3125
v 9.875 0 9.125
v -1.375 0.125 9.125
v -1.375 0 9.125
v 4.25 0.125 9.125
v 4.25 0.125 -1.3125
v 4.25 0 -1.3125
v 0.52884625 0.125 -1.3125
v 4.25 0 9.125
v 4.25 0.125 3.90625
v -1.375 0.125 3.90625
v -1.375 0 3.90625
v 4.25 0 3.90625
v 9.875 0 3.90625
v 9.875 0.125 3.90625
vt 0.23677248677248677 0.996996996996997
vt 0.20767195767195767 0.996996996996997
vt 0.26455026455026454 0.9954954954954955
vt 0.3505291005291005 0.9954954954954955
vt 0.23941798941798942 0.9857357357357357
vt 0.17857142857142858 0.9857357357357357
vt 0.17857142857142858 0.9842342342342343
vt 0.23941798941798942 0.9842342342342343
vt 0.3333333333333333 0.9902402402402403
vt 0.25595238095238093 0.9902402402402403
vt 0.25595238095238093 0.9887387387387387
vt 0.3333333333333333 0.9887387387387387
vt 0.17857142857142858 0.9864864864864865
vt 0.25595238095238093 0.9864864864864865
vt 0.25595238095238093 0.987987987987988
vt 0.17857142857142858 0.987987987987988
vt 0.7364649334813943 0.5422126672126673
vt 0.7364649334813943 0.9024024024024024
vt 0.0291005291005291 0.9024024024024024
vt 0.0291005291005291 0.5422126672126673
vt 0.09126984126984126 0.8205705705705706
vt 0.09126984126984126 0.8644894894894894
vt 0.005291005291005291 0.8644894894894894
vt 0.005291005291005291 0.8205705705705706
vt 0.17857142857142858 0.9932432432432432
vt 0.26455026455026454 0.9932432432432432
vt 0.26455026455026454 0.9947447447447447
vt 0.17857142857142858 0.9947447447447447
vt 0.17857142857142858 0.990990990990991
vt 0.26455026455026454 0.990990990990991
vt 0.26455026455026454 0.9924924924924925
vt 0.17857142857142858 0.9924924924924925
vt 0.05764388182605003 0.574638701175143
vt 0.05764388182605003 0.9834834834834835
vt 0.7064907352973195 0.9629317225616887
vt 0.7064907352973195 0.5540869331831831
vt 0.3505291005291005 0.9924924924924925
vt 0.26455026455026454 0.9924924924924925
vt 0.26455026455026454 0.990990990990991
vt 0.3505291005291005 0.990990990990991
vt 0.17857142857142858 0.9954954954954955
vt 0.26455026455026454 0.9954954954954955
vt 0.20767195767195767 0.996996996996997
vt 0.17857142857142858 0.996996996996997
vt 0.17724867724867724 0.8205705705705706
vt 0.17724867724867724 0.8644894894894894
vt 0.09126984126984126 0.8644894894894894
vt 0.09126984126984126 0.8205705705705706
vt 0.3505291005291005 0.9947447447447447
vt 0.26455026455026454 0.9947447447447447
vt 0.26455026455026454 0.9932432432432432
vt 0.3505291005291005 0.9932432432432432
vt 0.16534391534391535 0.5353510978510978
vt 0.16534391534391535 0.9662162162162162
vt 0.9470899470899471 0.9662162162162162
vt 0.9470899470899471 0.5353510978510978
vt 0.3333333333333333 0.987987987987988
vt 0.25595238095238093 0.987987987987988
vt 0.25595238095238093 0.9864864864864865
vt 0.3333333333333333 0.9864864864864865
vt 0.005291005291005291 0.9084084084084084
vt 0.005291005291005291 0.8644894894894894
vt 0.09126984126984126 0.8644894894894894
vt 0.09126984126984126 0.9084084084084084
vt 0.09126984126984126 0.9084084084084084
vt 0.09126984126984126 0.8644894894894894
vt 0.17724867724867724 0.8644894894894894
vt 0.17724867724867724 0.9084084084084084
vt 0.17857142857142858 0.9887387387387387
vt 0.25595238095238093 0.9887387387387387
vt 0.25595238095238093 0.9902402402402403
vt 0.17857142857142858 0.9902402402402403
vt 0.0582010582010582 0.3200952575952576
vt 0.0582010582010582 0.7169669669669669
vt 0.757121355629586 0.7169669669669669
vt 0.757121355629586 0.3200952575952576
vn 0 0 1
vn 1 0 0
vn 1 0 0
vn -1 0 0
vn 0 1 0
vn 0 -1 0
vn 0 0 1
vn 0 0 -1
vn 0 1 0
vn 0 0 -1
vn 0 0 1
vn 0 -1 0
vn 0 0 1
vn 0 1 0
vn -1 0 0
vn 0 -1 0
vn 0 -1 0
vn 1 0 0
vn 0 1 0
usemtl m_f7a0388f-5925-762f-8d6f-20060d05b48e
f 49/165/42 63/166/42 62/167/42 50/168/42
f 51/169/43 53/170/43 54/171/43 52/172/43
f 56/173/44 70/174/44 69/175/44 50/176/44
f 52/177/45 67/178/45 66/179/45 51/180/45
f 61/181/46 65/182/46 70/183/46 56/184/46
f 62/185/47 68/186/47 67/187/47 52/188/47
f 59/189/48 64/190/48 60/191/48 58/192/48
f 50/193/49 62/194/49 61/195/49 56/196/49
f 51/197/50 66/198/50 65/199/50 61/200/50
f 51/201/51 61/202/51 62/203/51 52/204/51
f 52/205/52 62/206/52 63/207/52 51/208/52
f 50/209/53 69/210/53 68/211/53 62/212/53
f 55/213/54 60/214/54 64/215/54 57/216/54
f 60/217/55 65/218/55 66/219/55 58/220/55
f 58/221/56 66/222/56 67/223/56 59/224/56
f 59/225/57 67/226/57 68/227/57 64/228/57
f 64/229/58 68/230/58 69/231/58 57/232/58
f 57/233/59 69/234/59 70/235/59 55/236/59
f 55/237/60 70/238/60 65/239/60 60/240/60
o teto
v 2.4326925 8.1875 -1.3125
v 9.875 8.0625 -1.3125
v -1.375 8.1875 -1.3125
v -1.375 8.0625 -1.3125
v -1.375 8.1875 2.7911325
v -1.375 8.0625 2.7911325
v 9.875 8.1875 9.125
v 9.875 8.1875 -1.3125
v 9.875 8.0625 9.125
v -1.375 8.1875 9.125
v -1.375 8.0625 9.125
vt 0.3505291005291005 0.9954954954954955
vt 0.23677248677248677 0.996996996996997
vt 0.17857142857142858 0.996996996996997
vt 0.17857142857142858 0.9954954954954955
vt 0.23941798941798942 0.9857357357357357
vt 0.17857142857142858 0.9857357357357357
vt 0.17857142857142858 0.9842342342342343
vt 0.23941798941798942 0.9842342342342343
vt 0.3333333333333333 0.9902402402402403
vt 0.17857142857142858 0.9902402402402403
vt 0.17857142857142858 0.9887387387387387
vt 0.3333333333333333 0.9887387387387387
vt 0.3333333333333333 0.9864864864864865
vt 0.3333333333333333 0.987987987987988
vt 0.17857142857142858 0.987987987987988
vt 0.17857142857142858 0.9864864864864865
vt 0.07804232804232804 0.49024024024024027
vt 0.7328042328042328 0.49024024024024027
vt 0.7328042328042328 0.825075075075075
vt 0.07804232804232804 0.825075075075075
vt 0.786290024848446 0.19377048124767093
vt 0.7532742863569178 0.07200762806602223
vt 0.2981434623953045 0.054421798623440876
vt 0.322695054088212 0.18692056563863124
vt 0.3505291005291005 0.9932432432432432
vt 0.3505291005291005 0.9947447447447447
vt 0.17857142857142858 0.9947447447447447
vt 0.17857142857142858 0.9932432432432432
vt 0.3505291005291005 0.9924924924924925
vt 0.17857142857142858 0.9924924924924925
vt 0.17857142857142858 0.990990990990991
vt 0.3505291005291005 0.990990990990991
vn 0 0 1
vn 1 0 0
vn 1 0 0
vn -1 0 0
vn 0 1 0
vn 0 -1 0
vn 0 0 1
vn 0 0 -1
usemtl m_f7a0388f-5925-762f-8d6f-20060d05b48e
f 72/241/61 71/242/61 73/243/61 74/244/61
f 73/245/62 75/246/62 76/247/62 74/248/62
f 78/249/63 77/250/63 79/251/63 72/252/63
f 81/253/64 80/254/64 73/255/64 74/256/64
f 80/257/65 77/258/65 78/259/65 73/260/65
f 72/261/66 79/262/66 81/263/66 74/264/66
f 79/265/67 77/266/67 80/267/67 81/268/67
f 73/269/68 78/270/68 72/271/68 74/272/68